<?xml version="1.0" encoding="UTF-8"?>
<svg width="450px" height="450px" viewBox="0 0 450 450" version="1.1" xmlns="http://www.w3.org/2000/svg" xmlns:xlink="http://www.w3.org/1999/xlink">
    <title>Slice</title>
    <defs>
        <circle id="path-1" cx="193.5" cy="193.5" r="193.5"></circle>
    </defs>
    <g id="avatar" stroke="none" stroke-width="1" fill="none" fill-rule="evenodd">
        <g transform="translate(36.000000, 8.559998)">
            <g id="Group" transform="translate(0.000000, 41.440002)">
                <mask id="mask-2" fill="white">
                    <use xlink:href="#path-1"></use>
                </mask>
                <circle stroke="#3B434F" stroke-width="6" cx="193.5" cy="193.5" r="196.5"></circle>
                <path d="M48,367 C48,367 37.69812,276.688873 126.440002,266.613342 C126.440002,266.613342 164.41333,266.613342 164.41333,266.613342 C164.41333,266.613342 164.41333,249.119995 164.41333,249.119995 C164.41333,249.119995 191.125,260.593323 218.17334,250.399994 C218.17334,250.399994 219.026672,266.613342 219.026672,266.613342 C219.026672,266.613342 263.399994,266.613342 263.399994,266.613342 C263.399994,266.613342 340.673462,274.327606 336,367 C336,367 48,367 48,367 Z" id="body-bg-flat" fill="#FFFFFF" fill-rule="nonzero" mask="url(#mask-2)"></path>
                <path d="M335.261932,368.58667 C335.261932,368.58667 335.261932,368.58667 335.261932,368.58667 C335.261932,368.58667 50.745544,368.58667 50.745544,368.58667 C50.745544,368.58667 50.745544,368.58667 50.745544,368.58667 C50.745544,368.58667 45.227661,368.58667 45.227661,368.58667 C45.227661,368.58667 46.605011,345.056854 46.605011,345.056854 C49.294312,299.114624 85.491882,264.053345 126.915009,264.053345 C126.915009,264.053345 158.440002,264.053345 158.440002,264.053345 C158.440002,264.053345 158.440002,268.746674 158.440002,268.746674 C158.440002,268.746674 129.429718,268.746674 129.429718,268.746674 C89.506348,268.746674 54.619324,302.495087 52.027374,346.71701 C52.027374,346.71701 51.070648,363.040009 51.070648,363.040009 C51.070648,363.040009 334.510162,363.040009 334.510162,363.040009 C334.510162,363.040009 333.980103,346.71701 333.980103,346.71701 C331.388153,302.495087 296.501129,268.746674 256.577728,268.746674 C256.577728,268.746674 217.746674,268.746674 217.746674,268.746674 C217.746674,268.746674 217.746674,264.053345 217.746674,264.053345 C217.746674,264.053345 258.839417,264.053345 258.839417,264.053345 C300.262543,264.053345 336.460114,299.114624 339.149414,345.056854 C339.149414,345.056854 340.526764,368.58667 340.526764,368.58667 C340.526764,368.58667 335.261932,368.58667 335.261932,368.58667 Z" id="Rounded-Rectangle-13-copy" fill="#3B434F" fill-rule="nonzero" mask="url(#mask-2)"></path>
                <rect id="Rectangle" fill="#FFFFFF" mask="url(#mask-2)" x="45" y="333" width="306" height="99"></rect>
            </g>
            <path d="M168.679993,288.58609 C168.679993,288.58609 168.679993,314.901184 168.679993,314.901184 C168.679993,328.556671 179.75946,339.626678 193.426666,339.626678 C207.093872,339.626678 218.17334,328.556671 218.17334,314.901184 C218.17334,314.901184 218.17334,289.128997 218.17334,289.128997 C219.609497,288.691864 221.032135,288.217071 222.440002,287.704132 C222.440002,287.704132 222.440002,315.080291 222.440002,315.080291 C222.440002,331.228912 209.354797,344.320007 193.213348,344.320007 C177.071899,344.320007 163.986664,331.228912 163.986664,315.080291 C163.986664,315.080291 163.986664,286.893676 163.986664,286.893676 C165.532501,287.504913 167.098206,288.067108 168.679993,288.58609 Z" id="neck-copy-5" fill="#3B434F" fill-rule="nonzero"></path>
            <path d="M163.773346,339.200012 C165.304993,339.200012 166.546661,340.44165 166.546661,341.973327 C166.546661,341.973327 166.546661,383.786651 166.546661,383.786651 C166.546661,385.318328 165.304993,386.559997 163.773346,386.559997 C162.241669,386.559997 161,385.318328 161,383.786651 C161,383.786651 161,341.973327 161,341.973327 C161,340.44165 162.241669,339.200012 163.773346,339.200012 Z" id="Rounded-Rectangle-14" fill="#3B434F" fill-rule="nonzero"></path>
            <path d="M222.013336,338.773346 C223.662811,338.773346 225,340.110504 225,341.760009 C225,341.760009 225,367.786651 225,367.786651 C225,369.436157 223.662811,370.773346 222.013336,370.773346 C220.363831,370.773346 219.026672,369.436157 219.026672,367.786651 C219.026672,367.786651 219.026672,341.760009 219.026672,341.760009 C219.026672,340.110504 220.363831,338.773346 222.013336,338.773346 Z" id="Rounded-Rectangle-15" fill="#3B434F" fill-rule="nonzero"></path>
            <path d="M163.773346,383.573333 C164.598083,383.573333 165.266663,384.241912 165.266663,385.06668 C165.266663,385.06668 165.266663,395.733337 165.266663,395.733337 C165.266663,396.558075 164.598083,397.226654 163.773346,397.226654 C162.948578,397.226654 162.279999,396.558075 162.279999,395.733337 C162.279999,395.733337 162.279999,385.06668 162.279999,385.06668 C162.279999,384.241912 162.948578,383.573333 163.773346,383.573333 Z" id="Rounded-Rectangle-16" fill="#3B434F" fill-rule="nonzero"></path>
            <path d="M222.226654,367.786651 C223.051422,367.786651 223.720001,368.455261 223.720001,369.279998 C223.720001,369.279998 223.720001,379.946655 223.720001,379.946655 C223.720001,380.771423 223.051422,381.440002 222.226654,381.440002 C221.401917,381.440002 220.733337,380.771423 220.733337,379.946655 C220.733337,379.946655 220.733337,369.279998 220.733337,369.279998 C220.733337,368.455261 221.401917,367.786651 222.226654,367.786651 Z" id="Rounded-Rectangle-16-copy" fill="#3B434F" fill-rule="nonzero"></path>
            <path d="M147.765503,278.086151 C147.765503,278.086151 120.741852,284.291381 120.741852,284.291381 C120.741852,284.291381 87.648834,291.787414 109.665649,314.090942 C131.682495,336.39447 188.306671,340.333343 188.306671,340.333343 C188.306671,340.333343 173.335297,333.242096 166.973328,323.266662 C166.973328,323.266662 164.839996,287.426666 164.839996,287.426666 C164.839996,287.426666 147.765503,278.086151 147.765503,278.086151 Z" id="Shape-1-copy" fill="#F5F3EF" fill-rule="nonzero"></path>
            <path d="M189.160004,342.466674 C187.483246,344.588928 140.333374,343.129699 107.666656,314.733337 C84.014038,294.172668 119.613342,282.306671 119.613342,282.306671 C119.613342,282.306671 145.640015,276.333343 145.640015,276.333343 C145.640015,276.333343 168.253326,287.853332 168.253326,287.853332 C168.253326,287.853332 169.959991,322.41333 169.959991,322.41333 C179.479462,337.339691 191.859344,339.050109 189.160004,342.466674 Z M165.693329,324.119995 C165.693329,324.119995 163.133331,287.853332 163.133331,287.853332 C163.133331,287.853332 149.480011,280.173339 149.480011,280.173339 C149.480011,280.173339 123.453339,286.573333 123.453339,286.573333 C123.453339,286.573333 91.928406,293.037872 111.933319,311.746673 C133.522644,331.937133 173.461578,337.35559 177.640015,336.920013 C181.970764,336.468505 175.212799,339.046386 165.693329,324.119995 Z" id="Shape-1-copy-2" fill="#3B434F"></path>
            <path d="M239.059265,279.0914 C239.059265,279.0914 266.098938,285.315216 266.098938,285.315216 C266.098938,285.315216 299.211548,292.833679 277.181702,315.20401 C255.151794,337.57434 198.494049,341.524993 198.494049,341.524993 C198.494049,341.524993 213.474335,334.412536 219.840027,324.407226 C219.840027,324.407226 221.97464,288.459899 221.97464,288.459899 C221.97464,288.459899 239.059265,279.0914 239.059265,279.0914 Z" id="Shape-1-copy-4" fill="#F5F3EF" fill-rule="nonzero"></path>
            <path d="M197.640228,343.238037 C199.317963,345.366668 246.495789,343.903076 279.181854,315.421661 C302.848511,294.799408 267.228119,282.897888 267.228119,282.897888 C267.228119,282.897888 241.186005,276.906677 241.186005,276.906677 C241.186005,276.906677 218.559296,288.461151 218.559296,288.461151 C218.559296,288.461151 216.851593,323.124664 216.851593,323.124664 C207.326508,338.095733 194.939301,339.811248 197.640228,343.238037 Z M221.120789,324.836425 C221.120789,324.836425 223.682312,288.461151 223.682312,288.461151 C223.682312,288.461151 237.34375,280.758178 237.34375,280.758178 C237.34375,280.758178 263.385834,287.177337 263.385834,287.177337 C263.385834,287.177337 294.929474,293.661224 274.912659,312.426055 C253.310547,332.677002 213.347931,338.111663 209.167053,337.674774 C204.83371,337.221923 211.595703,339.807495 221.120789,324.836425 Z" id="Shape-1-copy-6" fill="#3B434F"></path>
            <path d="M193.214661,20.906646 C246.292542,20.906646 288.186951,70.507873 286.824738,130.10495 C286.824738,130.10495 285.376923,193.446106 285.376923,193.446106 C284.093597,249.592468 242.845428,293.973327 193.214661,293.973327 C143.583893,293.973327 102.335724,249.592468 101.052399,193.446106 C101.052399,193.446106 99.604584,130.10495 99.604584,130.10495 C98.242401,70.507873 140.13678,20.906646 193.214661,20.906646 Z" id="2-copy-5" fill="#FFFFFF" fill-rule="nonzero"></path>
            <path d="M291.089386,128.141143 C291.089386,128.141143 289.572327,194.055511 289.572327,194.055511 C288.227631,252.482818 245.006287,298.666656 193.001404,298.666656 C140.99649,298.666656 97.775177,252.482818 96.43045,194.055511 C96.43045,194.055511 94.913361,128.141143 94.913361,128.141143 C93.486023,66.122924 137.384491,14.506652 193.001404,14.506652 C248.618317,14.506652 292.516754,66.122924 291.089386,128.141143 Z M192.7883,21.333313 C140.436035,21.333313 99.11438,70.547027 100.457916,129.678497 C100.457916,129.678497 101.885956,192.52481 101.885956,192.52481 C103.151733,248.232513 143.836029,292.266662 192.7883,292.266662 C241.74057,292.266662 282.424835,248.232513 283.690613,192.52481 C283.690613,192.52481 285.118622,129.678497 285.118622,129.678497 C286.462219,70.547027 245.140564,21.333313 192.7883,21.333313 Z" id="2-line" fill="#3B434F"></path>
            <path d="M288.426666,139.093322 C288.426666,139.093322 284.160004,209.06668 284.160004,209.06668 C284.160004,209.06668 265.209778,289.837616 192,299.401367 C192,299.401367 192,299.519989 192,299.519989 C191.85611,299.50241 191.716797,299.47882 191.573334,299.460693 C191.429871,299.47882 191.290558,299.50241 191.146667,299.519989 C191.146667,299.519989 191.146667,299.401367 191.146667,299.401367 C117.93692,289.837616 98.986664,209.06668 98.986664,209.06668 C98.986664,209.06668 94.720001,139.093322 94.720001,139.093322 C113.717773,223.420013 129.706665,228.693359 129.706665,228.693359 C126.4711,203.122222 152.746674,205.65335 152.746674,205.65335 C168.760803,208.358429 181.509155,209.665618 191.573334,210.154327 C201.637543,209.665618 214.385864,208.358429 230.399994,205.65335 C230.399994,205.65335 256.675537,203.122222 253.440002,228.693359 C253.440002,228.693359 269.428894,223.420013 288.426666,139.093322 Z M240.983093,237.366394 C239.741058,222.324768 230.670868,223.600219 230.670868,223.600219 C214.546234,228.344848 201.888733,230.980651 192,232.320251 C192,232.320251 192,232.221923 192,232.221923 C182.180511,230.893249 169.611664,228.279083 153.600006,223.573333 C153.600006,223.573333 144.593323,222.308319 143.359985,237.226684 C143.359985,237.226684 139.743317,252.173339 151.893341,258.559997 C151.893341,258.559997 167.253326,274.773346 167.253326,274.773346 C167.253326,274.773346 177.75,278.100006 177.493347,265.386657 C177.493347,265.386657 176.424988,255.904998 182.613342,254.293335 C182.613342,254.293335 192,254.293335 192,254.293335 C192,254.293335 192,254.574096 192,254.574096 C192,254.574096 201.452881,254.574096 201.452881,254.574096 C207.684875,256.199096 206.609009,265.759124 206.609009,265.759124 C206.350525,278.577545 216.921204,275.223358 216.921204,275.223358 C216.921204,275.223358 232.389557,258.876037 232.389557,258.876037 C244.625275,252.436584 240.983093,237.366394 240.983093,237.366394 Z" id="1-copy-4" fill-opacity="0.09" fill="#3B434F"></path>
            <path d="M239.079987,231.76593 C231.324768,238.499755 213.808014,244.906646 193.426697,244.906646 C173.045349,244.906646 155.528595,238.499755 147.773346,231.76593 C147.773346,231.76593 146.979889,229.582641 148.144043,228.418487 C149.329742,227.232788 151.186676,227.490844 151.186676,227.490844 C158.933777,234.229248 173.037567,239.786682 193.426697,239.786682 C213.815796,239.786682 227.919586,234.229248 235.666687,227.490844 C235.666687,227.490844 237.561707,226.786895 238.482269,227.707458 C240.25531,229.480499 239.079987,231.76593 239.079987,231.76593 Z" id="usta" fill="#3B434F" fill-rule="nonzero"></path>
            <path d="M179.34668,255.146667 C179.34668,255.146667 206.653351,255.146667 206.653351,255.146667 C206.653351,255.146667 206.653351,259.41333 206.653351,259.41333 C206.653351,259.41333 179.34668,259.41333 179.34668,259.41333 C179.34668,259.41333 179.34668,255.146667 179.34668,255.146667 Z" id="-" fill="#3B434F" fill-rule="nonzero"></path>
            <path d="M94.80722,137.753143 C94.795441,137.753814 93.759613,136.926605 91.803619,136.31076 C90.826019,136.003509 89.611023,135.750762 88.226166,135.688446 C87.88031,135.672882 87.524353,135.669189 87.160126,135.679534 C86.795898,135.68988 86.42337,135.714233 86.044708,135.754669 C85.287476,135.835571 84.505402,135.980957 83.718414,136.207336 C80.567261,137.112915 77.352692,139.314666 75.464783,143.8591 C74.51709,146.131439 73.891907,148.989715 73.726624,152.565918 C73.685272,153.459991 73.672638,154.398925 73.690765,155.384796 C73.708923,156.370666 73.757874,157.403472 73.83963,158.48529 C74.003052,160.648834 74.298157,163.008453 74.737854,165.579681 C74.728241,165.577148 74.327759,173.34967 77.106445,182.280822 C79.718689,191.012786 85.991516,201.739227 97.573334,204.804412 C96.241302,182.62503 96.199921,160.029907 94.80722,137.753143 C94.80722,137.753143 94.80722,137.753143 94.80722,137.753143 Z" id="Shape-11-copy" fill="#FFFFFF" fill-rule="nonzero"></path>
            <path d="M96.127869,138.647277 C96.127869,138.647277 75.951477,132.395599 76.66153,153.138092 C76.66153,153.138092 79.665436,183.215362 80.969879,185.987365 C80.969879,185.987365 88.893707,203.499389 101.970856,204.275482 C114.751862,205.033996 101.970856,204.275482 101.970856,204.275482 C101.970856,204.275482 102.129578,209.920013 102.129578,209.920013 C102.129578,209.920013 79.144928,206.973022 74.705597,180.485412 C74.705597,180.485412 71.201721,156.422699 71.201721,156.422699 C71.201721,156.422699 68.48111,124.578064 94.871185,132.674804 C120.580475,140.562683 94.871185,132.674804 94.871185,132.674804 C94.871185,132.674804 96.127869,138.647277 96.127869,138.647277" id="Shape-3" fill="#3B434F" fill-rule="nonzero"></path>
            <path d="M89.468323,180.434814 C89.468323,180.434814 88.339172,181.288147 87.369171,181.288147 C86.39917,181.288147 85.283783,180.434814 85.283783,180.434814 C85.283783,180.434814 83.201569,159.452026 83.201569,159.452026 C83.201569,159.452026 86.074493,149.11856 98.265381,154.579498 C98.265381,154.579498 98.553558,160.579223 98.553558,160.579223 C98.553558,160.579223 87.85791,156.78601 88.079071,161.509429 C88.291962,166.055969 89.468323,180.434814 89.468323,180.434814 Z" id="Shape-4" fill="#3B434F" fill-rule="nonzero"></path>
            <path d="M290.813416,137.802124 C290.825256,137.802795 291.865631,136.976165 293.83017,136.360717 C294.812073,136.05368 296.032379,135.801117 297.423309,135.73883 C297.77066,135.723297 298.128174,135.719604 298.494019,135.72995 C298.859833,135.740264 299.233978,135.764617 299.614319,135.805023 C300.374847,135.885864 301.16037,136.031158 301.950806,136.257385 C305.115753,137.162353 308.344391,139.362609 310.24057,143.903961 C311.192413,146.174743 311.820343,149.031066 311.986328,152.604858 C312.027863,153.498321 312.040558,154.436615 312.022369,155.421814 C312.00412,156.407012 311.954956,157.439117 311.872833,158.520202 C311.70871,160.682281 311.412292,163.040313 310.970673,165.609771 C310.980347,165.607238 311.382568,173.374511 308.591705,182.299591 C305.968048,191.025634 299.667725,201.744781 288.035187,204.807891 C289.373047,182.643554 289.414612,160.063781 290.813416,137.802124 C290.813416,137.802124 290.813416,137.802124 290.813416,137.802124 Z" id="Shape-11-copy_1" fill="#FFFFFF" fill-rule="nonzero"></path>
            <path d="M289.482605,138.695678 C289.482605,138.695678 309.747375,132.448242 309.03421,153.176635 C309.03421,153.176635 306.017151,183.23349 304.70697,186.003601 C304.70697,186.003601 296.748444,203.503753 283.614044,204.279327 C270.777039,205.037323 283.614044,204.279327 283.614044,204.279327 C283.614044,204.279327 283.45462,209.920013 283.45462,209.920013 C283.45462,209.920013 306.539917,206.975036 310.998688,180.505401 C310.998688,180.505401 314.517914,156.459014 314.517914,156.459014 C314.517914,156.459014 317.250458,124.635986 290.744781,132.727233 C264.922913,140.609771 290.744781,132.727233 290.744781,132.727233 C290.744781,132.727233 289.482605,138.695678 289.482605,138.695678" id="Shape-3_1" fill="#3B434F" fill-rule="nonzero"></path>
            <path d="M296.171326,180.454834 C296.171326,180.454834 297.30542,181.307586 298.279663,181.307586 C299.253906,181.307586 300.374176,180.454834 300.374176,180.454834 C300.374176,180.454834 302.465515,159.486297 302.465515,159.486297 C302.465515,159.486297 299.580017,149.159851 287.335724,154.617065 C287.335724,154.617065 287.046295,160.612731 287.046295,160.612731 C287.046295,160.612731 297.788788,156.822082 297.56665,161.542297 C297.352844,166.085754 296.171326,180.454834 296.171326,180.454834 Z" id="Shape-4_1" fill="#3B434F" fill-rule="nonzero"></path>
            <path d="M200.893341,178.773346 C201.391052,178.773346 201.888947,178.773346 202.386658,178.773346 C205.474121,182.966308 206.730225,189.409759 208.359985,194.986663 C208.865051,196.714965 208.375061,199.737976 207.933319,200.959991 C206.315552,205.435516 201.235687,205.355194 197.053345,207.359985 C195.930115,207.898437 195.094604,208.827819 193.640015,209.06668 C192.691711,208.231353 191.546722,208.067291 191.079987,206.720001 C189.927673,205.13327 191.412811,204.142395 192.573334,203.519989 C194.679565,202.390411 201.181488,201.277099 201.959991,199.253326 C202.923218,198.157592 202.282745,194.863159 201.959991,193.706665 C201.133392,190.744506 200.736633,188.271545 199.613342,185.600006 C198.867188,183.8255 197.557159,181.954498 198.333344,179.839996 C198.976532,179.563812 200.366638,179.249786 200.893341,178.773346 Z" id="new_vector_shape_done" fill="#3B434F"></path>
            <path d="M138.813324,148.650665 C138.813324,148.650665 154.17334,148.650665 154.17334,148.650665 C156.294098,148.650665 158.013336,150.713745 158.013336,153.258667 C158.013336,155.803588 156.294098,157.866668 154.17334,157.866668 C154.17334,157.866668 138.813324,157.866668 138.813324,157.866668 C136.692566,157.866668 134.973328,155.803588 134.973328,153.258667 C134.973328,150.713745 136.692566,148.650665 138.813324,148.650665 Z" id="Rounded-Rectangle-9" fill="#3B434F" fill-rule="nonzero"></path>
            <path d="M232.679993,147.626678 C232.679993,147.626678 248.040009,147.626678 248.040009,147.626678 C250.160767,147.626678 251.880005,149.689727 251.880005,152.23468 C251.880005,154.779602 250.160767,156.842651 248.040009,156.842651 C248.040009,156.842651 232.679993,156.842651 232.679993,156.842651 C230.559235,156.842651 228.839996,154.779602 228.839996,152.23468 C228.839996,149.689727 230.559235,147.626678 232.679993,147.626678 Z" id="Rounded-Rectangle-9-copy" fill="#3B434F" fill-rule="nonzero"></path>
            <path d="M100.016968,165.546661 C100.016968,165.546661 111.886597,113.55075 122.215393,99.328002 C132.544189,85.105255 141.482269,81.70343 146.121399,81.268371 C150.760529,80.833343 187.293213,91.632659 237.47644,79.261718 C237.47644,79.261718 257.26358,78.472015 265.651367,98.324707 C265.651367,98.324707 283.335724,129.962371 286.142212,161.533416 C286.142212,161.533416 289.557343,161.533416 289.557343,161.533416 C289.557343,161.533416 296.794525,106.190521 293.826324,73.241851 C290.858032,40.293212 247.721863,24.079528 247.721863,24.079528 C247.721863,24.079528 257.113495,17.056304 257.113495,17.056304 C257.113495,17.056304 235.18689,10.278076 226.377228,14.046417 C226.377228,14.046417 233.207489,1.42108547e-14 233.207489,1.42108547e-14 C233.207489,1.42108547e-14 188.957397,0.088195 164.050873,20.066253 C164.050873,20.066253 164.904663,10.033111 164.904663,10.033111 C164.904663,10.033111 77.114838,23.495575 95.748047,163.540039 C95.748047,163.540039 100.016968,165.546661 100.016968,165.546661 Z" id="Shape-7" fill="#3B434F" fill-rule="nonzero"></path>
        </g>
    </g>
</svg>