<?xml version="1.0" encoding="UTF-8"?>
<svg width="512px" height="512px" viewBox="0 0 512 512" version="1.1" xmlns="http://www.w3.org/2000/svg" xmlns:xlink="http://www.w3.org/1999/xlink">
    <title>icon</title>
    <g id="Design" stroke="none" stroke-width="1" fill="none" fill-rule="evenodd">
        <rect id="Rectangle" fill="#FFFFFF" x="256" y="256" width="256" height="256"></rect>
        <rect id="Rectangle" fill="#0A1720" x="0" y="256" width="256" height="256"></rect>
        <rect id="Rectangle" fill="#0A1720" x="256" y="0" width="256" height="256"></rect>
        <rect id="Rectangle" fill="#FFFFFF" x="0" y="0" width="256" height="256"></rect>
        <g id="vertical" transform="translate(41.000000, 53.214506)">
            <path d="M0,137.122857 L7.12750024,137.122857 L7.12750024,138.367095 L1.24287371,138.367095 L1.24287371,142.314334 L7.0767707,142.314334 L7.0767707,143.549992 L1.24287371,143.549992 L1.24287371,148.501203 L7.0767707,148.501203 L7.0767707,149.745442 L0,149.745442 L0,137.122857 Z M17.2734081,137.122857 L18.7276548,137.122857 L21.7037878,142.048325 L24.7052855,137.122857 L26.1426225,137.122857 L22.4393661,143.241078 L26.3878152,149.745442 L24.9335685,149.745442 L21.7037878,144.450992 L18.4570973,149.745442 L17.0028505,149.745442 L20.9682095,143.241078 L17.2734081,137.122857 Z M37.1255677,137.122857 L39.6028602,137.122857 C41.0232944,137.122857 41.9815094,137.185783 42.4775341,137.311638 C43.1877512,137.488978 43.7683167,137.853665 44.2192482,138.405709 C44.6701797,138.957754 44.8956421,139.651374 44.8956421,140.486591 C44.8956421,141.327529 44.6758163,142.021149 44.2361581,142.567473 C43.7964999,143.113796 43.1905698,143.481343 42.4183496,143.670125 C41.8546852,143.807421 40.8006487,143.876068 39.2562083,143.876068 L38.3684414,143.876068 L38.3684414,149.745442 L37.1255677,149.745442 L37.1255677,137.122857 Z M38.3684414,138.349933 L38.3684414,142.640411 L40.4737173,142.666154 C41.3248505,142.666154 41.9476902,142.587496 42.3422553,142.430177 C42.7368203,142.272859 43.0468311,142.018293 43.2722968,141.666472 C43.4977626,141.314651 43.6104938,140.921362 43.6104938,140.486591 C43.6104938,140.063262 43.4977626,139.675692 43.2722968,139.323872 C43.0468311,138.972051 42.7495026,138.721775 42.3803024,138.573038 C42.0111023,138.424301 41.4065813,138.349933 40.5667214,138.349933 L38.3684414,138.349933 Z M56.0476858,137.122857 L63.175186,137.122857 L63.175186,138.367095 L57.2905595,138.367095 L57.2905595,142.314334 L63.1244565,142.314334 L63.1244565,143.549992 L57.2905595,143.549992 L57.2905595,148.501203 L63.1244565,148.501203 L63.1244565,149.745442 L56.0476858,149.745442 L56.0476858,137.122857 Z M74.0482172,137.122857 L76.5255097,137.122857 C77.9064874,137.122857 78.8421562,137.180062 79.3325442,137.294476 C80.0709445,137.466096 80.6712381,137.833643 81.1334428,138.397128 C81.5956476,138.960614 81.8267465,139.654234 81.8267465,140.47801 C81.8267465,141.16449 81.6675138,141.768011 81.3490434,142.288592 C81.030573,142.809172 80.5754209,143.202462 79.9835733,143.468473 C79.3917257,143.734484 78.5744246,143.870348 77.5316456,143.876068 L82.0042999,149.745442 L80.4655039,149.745442 L76.0013045,143.876068 L75.2910909,143.876068 L75.2910909,149.745442 L74.0482172,149.745442 L74.0482172,137.122857 Z M75.2910909,138.358514 L75.2910909,142.648992 L77.4301865,142.666154 C78.2587731,142.666154 78.8717489,142.586066 79.2691323,142.425887 C79.6665157,142.265708 79.9765264,142.009712 80.1991738,141.657891 C80.4218213,141.30607 80.5331433,140.912781 80.5331433,140.47801 C80.5331433,140.054681 80.4204121,139.669972 80.1949464,139.323872 C79.9694806,138.977771 79.6735613,138.730356 79.3071794,138.581619 C78.9407976,138.432882 78.3320492,138.358514 77.480916,138.358514 L75.2910909,138.358514 Z M92.9703353,137.122857 L94.213209,137.122857 L94.213209,149.745442 L92.9703353,149.745442 L92.9703353,137.122857 Z M105.728814,137.122857 L112.856315,137.122857 L112.856315,138.367095 L106.971688,138.367095 L106.971688,142.314334 L112.805585,142.314334 L112.805585,143.549992 L106.971688,143.549992 L106.971688,148.501203 L112.805585,148.501203 L112.805585,149.745442 L105.728814,149.745442 L105.728814,137.122857 Z M123.670161,149.745442 L123.670161,137.122857 L123.940719,137.122857 L132.209634,146.785012 L132.209634,137.122857 L133.435598,137.122857 L133.435598,149.745442 L133.156585,149.745442 L124.95531,140.203419 L124.95531,149.745442 L123.670161,149.745442 Z M156.712001,139.465457 L155.73123,140.229162 C155.190112,139.514079 154.540499,138.972054 153.78237,138.603071 C153.024242,138.234088 152.19144,138.0496 151.28394,138.0496 C150.291891,138.0496 149.373132,138.291294 148.527636,138.77469 C147.682139,139.258087 147.026889,139.907372 146.561866,140.722567 C146.096843,141.537762 145.864335,142.454485 145.864335,143.472763 C145.864335,145.011622 146.384307,146.295893 147.424268,147.325612 C148.464229,148.355332 149.776138,148.870184 151.360035,148.870184 C153.101758,148.870184 154.558808,148.177994 155.73123,146.793593 L156.712001,147.548717 C156.09197,148.34961 155.318353,148.968863 154.391125,149.406494 C153.463897,149.844125 152.428179,150.062937 151.28394,150.062937 C149.108196,150.062937 147.391864,149.327843 146.134892,147.857632 C145.08084,146.616247 144.553822,145.117455 144.553822,143.361211 C144.553822,141.513436 145.192162,139.958869 146.468862,138.697462 C147.745562,137.436055 149.344935,136.805361 151.267031,136.805361 C152.428179,136.805361 153.476579,137.038475 154.412262,137.504709 C155.347945,137.970943 156.114517,138.62452 156.712001,139.465457 Z M167.8725,137.122857 L175,137.122857 L175,138.367095 L169.115373,138.367095 L169.115373,142.314334 L174.94927,142.314334 L174.94927,143.549992 L169.115373,143.549992 L169.115373,148.501203 L174.94927,148.501203 L174.94927,149.745442 L167.8725,149.745442 L167.8725,137.122857 Z" id="EXPERIENCE" fill-opacity="0.25" fill="#213E51" fill-rule="nonzero"></path>
            <path d="M17.9981816,91.7296036 L34.0589742,126.199301 L30.3598412,126.199301 L24.9516151,114.85781 L24.8878384,114.857604 L17.5404739,99.0047171 L9.98365353,115.001531 L10.0398384,115.000604 L4.72344479,126.199301 L0.883838384,126.199301 L17.1553411,91.7296036 L17.9981816,91.7296036 Z M44.7245475,91.7296036 L48.1895582,91.7296036 L48.1895582,122.871838 L61.4174705,122.871838 L61.4174705,126.199301 L44.7245475,126.199301 L44.7245475,91.7296036 Z M72.1766927,91.7296036 L79.0364774,91.7296036 C82.9697524,91.7296036 85.6231124,91.9014427 86.996637,92.245126 C88.9632745,92.7294069 90.5708985,93.7252924 91.8195572,95.2328121 C93.0682159,96.7403319 93.6925359,98.634467 93.6925359,100.915274 C93.6925359,103.211703 93.0838239,105.105838 91.8663817,106.597736 C90.6489394,108.089634 88.9710794,109.09333 86.8327513,109.608855 C85.2719279,109.983782 82.3532319,110.171243 78.0765758,110.171243 L75.6182912,110.171243 L75.6182912,126.199301 L72.1766927,126.199301 L72.1766927,91.7296036 Z M75.6182912,95.0804987 L75.6182912,106.796915 L81.4479375,106.867214 C83.8047808,106.867214 85.5294648,106.652415 86.6220412,106.222811 C87.7146176,105.793207 88.5730576,105.09804 89.197387,104.137289 C89.8217163,103.176538 90.1338763,102.102544 90.1338763,100.915274 C90.1338763,99.7592486 89.8217163,98.7008762 89.197387,97.7401252 C88.5730576,96.7793743 87.7497356,96.0959235 86.7273963,95.6897524 C85.7050569,95.2835813 84.0310989,95.0804987 81.705472,95.0804987 L75.6182912,95.0804987 Z M105.856492,91.7296036 L109.321503,91.7296036 L109.321503,106.187661 L126.833854,106.187661 L126.833854,91.7296036 L130.298865,91.7296036 L130.298865,126.199301 L126.833854,126.199301 L126.833854,109.561989 L109.321503,109.561989 L109.321503,126.199301 L105.856492,126.199301 L105.856492,91.7296036 Z M158.055369,91.7296036 L174.116162,126.199301 L170.417029,126.199301 L165.008803,114.85781 L165.001838,114.857604 L157.67115,99.0406475 L150.198838,114.857604 L150.165446,114.85781 L144.780632,126.199301 L140.941026,126.199301 L157.212529,91.7296036 L158.055369,91.7296036 Z" id="ALPHA" fill="#213E51" fill-rule="nonzero"></path>
            <g id="icon" transform="translate(34.706917, 0.000000)">
                <polygon id="Rectangle" fill="#F37360" transform="translate(79.166767, 52.746847) rotate(45.000000) translate(-79.166767, -52.746847) " points="60.5181588 34.0982607 97.8481148 34.0655207 97.8153748 71.3954767 60.4854188 71.4282167"></polygon>
                <polygon id="Rectangle" fill="#213E51" transform="translate(52.793083, 26.419416) rotate(45.000000) translate(-52.793083, -26.419416) " points="34.1444755 7.77080773 71.4744315 7.73806771 71.4416915 45.0680237 34.1117355 45.1007637"></polygon>
                <polygon id="Rectangle" fill="#5CC9D5" transform="translate(26.419416, 52.746862) rotate(45.000000) translate(-26.419416, -52.746862) " points="7.77080773 34.0982543 45.1007637 34.0655143 45.0680237 71.3954703 7.73806771 71.4282103"></polygon>
            </g>
        </g>
        <g id="vertical" transform="translate(297.000000, 53.214506)">
            <path d="M0,137.122857 L7.12750024,137.122857 L7.12750024,138.367095 L1.24287371,138.367095 L1.24287371,142.314334 L7.0767707,142.314334 L7.0767707,143.549992 L1.24287371,143.549992 L1.24287371,148.501203 L7.0767707,148.501203 L7.0767707,149.745442 L0,149.745442 L0,137.122857 Z M17.2734081,137.122857 L18.7276548,137.122857 L21.7037878,142.048325 L24.7052855,137.122857 L26.1426225,137.122857 L22.4393661,143.241078 L26.3878152,149.745442 L24.9335685,149.745442 L21.7037878,144.450992 L18.4570973,149.745442 L17.0028505,149.745442 L20.9682095,143.241078 L17.2734081,137.122857 Z M37.1255677,137.122857 L39.6028602,137.122857 C41.0232944,137.122857 41.9815094,137.185783 42.4775341,137.311638 C43.1877512,137.488978 43.7683167,137.853665 44.2192482,138.405709 C44.6701797,138.957754 44.8956421,139.651374 44.8956421,140.486591 C44.8956421,141.327529 44.6758163,142.021149 44.2361581,142.567473 C43.7964999,143.113796 43.1905698,143.481343 42.4183496,143.670125 C41.8546852,143.807421 40.8006487,143.876068 39.2562083,143.876068 L38.3684414,143.876068 L38.3684414,149.745442 L37.1255677,149.745442 L37.1255677,137.122857 Z M38.3684414,138.349933 L38.3684414,142.640411 L40.4737173,142.666154 C41.3248505,142.666154 41.9476902,142.587496 42.3422553,142.430177 C42.7368203,142.272859 43.0468311,142.018293 43.2722968,141.666472 C43.4977626,141.314651 43.6104938,140.921362 43.6104938,140.486591 C43.6104938,140.063262 43.4977626,139.675692 43.2722968,139.323872 C43.0468311,138.972051 42.7495026,138.721775 42.3803024,138.573038 C42.0111023,138.424301 41.4065813,138.349933 40.5667214,138.349933 L38.3684414,138.349933 Z M56.0476858,137.122857 L63.175186,137.122857 L63.175186,138.367095 L57.2905595,138.367095 L57.2905595,142.314334 L63.1244565,142.314334 L63.1244565,143.549992 L57.2905595,143.549992 L57.2905595,148.501203 L63.1244565,148.501203 L63.1244565,149.745442 L56.0476858,149.745442 L56.0476858,137.122857 Z M74.0482172,137.122857 L76.5255097,137.122857 C77.9064874,137.122857 78.8421562,137.180062 79.3325442,137.294476 C80.0709445,137.466096 80.6712381,137.833643 81.1334428,138.397128 C81.5956476,138.960614 81.8267465,139.654234 81.8267465,140.47801 C81.8267465,141.16449 81.6675138,141.768011 81.3490434,142.288592 C81.030573,142.809172 80.5754209,143.202462 79.9835733,143.468473 C79.3917257,143.734484 78.5744246,143.870348 77.5316456,143.876068 L82.0042999,149.745442 L80.4655039,149.745442 L76.0013045,143.876068 L75.2910909,143.876068 L75.2910909,149.745442 L74.0482172,149.745442 L74.0482172,137.122857 Z M75.2910909,138.358514 L75.2910909,142.648992 L77.4301865,142.666154 C78.2587731,142.666154 78.8717489,142.586066 79.2691323,142.425887 C79.6665157,142.265708 79.9765264,142.009712 80.1991738,141.657891 C80.4218213,141.30607 80.5331433,140.912781 80.5331433,140.47801 C80.5331433,140.054681 80.4204121,139.669972 80.1949464,139.323872 C79.9694806,138.977771 79.6735613,138.730356 79.3071794,138.581619 C78.9407976,138.432882 78.3320492,138.358514 77.480916,138.358514 L75.2910909,138.358514 Z M92.9703353,137.122857 L94.213209,137.122857 L94.213209,149.745442 L92.9703353,149.745442 L92.9703353,137.122857 Z M105.728814,137.122857 L112.856315,137.122857 L112.856315,138.367095 L106.971688,138.367095 L106.971688,142.314334 L112.805585,142.314334 L112.805585,143.549992 L106.971688,143.549992 L106.971688,148.501203 L112.805585,148.501203 L112.805585,149.745442 L105.728814,149.745442 L105.728814,137.122857 Z M123.670161,149.745442 L123.670161,137.122857 L123.940719,137.122857 L132.209634,146.785012 L132.209634,137.122857 L133.435598,137.122857 L133.435598,149.745442 L133.156585,149.745442 L124.95531,140.203419 L124.95531,149.745442 L123.670161,149.745442 Z M156.712001,139.465457 L155.73123,140.229162 C155.190112,139.514079 154.540499,138.972054 153.78237,138.603071 C153.024242,138.234088 152.19144,138.0496 151.28394,138.0496 C150.291891,138.0496 149.373132,138.291294 148.527636,138.77469 C147.682139,139.258087 147.026889,139.907372 146.561866,140.722567 C146.096843,141.537762 145.864335,142.454485 145.864335,143.472763 C145.864335,145.011622 146.384307,146.295893 147.424268,147.325612 C148.464229,148.355332 149.776138,148.870184 151.360035,148.870184 C153.101758,148.870184 154.558808,148.177994 155.73123,146.793593 L156.712001,147.548717 C156.09197,148.34961 155.318353,148.968863 154.391125,149.406494 C153.463897,149.844125 152.428179,150.062937 151.28394,150.062937 C149.108196,150.062937 147.391864,149.327843 146.134892,147.857632 C145.08084,146.616247 144.553822,145.117455 144.553822,143.361211 C144.553822,141.513436 145.192162,139.958869 146.468862,138.697462 C147.745562,137.436055 149.344935,136.805361 151.267031,136.805361 C152.428179,136.805361 153.476579,137.038475 154.412262,137.504709 C155.347945,137.970943 156.114517,138.62452 156.712001,139.465457 Z M167.8725,137.122857 L175,137.122857 L175,138.367095 L169.115373,138.367095 L169.115373,142.314334 L174.94927,142.314334 L174.94927,143.549992 L169.115373,143.549992 L169.115373,148.501203 L174.94927,148.501203 L174.94927,149.745442 L167.8725,149.745442 L167.8725,137.122857 Z" id="EXPERIENCE" fill="#455057" fill-rule="nonzero"></path>
            <path d="M17.9981816,91.7296036 L34.0589742,126.199301 L30.3598412,126.199301 L24.9516151,114.85781 L24.8878384,114.857604 L17.5404739,99.0047171 L9.98365353,115.001531 L10.0398384,115.000604 L4.72344479,126.199301 L0.883838384,126.199301 L17.1553411,91.7296036 L17.9981816,91.7296036 Z M44.7245475,91.7296036 L48.1895582,91.7296036 L48.1895582,122.871838 L61.4174705,122.871838 L61.4174705,126.199301 L44.7245475,126.199301 L44.7245475,91.7296036 Z M72.1766927,91.7296036 L79.0364774,91.7296036 C82.9697524,91.7296036 85.6231124,91.9014427 86.996637,92.245126 C88.9632745,92.7294069 90.5708985,93.7252924 91.8195572,95.2328121 C93.0682159,96.7403319 93.6925359,98.634467 93.6925359,100.915274 C93.6925359,103.211703 93.0838239,105.105838 91.8663817,106.597736 C90.6489394,108.089634 88.9710794,109.09333 86.8327513,109.608855 C85.2719279,109.983782 82.3532319,110.171243 78.0765758,110.171243 L75.6182912,110.171243 L75.6182912,126.199301 L72.1766927,126.199301 L72.1766927,91.7296036 Z M75.6182912,95.0804987 L75.6182912,106.796915 L81.4479375,106.867214 C83.8047808,106.867214 85.5294648,106.652415 86.6220412,106.222811 C87.7146176,105.793207 88.5730576,105.09804 89.197387,104.137289 C89.8217163,103.176538 90.1338763,102.102544 90.1338763,100.915274 C90.1338763,99.7592486 89.8217163,98.7008762 89.197387,97.7401252 C88.5730576,96.7793743 87.7497356,96.0959235 86.7273963,95.6897524 C85.7050569,95.2835813 84.0310989,95.0804987 81.705472,95.0804987 L75.6182912,95.0804987 Z M105.856492,91.7296036 L109.321503,91.7296036 L109.321503,106.187661 L126.833854,106.187661 L126.833854,91.7296036 L130.298865,91.7296036 L130.298865,126.199301 L126.833854,126.199301 L126.833854,109.561989 L109.321503,109.561989 L109.321503,126.199301 L105.856492,126.199301 L105.856492,91.7296036 Z M158.055369,91.7296036 L174.116162,126.199301 L170.417029,126.199301 L165.008803,114.85781 L165.001838,114.857604 L157.67115,99.0406475 L150.198838,114.857604 L150.165446,114.85781 L144.780632,126.199301 L140.941026,126.199301 L157.212529,91.7296036 L158.055369,91.7296036 Z" id="ALPHA" fill="#F6FAFB" fill-rule="nonzero"></path>
            <g id="icon" transform="translate(34.706917, 0.000000)">
                <polygon id="Rectangle" fill="#F37360" transform="translate(79.166767, 52.746847) rotate(45.000000) translate(-79.166767, -52.746847) " points="60.5181588 34.0982607 97.8481148 34.0655207 97.8153748 71.3954767 60.4854188 71.4282167"></polygon>
                <polygon id="Rectangle" fill="#F6FAFB" transform="translate(52.793083, 26.419416) rotate(45.000000) translate(-52.793083, -26.419416) " points="34.1444755 7.77080773 71.4744315 7.73806771 71.4416915 45.0680237 34.1117355 45.1007637"></polygon>
                <polygon id="Rectangle" fill="#5CC9D5" transform="translate(26.419416, 52.746862) rotate(45.000000) translate(-26.419416, -52.746862) " points="7.77080773 34.0982543 45.1007637 34.0655143 45.0680237 71.3954703 7.73806771 71.4282103"></polygon>
            </g>
        </g>
        <g id="horizontal" transform="translate(284.431505, 362.271484)">
            <path d="M67.3184947,33.9355469 L72.6895885,33.9355469 L72.6895885,34.8500369 L68.2550912,34.8500369 L68.2550912,37.7511777 L72.6513601,37.7511777 L72.6513601,38.6593609 L68.2550912,38.6593609 L68.2550912,42.2984006 L72.6513601,42.2984006 L72.6513601,43.2128906 L67.3184947,43.2128906 L67.3184947,33.9355469 Z M80.2179176,33.9355469 L81.3150108,33.9355469 L83.5602248,37.5556661 L85.8245741,33.9355469 L86.9089104,33.9355469 L84.1151498,38.4323151 L87.0938854,43.2128906 L85.9967922,43.2128906 L83.5602248,39.3215778 L81.1109004,43.2128906 L80.0138072,43.2128906 L83.0052997,38.4323151 L80.2179176,33.9355469 Z M95.150526,33.9355469 L97.0186401,33.9355469 C98.0897826,33.9355469 98.8123678,33.9817965 99.1864176,34.0742971 C99.7219888,34.2046388 100.15979,34.4726764 100.499836,34.8784176 C100.839881,35.2841589 101.009901,35.7939557 101.009901,36.4078234 C101.009901,37.0258956 100.844131,37.5356924 100.512587,37.9372291 C100.181043,38.3387659 99.7241143,38.6089056 99.1417869,38.7476565 C98.7167303,38.8485663 97.9218865,38.8990204 96.7572316,38.8990204 L96.087771,38.8990204 L96.087771,43.2128906 L95.150526,43.2128906 L95.150526,33.9355469 Z M96.1270885,34.9121094 L96.1270885,38.0670081 L97.6958889,38.0859375 C98.3301327,38.0859375 98.7942577,38.0280983 99.088278,37.9124181 C99.3822983,37.7967379 99.6133108,37.6095491 99.7813224,37.3508461 C99.949334,37.0921431 100.033338,36.8029469 100.033338,36.4832489 C100.033338,36.171964 99.949334,35.8869744 99.7813224,35.6282714 C99.6133108,35.3695684 99.3917488,35.1855345 99.1166298,35.0761641 C98.8415108,34.9667937 98.3910365,34.9121094 97.7651933,34.9121094 L96.1270885,34.9121094 Z M109.310682,33.9355469 L114.681776,33.9355469 L114.681776,34.8500369 L110.247279,34.8500369 L110.247279,37.7511777 L114.643548,37.7511777 L114.643548,38.6593609 L110.247279,38.6593609 L110.247279,42.2984006 L114.643548,42.2984006 L114.643548,43.2128906 L109.310682,43.2128906 L109.310682,33.9355469 Z M122.738417,33.9355469 L124.562855,33.9355469 C125.579897,33.9355469 126.268984,33.977592 126.630138,34.0616834 C127.173943,34.1878206 127.616038,34.4579604 127.956436,34.8721108 C128.296834,35.2862612 128.46703,35.7960581 128.46703,36.4015166 C128.46703,36.9060653 128.34976,37.3496411 128.115218,37.7322572 C127.880676,38.1148734 127.545472,38.4039334 127.109598,38.5994461 C126.673723,38.7949587 126.071809,38.8948158 125.303839,38.8990204 L128.597792,43.2128906 L127.464522,43.2128906 L124.176797,38.8990204 L123.653749,38.8990204 L123.653749,43.2128906 L122.738417,43.2128906 L122.738417,33.9355469 Z M123.714979,34.9121094 L123.714979,38.0732928 L125.308981,38.0859375 C125.926424,38.0859375 126.383198,38.0269293 126.679319,37.9089112 C126.975439,37.7908931 127.206452,37.6022777 127.372363,37.3430594 C127.538275,37.0838411 127.621229,36.7940688 127.621229,36.473734 C127.621229,36.161829 127.537225,35.878379 127.369213,35.6233756 C127.201201,35.3683722 126.980689,35.1860792 126.707671,35.0764909 C126.434652,34.9669027 125.981027,34.9121094 125.346784,34.9121094 L123.714979,34.9121094 Z M136.898573,33.9355469 L137.875135,33.9355469 L137.875135,43.2128906 L136.898573,43.2128906 L136.898573,33.9355469 Z M146.420057,33.9355469 L151.791151,33.9355469 L151.791151,34.8500369 L147.356654,34.8500369 L147.356654,37.7511777 L151.752923,37.7511777 L151.752923,38.6593609 L147.356654,38.6593609 L147.356654,42.2984006 L151.752923,42.2984006 L151.752923,43.2128906 L146.420057,43.2128906 L146.420057,33.9355469 Z M159.847792,43.2128906 L159.847792,33.9355469 L160.050714,33.9355469 L166.25252,41.037035 L166.25252,33.9355469 L167.17201,33.9355469 L167.17201,43.2128906 L166.962747,43.2128906 L160.811671,36.1996981 L160.811671,43.2128906 L159.847792,43.2128906 Z M184.505995,35.650852 L183.777308,36.2134026 C183.375272,35.6866672 182.892626,35.2874078 182.329357,35.0156124 C181.766088,34.7438169 181.147338,34.6079212 180.47309,34.6079212 C179.736024,34.6079212 179.053411,34.7859551 178.425229,35.1420282 C177.797048,35.4981013 177.310215,35.9763699 176.964715,36.5768482 C176.619215,37.1773265 176.446468,37.8525911 176.446468,38.6026623 C176.446468,39.7361968 176.832794,40.6821994 177.605457,41.4406983 C178.37812,42.1991973 179.352833,42.578441 180.529626,42.578441 C181.82368,42.578441 182.90623,42.0685688 183.777308,41.0488092 L184.505995,41.6050389 C184.045328,42.1949826 183.470551,42.6511285 182.781645,42.9734906 C182.09274,43.2958526 181.323229,43.4570312 180.47309,43.4570312 C178.85657,43.4570312 177.581381,42.9155554 176.647485,41.8325875 C175.864352,40.9181749 175.472792,39.8141541 175.472792,38.520492 C175.472792,37.1594078 175.947061,36.0143023 176.895615,35.0851411 C177.844169,34.1559799 179.032461,33.6914062 180.460527,33.6914062 C181.323229,33.6914062 182.102163,33.8631194 182.79735,34.2065509 C183.492537,34.5499823 184.06208,35.0314112 184.505995,35.650852 Z M192.806776,33.9355469 L198.17787,33.9355469 L198.17787,34.8500369 L193.743372,34.8500369 L193.743372,37.7511777 L198.139641,37.7511777 L198.139641,38.6593609 L193.743372,38.6593609 L193.743372,42.2984006 L198.139641,42.2984006 L198.139641,43.2128906 L192.806776,43.2128906 L192.806776,33.9355469 Z" id="EXPERIENCE" fill-opacity="0.25" fill="#213E51" fill-rule="nonzero"></path>
            <path d="M80.409222,0 L92.4649791,25.6347656 L89.6882887,25.6347656 L85.628697,17.2002132 L85.5664762,17.2 L80.0673259,5.37109375 L74.3985729,17.3339844 L74.4224762,17.333 L70.4447697,25.6347656 L67.5626354,25.6347656 L79.7765584,0 L80.409222,0 Z M100.52162,0 L103.106155,0 L103.106155,23.1601655 L112.972792,23.1601655 L112.972792,25.6347656 L100.52162,25.6347656 L100.52162,0 Z M121.029432,0 L126.166746,0 C129.112388,0 131.099497,0.12779497 132.128134,0.383388745 C133.600955,0.743543609 134.80491,1.48417355 135.740034,2.60530079 C136.675158,3.72642803 137.142713,5.13507713 137.142713,6.83129036 C137.142713,8.53912149 136.686847,9.9477706 135.775101,11.0572799 C134.863355,12.1667893 133.6068,12.9132281 132.0054,13.2966187 C130.836494,13.5754483 128.650674,13.714861 125.447873,13.714861 L123.606856,13.714861 L123.606856,25.6347656 L121.029432,25.6347656 L121.029432,0 Z M123.714979,2.44140625 L123.714979,11.1780489 L128.02918,11.2304687 C129.773351,11.2304687 131.049694,11.0702986 131.85825,10.7499534 C132.666806,10.4296082 133.30209,9.91123929 133.764122,9.19483101 C134.226154,8.47842274 134.457167,7.67757183 134.457167,6.79225429 C134.457167,5.93023457 134.226154,5.14103241 133.764122,4.42462413 C133.30209,3.70821585 132.692795,3.19858346 131.936218,2.89571167 C131.179641,2.59283987 129.940836,2.44140625 128.219767,2.44140625 L123.714979,2.44140625 Z M146.175917,0 L148.771665,0 L148.771665,10.7523116 L161.890715,10.7523116 L161.890715,0 L164.486463,0 L164.486463,25.6347656 L161.890715,25.6347656 L161.890715,13.2617652 L148.771665,13.2617652 L148.771665,25.6347656 L146.175917,25.6347656 L146.175917,0 Z M185.14555,0 L197.201307,25.6347656 L194.424617,25.6347656 L190.428476,17.333 L190.60951,17.3339844 L185.047795,5.37109375 L179.441476,17.2 L179.223116,17.2002132 L175.181098,25.6347656 L172.298963,25.6347656 L184.512887,0 L185.14555,0 Z" id="ALPHA" fill="#213E51" fill-rule="nonzero"></path>
            <g id="icon" transform="translate(0.000000, 0.199185)">
                <polygon id="Rectangle" fill="#F37360" transform="translate(37.280743, 26.510986) rotate(45.000000) translate(-37.280743, -26.510986) " points="27.9413749 17.171618 46.0517717 17.7399568 46.6201105 35.8503535 28.5097137 35.2820147"></polygon>
                <polygon id="Rectangle" fill="#213E51" transform="translate(24.898114, 13.325996) rotate(45.000000) translate(-24.898114, -13.325996) " points="15.5587458 3.98662817 33.6691425 4.55496698 34.2374813 22.6653637 16.1270846 22.0970249"></polygon>
                <polygon id="Rectangle" fill="#5CC9D5" transform="translate(12.515484, 26.510986) rotate(45.000000) translate(-12.515484, -26.510986) " points="3.17611665 17.171618 21.2865134 17.7399568 21.8548522 35.8503535 3.74445546 35.2820147"></polygon>
            </g>
        </g>
        <g id="horizontal" transform="translate(29.431505, 362.271484)">
            <path d="M67.3184947,33.9355469 L72.6895885,33.9355469 L72.6895885,34.8500369 L68.2550912,34.8500369 L68.2550912,37.7511777 L72.6513601,37.7511777 L72.6513601,38.6593609 L68.2550912,38.6593609 L68.2550912,42.2984006 L72.6513601,42.2984006 L72.6513601,43.2128906 L67.3184947,43.2128906 L67.3184947,33.9355469 Z M80.2179176,33.9355469 L81.3150108,33.9355469 L83.5602248,37.5556661 L85.8245741,33.9355469 L86.9089104,33.9355469 L84.1151498,38.4323151 L87.0938854,43.2128906 L85.9967922,43.2128906 L83.5602248,39.3215778 L81.1109004,43.2128906 L80.0138072,43.2128906 L83.0052997,38.4323151 L80.2179176,33.9355469 Z M95.150526,33.9355469 L97.0186401,33.9355469 C98.0897826,33.9355469 98.8123678,33.9817965 99.1864176,34.0742971 C99.7219888,34.2046388 100.15979,34.4726764 100.499836,34.8784176 C100.839881,35.2841589 101.009901,35.7939557 101.009901,36.4078234 C101.009901,37.0258956 100.844131,37.5356924 100.512587,37.9372291 C100.181043,38.3387659 99.7241143,38.6089056 99.1417869,38.7476565 C98.7167303,38.8485663 97.9218865,38.8990204 96.7572316,38.8990204 L96.087771,38.8990204 L96.087771,43.2128906 L95.150526,43.2128906 L95.150526,33.9355469 Z M96.1270885,34.9121094 L96.1270885,38.0670081 L97.6958889,38.0859375 C98.3301327,38.0859375 98.7942577,38.0280983 99.088278,37.9124181 C99.3822983,37.7967379 99.6133108,37.6095491 99.7813224,37.3508461 C99.949334,37.0921431 100.033338,36.8029469 100.033338,36.4832489 C100.033338,36.171964 99.949334,35.8869744 99.7813224,35.6282714 C99.6133108,35.3695684 99.3917488,35.1855345 99.1166298,35.0761641 C98.8415108,34.9667937 98.3910365,34.9121094 97.7651933,34.9121094 L96.1270885,34.9121094 Z M109.310682,33.9355469 L114.681776,33.9355469 L114.681776,34.8500369 L110.247279,34.8500369 L110.247279,37.7511777 L114.643548,37.7511777 L114.643548,38.6593609 L110.247279,38.6593609 L110.247279,42.2984006 L114.643548,42.2984006 L114.643548,43.2128906 L109.310682,43.2128906 L109.310682,33.9355469 Z M122.738417,33.9355469 L124.562855,33.9355469 C125.579897,33.9355469 126.268984,33.977592 126.630138,34.0616834 C127.173943,34.1878206 127.616038,34.4579604 127.956436,34.8721108 C128.296834,35.2862612 128.46703,35.7960581 128.46703,36.4015166 C128.46703,36.9060653 128.34976,37.3496411 128.115218,37.7322572 C127.880676,38.1148734 127.545472,38.4039334 127.109598,38.5994461 C126.673723,38.7949587 126.071809,38.8948158 125.303839,38.8990204 L128.597792,43.2128906 L127.464522,43.2128906 L124.176797,38.8990204 L123.653749,38.8990204 L123.653749,43.2128906 L122.738417,43.2128906 L122.738417,33.9355469 Z M123.714979,34.9121094 L123.714979,38.0732928 L125.308981,38.0859375 C125.926424,38.0859375 126.383198,38.0269293 126.679319,37.9089112 C126.975439,37.7908931 127.206452,37.6022777 127.372363,37.3430594 C127.538275,37.0838411 127.621229,36.7940688 127.621229,36.473734 C127.621229,36.161829 127.537225,35.878379 127.369213,35.6233756 C127.201201,35.3683722 126.980689,35.1860792 126.707671,35.0764909 C126.434652,34.9669027 125.981027,34.9121094 125.346784,34.9121094 L123.714979,34.9121094 Z M136.898573,33.9355469 L137.875135,33.9355469 L137.875135,43.2128906 L136.898573,43.2128906 L136.898573,33.9355469 Z M146.420057,33.9355469 L151.791151,33.9355469 L151.791151,34.8500369 L147.356654,34.8500369 L147.356654,37.7511777 L151.752923,37.7511777 L151.752923,38.6593609 L147.356654,38.6593609 L147.356654,42.2984006 L151.752923,42.2984006 L151.752923,43.2128906 L146.420057,43.2128906 L146.420057,33.9355469 Z M159.847792,43.2128906 L159.847792,33.9355469 L160.050714,33.9355469 L166.25252,41.037035 L166.25252,33.9355469 L167.17201,33.9355469 L167.17201,43.2128906 L166.962747,43.2128906 L160.811671,36.1996981 L160.811671,43.2128906 L159.847792,43.2128906 Z M184.505995,35.650852 L183.777308,36.2134026 C183.375272,35.6866672 182.892626,35.2874078 182.329357,35.0156124 C181.766088,34.7438169 181.147338,34.6079212 180.47309,34.6079212 C179.736024,34.6079212 179.053411,34.7859551 178.425229,35.1420282 C177.797048,35.4981013 177.310215,35.9763699 176.964715,36.5768482 C176.619215,37.1773265 176.446468,37.8525911 176.446468,38.6026623 C176.446468,39.7361968 176.832794,40.6821994 177.605457,41.4406983 C178.37812,42.1991973 179.352833,42.578441 180.529626,42.578441 C181.82368,42.578441 182.90623,42.0685688 183.777308,41.0488092 L184.505995,41.6050389 C184.045328,42.1949826 183.470551,42.6511285 182.781645,42.9734906 C182.09274,43.2958526 181.323229,43.4570312 180.47309,43.4570312 C178.85657,43.4570312 177.581381,42.9155554 176.647485,41.8325875 C175.864352,40.9181749 175.472792,39.8141541 175.472792,38.520492 C175.472792,37.1594078 175.947061,36.0143023 176.895615,35.0851411 C177.844169,34.1559799 179.032461,33.6914062 180.460527,33.6914062 C181.323229,33.6914062 182.102163,33.8631194 182.79735,34.2065509 C183.492537,34.5499823 184.06208,35.0314112 184.505995,35.650852 Z M192.806776,33.9355469 L198.17787,33.9355469 L198.17787,34.8500369 L193.743372,34.8500369 L193.743372,37.7511777 L198.139641,37.7511777 L198.139641,38.6593609 L193.743372,38.6593609 L193.743372,42.2984006 L198.139641,42.2984006 L198.139641,43.2128906 L192.806776,43.2128906 L192.806776,33.9355469 Z" id="EXPERIENCE" fill="#455057" fill-rule="nonzero"></path>
            <path d="M80.409222,0 L92.4649791,25.6347656 L89.6882887,25.6347656 L85.628697,17.2002132 L85.5664762,17.2 L80.0673259,5.37109375 L74.3985729,17.3339844 L74.4224762,17.333 L70.4447697,25.6347656 L67.5626354,25.6347656 L79.7765584,0 L80.409222,0 Z M100.52162,0 L103.106155,0 L103.106155,23.1601655 L112.972792,23.1601655 L112.972792,25.6347656 L100.52162,25.6347656 L100.52162,0 Z M121.029432,0 L126.166746,0 C129.112388,0 131.099497,0.12779497 132.128134,0.383388745 C133.600955,0.743543609 134.80491,1.48417355 135.740034,2.60530079 C136.675158,3.72642803 137.142713,5.13507713 137.142713,6.83129036 C137.142713,8.53912149 136.686847,9.9477706 135.775101,11.0572799 C134.863355,12.1667893 133.6068,12.9132281 132.0054,13.2966187 C130.836494,13.5754483 128.650674,13.714861 125.447873,13.714861 L123.606856,13.714861 L123.606856,25.6347656 L121.029432,25.6347656 L121.029432,0 Z M123.714979,2.44140625 L123.714979,11.1780489 L128.02918,11.2304687 C129.773351,11.2304687 131.049694,11.0702986 131.85825,10.7499534 C132.666806,10.4296082 133.30209,9.91123929 133.764122,9.19483101 C134.226154,8.47842274 134.457167,7.67757183 134.457167,6.79225429 C134.457167,5.93023457 134.226154,5.14103241 133.764122,4.42462413 C133.30209,3.70821585 132.692795,3.19858346 131.936218,2.89571167 C131.179641,2.59283987 129.940836,2.44140625 128.219767,2.44140625 L123.714979,2.44140625 Z M146.175917,0 L148.771665,0 L148.771665,10.7523116 L161.890715,10.7523116 L161.890715,0 L164.486463,0 L164.486463,25.6347656 L161.890715,25.6347656 L161.890715,13.2617652 L148.771665,13.2617652 L148.771665,25.6347656 L146.175917,25.6347656 L146.175917,0 Z M185.14555,0 L197.201307,25.6347656 L194.424617,25.6347656 L190.428476,17.333 L190.60951,17.3339844 L185.047795,5.37109375 L179.441476,17.2 L179.223116,17.2002132 L175.181098,25.6347656 L172.298963,25.6347656 L184.512887,0 L185.14555,0 Z" id="ALPHA" fill="#F6FAFB" fill-rule="nonzero"></path>
            <g id="icon" transform="translate(0.000000, 0.199185)">
                <polygon id="Rectangle" fill="#F37360" transform="translate(37.280743, 26.510986) rotate(45.000000) translate(-37.280743, -26.510986) " points="27.9413749 17.171618 46.0517717 17.7399568 46.6201105 35.8503535 28.5097137 35.2820147"></polygon>
                <polygon id="Rectangle" fill="#F6FAFB" transform="translate(24.898114, 13.325996) rotate(45.000000) translate(-24.898114, -13.325996) " points="15.5587458 3.98662817 33.6691425 4.55496698 34.2374813 22.6653637 16.1270846 22.0970249"></polygon>
                <polygon id="Rectangle" fill="#5CC9D5" transform="translate(12.515484, 26.510986) rotate(45.000000) translate(-12.515484, -26.510986) " points="3.17611665 17.171618 21.2865134 17.7399568 21.8548522 35.8503535 3.74445546 35.2820147"></polygon>
            </g>
        </g>
    </g>
</svg>