<?xml version="1.0" encoding="UTF-8"?>
<svg width="512px" height="512px" viewBox="0 0 512 512" version="1.1" xmlns="http://www.w3.org/2000/svg" xmlns:xlink="http://www.w3.org/1999/xlink">
    <title>icon</title>
    <g id="Logos" stroke="none" stroke-width="1" fill="none" fill-rule="evenodd">
        <g id="alphaxp" transform="translate(131.000000, 149.000000)">
            <path d="M0,196.109806 L10.1821432,196.109806 L10.1821432,197.861183 L1.77553387,197.861183 L1.77553387,203.417276 L10.1096724,203.417276 L10.1096724,205.156574 L1.77553387,205.156574 L1.77553387,212.125846 L10.1096724,212.125846 L10.1096724,213.877223 L0,213.877223 L0,196.109806 Z M24.6762972,196.109806 L26.7537926,196.109806 L31.0054112,203.042843 L35.293265,196.109806 L37.3466035,196.109806 L32.0562373,204.721749 L37.6968789,213.877223 L35.6193835,213.877223 L31.0054112,206.424813 L26.3672819,213.877223 L24.2897865,213.877223 L29.954585,204.721749 L24.6762972,196.109806 Z M53.0365253,196.109806 L56.5755145,196.109806 C58.6047063,196.109806 59.9735849,196.198381 60.6821915,196.375532 C61.6967874,196.625155 62.5261668,197.138485 63.1703546,197.915536 C63.8145425,198.692588 64.1366316,199.66892 64.1366316,200.844563 C64.1366316,202.028258 63.8225947,203.004591 63.1945115,203.77359 C62.5664284,204.542589 61.700814,205.059945 60.5976423,205.325672 C59.7924075,205.518929 58.286641,205.615556 56.0802976,205.615556 L54.8120591,205.615556 L54.8120591,213.877223 L53.0365253,213.877223 L53.0365253,196.109806 Z M54.8120591,197.837026 L54.8120591,203.876257 L57.8195961,203.912492 C59.0355007,203.912492 59.9252718,203.801774 60.4889361,203.580335 C61.0526005,203.358895 61.495473,203.000571 61.8175669,202.505352 C62.1396608,202.010132 62.3007054,201.456542 62.3007054,200.844563 C62.3007054,200.248689 62.1396608,199.703151 61.8175669,199.207932 C61.495473,198.712712 61.070718,198.360427 60.5432892,198.151066 C60.0158604,197.941705 59.152259,197.837026 57.9524592,197.837026 L54.8120591,197.837026 Z M80.0681225,196.109806 L90.2502657,196.109806 L90.2502657,197.861183 L81.8436564,197.861183 L81.8436564,203.417276 L90.177795,203.417276 L90.177795,205.156574 L81.8436564,205.156574 L81.8436564,212.125846 L90.177795,212.125846 L90.177795,213.877223 L80.0681225,213.877223 L80.0681225,196.109806 Z M105.783167,196.109806 L109.322157,196.109806 C111.294982,196.109806 112.631652,196.190328 113.332206,196.351375 C114.387064,196.592946 115.244626,197.110302 115.904918,197.903458 C116.565211,198.696614 116.895352,199.672947 116.895352,200.832485 C116.895352,201.798767 116.667877,202.648276 116.212919,203.38104 C115.757961,204.113804 115.107744,204.667394 114.262248,205.041829 C113.416751,205.416263 112.249178,205.607503 110.759494,205.615556 L117.149,213.877223 L114.95072,213.877223 L108.573292,205.615556 L107.558701,205.615556 L107.558701,213.877223 L105.783167,213.877223 L105.783167,196.109806 Z M107.558701,197.849105 L107.558701,203.888336 L110.614552,203.912492 C111.798247,203.912492 112.673927,203.799761 113.241618,203.574296 C113.809308,203.34883 114.252181,202.988493 114.570248,202.493273 C114.888316,201.998054 115.047348,201.444463 115.047348,200.832485 C115.047348,200.236611 114.886303,199.695099 114.564209,199.207932 C114.242115,198.720765 113.819373,198.372506 113.295971,198.163145 C112.772568,197.953784 111.902927,197.849105 110.687023,197.849105 L107.558701,197.849105 Z M132.814765,196.109806 L134.590299,196.109806 L134.590299,213.877223 L132.814765,213.877223 L132.814765,196.109806 Z M151.041163,196.109806 L161.223307,196.109806 L161.223307,197.861183 L152.816697,197.861183 L152.816697,203.417276 L161.150836,203.417276 L161.150836,205.156574 L152.816697,205.156574 L152.816697,212.125846 L161.150836,212.125846 L161.150836,213.877223 L151.041163,213.877223 L151.041163,196.109806 Z M176.671659,213.877223 L176.671659,196.109806 L177.05817,196.109806 L188.870905,209.710154 L188.870905,196.109806 L190.622282,196.109806 L190.622282,213.877223 L190.223693,213.877223 L178.507585,200.445974 L178.507585,213.877223 L176.671659,213.877223 Z M223.874287,199.407226 L222.473186,200.482209 C221.70016,199.475666 220.772141,198.712717 219.6891,198.193341 C218.60606,197.673964 217.416343,197.41428 216.119915,197.41428 C214.702702,197.41428 213.390189,197.754487 212.182336,198.43491 C210.974484,199.115334 210.038413,200.029261 209.374094,201.176721 C208.709775,202.32418 208.377621,203.61455 208.377621,205.047868 C208.377621,207.213949 209.120439,209.021675 210.606097,210.471097 C212.091755,211.92052 213.965911,212.64522 216.228621,212.64522 C218.716797,212.64522 220.798297,211.670901 222.473186,209.722233 L223.874287,210.785137 C222.988529,211.912466 221.883361,212.78412 220.55875,213.400124 C219.234138,214.016129 217.754542,214.324126 216.119915,214.324126 C213.011709,214.324126 210.559805,213.289415 208.764132,211.219962 C207.258343,209.472602 206.505459,207.362919 206.505459,204.890848 C206.505459,202.289939 207.417374,200.101747 209.241231,198.326204 C211.065088,196.550661 213.349907,195.662903 216.095758,195.662903 C217.754542,195.662903 219.252256,195.991031 220.588946,196.647298 C221.925636,197.303564 223.020738,198.223531 223.874287,199.407226 Z M239.817857,196.109806 L250,196.109806 L250,197.861183 L241.593391,197.861183 L241.593391,203.417276 L249.927529,203.417276 L249.927529,205.156574 L241.593391,205.156574 L241.593391,212.125846 L249.927529,212.125846 L249.927529,213.877223 L239.817857,213.877223 L239.817857,196.109806 Z" id="EXPERIENCE" fill-opacity="0.25" fill="#213E51" fill-rule="nonzero"></path>
            <path d="M25.2280971,131.294737 L48.1734579,180.496815 L42.8886663,180.496815 L35.1621673,164.30796 L35.0705742,164.307737 L24.57419,141.679241 L13.7780871,164.513108 L13.8585742,164.512737 L6.26305403,180.496815 L0.777574199,180.496815 L24.0239674,131.294737 L25.2280971,131.294737 Z M63.4109018,131.294737 L68.3612129,131.294737 L68.3612129,175.747192 L87.2593599,175.747192 L87.2593599,180.496815 L63.4109018,180.496815 L63.4109018,131.294737 Z M102.630596,131.294737 L112.430874,131.294737 C118.050174,131.294737 121.840915,131.54002 123.80321,132.030594 C126.61286,132.721857 128.909603,134.143385 130.693508,136.29522 C132.477413,138.447055 133.369352,141.150745 133.369352,144.406371 C133.369352,147.684297 132.499711,150.387987 130.760404,152.517523 C129.021097,154.647059 126.624011,156.079736 123.569074,156.815597 C121.339193,157.350769 117.169378,157.61835 111.059504,157.61835 L107.547459,157.61835 L107.547459,180.496815 L102.630596,180.496815 L102.630596,131.294737 Z M107.547459,136.077808 L107.547459,152.801831 L115.876023,152.902176 C119.243143,152.902176 121.707125,152.595572 123.268042,151.982354 C124.828958,151.369137 126.055374,150.376855 126.947327,149.005478 C127.839279,147.634101 128.285249,146.101081 128.285249,144.406371 C128.285249,142.75626 127.839279,141.245538 126.947327,139.874161 C126.055374,138.502784 124.87913,137.527226 123.418558,136.947457 C121.957986,136.367688 119.566474,136.077808 116.243951,136.077808 L107.547459,136.077808 Z M150.747471,131.294737 L155.697782,131.294737 L155.697782,151.932182 L180.716922,151.932182 L180.716922,131.294737 L185.667233,131.294737 L185.667233,180.496815 L180.716922,180.496815 L180.716922,156.748701 L155.697782,156.748701 L155.697782,180.496815 L150.747471,180.496815 L150.747471,131.294737 Z M225.321752,131.294737 L248.267112,180.496815 L242.982321,180.496815 L235.255822,164.30796 L235.245574,164.307737 L224.772834,141.730528 L214.097574,164.307737 L214.04976,164.30796 L206.356709,180.496815 L200.871229,180.496815 L224.117622,131.294737 L225.321752,131.294737 Z" id="ALPHA" fill="#213E51" fill-rule="nonzero"></path>
            <g id="icon" transform="translate(48.728695, 0.000000)">
                <polygon id="Rectangle" fill="#F37360" transform="translate(113.396437, 75.471666) rotate(45.000000) translate(-113.396437, -75.471666) " points="86.8090577 48.8842861 140.075183 48.7929206 139.983817 102.059046 86.7176921 102.150411"></polygon>
                <polygon id="Rectangle" fill="#213E51" transform="translate(75.732326, 37.936542) rotate(45.000000) translate(-75.732326, -37.936542) " points="49.1449467 11.3491619 102.411072 11.2577963 102.319706 64.5239213 49.0535812 64.6152868"></polygon>
                <polygon id="Rectangle" fill="#5CC9D5" transform="translate(38.068215, 75.471666) rotate(45.000000) translate(-38.068215, -75.471666) " points="11.4808358 48.8842861 64.7469607 48.7929206 64.6555952 102.059046 11.3894702 102.150411"></polygon>
            </g>
        </g>
    </g>
</svg>