<?xml version="1.0" encoding="UTF-8"?>
<svg width="512px" height="512px" viewBox="0 0 512 512" version="1.1" xmlns="http://www.w3.org/2000/svg" xmlns:xlink="http://www.w3.org/1999/xlink">
    <title>icon</title>
    <g id="Icons" stroke="none" stroke-width="1" fill="none" fill-rule="evenodd">
        <g id="bleep" transform="translate(156.012987, 158.424716)" fill-rule="nonzero">
            <path d="M90.7201251,88.6475985 L102.816743,174.456371 L80.1108849,177.637716 L71.1485224,114.062153 L71.1485261,114.06215 C71.0617355,114.126913 70.9746721,114.191405 70.8873378,114.255626 L70.8873378,114.255627 L65.0304139,77.3895174 C64.9571471,76.6616422 64.842049,75.9331732 64.6836422,75.206782 L64.3344222,73.0086335 L64.081159,73.0486238 C60.4383223,62.3938125 48.2866995,56.7851788 36.7901275,60.5092216 C25.1974694,64.2643889 18.6607612,76.0868797 22.1899808,86.9154941 C25.3642403,96.6549933 35.6003099,102.27328 46.0620259,100.572653 L46.0620206,100.572654 C46.6832041,100.391086 47.3082023,100.264581 47.9316108,100.190386 C48.1949368,100.125376 48.4581477,100.055609 48.7211352,99.9810374 L48.7211352,100.124121 C53.765143,99.8768427 58.553571,103.002902 60.1915628,108.02871 C62.1514891,114.042301 58.8587097,120.498563 52.8369345,122.449175 C51.4687746,122.892358 50.0774536,123.064826 48.7211352,122.996185 L48.7211352,123.097918 L48.7211352,123.097918 C28.0805537,125.749963 8.19915226,114.448658 1.92731148,95.2049291 C-5.22186203,73.2693027 8.01960954,49.3203708 31.502966,41.713493 C54.9863225,34.1066149 79.8188945,45.7223606 86.968068,67.6579871 C87.2351679,68.477523 87.4738058,69.2998693 87.6845108,70.1240687 L78.5638142,77.9940629 C76.4665025,79.8037747 76.8056574,82.2152954 79.3229341,83.378968 L90.7201251,88.6475985 Z" id="b-4" fill="#445260"></path>
            <path d="M111.074815,69.0438004 C111.281639,68.2265434 111.516206,67.411269 111.779042,66.5989162 C118.870487,44.6812116 143.854763,33.1898846 167.582984,40.9323196 C191.311204,48.6747542 204.797975,72.7190482 197.70653,94.6367529 C191.52859,113.731062 171.770743,124.912188 151.094051,122.356772 L151.094051,122.356772 C149.776418,122.397961 148.42701,122.214744 147.097853,121.781045 C141.014691,119.796131 137.659272,113.316188 139.603314,107.307689 C141.210788,102.339432 145.938259,99.2491655 150.966087,99.4502177 L150.998429,99.2831269 C151.379338,99.3842767 151.760528,99.4756136 152.141671,99.557284 C152.500029,99.6083594 152.858796,99.6765109 153.216969,99.762241 C163.782488,101.527442 174.082734,95.9591462 177.232476,86.2241609 C180.733198,75.4043936 174.075396,63.5348268 162.36186,59.7127412 C150.648324,55.8906556 138.314731,61.5633975 134.814009,72.3831648 C134.585281,73.0901015 134.399919,73.8015196 134.256501,74.514882 L134.072058,74.4855322 L127.977822,113.126064 L127.977823,113.126063 C127.910084,113.075709 127.842508,113.025195 127.775095,112.974522 L127.775099,112.974525 L118.846554,176.773615 L95.9039391,173.535578 L107.761685,88.8058229 L120.017149,83.6128525 C122.553756,82.5380239 122.975527,80.1404619 120.957271,78.258566 L111.074815,69.0438001 L111.074815,69.0438004 Z" id="b-7" fill="#00A9D9"></path>
            <path d="M98.9282912,35.9252257 C109.188726,35.9252257 117.506453,27.800935 117.506453,17.7791143 C117.506453,7.75729357 109.188726,-0.366997313 98.9282912,-0.366997313 C88.6678556,-0.366997313 80.3501292,7.75729357 80.3501292,17.7791143 C80.3501292,27.800935 88.6678556,35.9252257 98.9282912,35.9252257 Z" id="Path-13" fill="#00A9D9"></path>
            <path d="M98.928291,195.783827 C109.188726,195.783827 117.506453,187.659537 117.506453,177.637716 C117.506453,167.615895 109.188726,159.491604 98.928291,159.491604 C88.6678555,159.491604 80.3501292,167.615895 80.3501292,177.637716 C80.3501292,187.659537 88.6678555,195.783827 98.928291,195.783827 Z" id="Path-10" fill="#00A9D9"></path>
            <polygon id="Rectangle-25" fill="#00A9D9" points="78.6219281 169.860811 120.098754 169.860811 117.970155 181.094118 80.5445073 181.094118"></polygon>
            <path d="M82.3776679,181.922238 C94.3889632,182.539084 98.7981153,162.799172 99.3242729,152.96107 C99.8504307,143.122969 94.6095967,146.825646 84.2830531,146.295321 C73.9565098,145.764996 75.4204158,121.096339 77.5864665,150.716174 C78.993238,184.285015 82.3776672,181.92224 82.3776679,181.922238 Z" id="Path" fill="#445260"></path>
        </g>
    </g>
</svg>