<?xml version="1.0" encoding="UTF-8"?>
<svg width="512px" height="512px" viewBox="0 0 512 512" version="1.1" xmlns="http://www.w3.org/2000/svg" xmlns:xlink="http://www.w3.org/1999/xlink">
    <title>icon</title>
    <g id="Icons" stroke="none" stroke-width="1" fill="none" fill-rule="evenodd">
        <path d="M312.844078,188 L311.426916,188.018897 C292.127761,187.932199 273.904382,196.945874 262.19649,212.369323 C259.168639,216.338208 256.429374,220.521384 254,224.886319 C251.570769,220.521558 248.831497,216.338645 245.80351,212.370144 C234.095614,196.946155 215.871851,187.932137 196.572267,188.018897 L195.155922,188 C159.1713,188 130,217.325349 130,253.5 C130,289.674651 159.1713,319 195.155922,319 L196.572267,318.981103 C215.871422,319.067801 234.094801,310.054126 245.802693,294.630677 C248.831934,290.662612 251.571526,286.479352 254,282.113681 C256.428686,286.478961 259.168269,290.661933 262.197307,294.629856 C273.905199,310.053304 292.128578,319.066979 311.427733,318.980282 L312.844078,319 C348.8287,319 378,289.674651 378,253.5 C378,217.325349 348.8287,188 312.844078,188 Z M237.279433,253.807133 C233.261138,261.844099 228.713262,269.591266 223.667383,276.994843 C221.270045,280.17214 218.408038,282.950832 215.182633,285.232593 C214.371158,285.503175 213.586321,285.851372 212.838493,286.272583 C197.252112,295.013193 177.804636,291.185507 166.487701,277.14974 C155.170766,263.113974 155.170766,242.822033 166.487701,228.786267 C177.804636,214.7505 197.252112,210.922814 212.838493,219.663423 C213.586456,220.083764 214.370943,220.431926 215.181823,220.703413 C218.407225,222.985834 221.269217,225.765071 223.666573,228.942823 C228.716013,236.349966 233.26662,244.101335 237.286723,252.142983 L237.715213,252.968003 L237.279433,253.807133 Z M312.6789,290.940458 C306.455427,290.943396 300.331443,289.340344 294.87186,286.279178 C294.123474,285.859134 293.338745,285.510985 292.52772,285.239188 C289.301601,282.958328 286.439466,280.179514 284.04297,277.001438 C278.996611,269.600136 274.450008,261.853942 270.43497,253.817048 L270,252.974598 L270.43497,252.134638 C274.450662,244.098116 278.997238,236.351967 284.04297,228.950248 C286.439608,225.772594 289.301407,222.993839 292.52691,220.712498 C293.339666,220.440476 294.126037,220.091765 294.87591,219.670848 C308.449082,212.05067 325.214459,213.877213 336.920524,224.251497 C348.626588,234.625781 352.80735,251.362366 347.405138,266.223907 C342.002927,281.085448 328.155767,290.941224 312.6789,290.940458 L312.6789,290.940458 Z" id="cashfloo" fill="#1CAF5E" fill-rule="nonzero"></path>
    </g>
</svg>