<?xml version="1.0" encoding="UTF-8"?>
<svg width="512px" height="512px" viewBox="0 0 512 512" version="1.1" xmlns="http://www.w3.org/2000/svg" xmlns:xlink="http://www.w3.org/1999/xlink">
    <title>icon</title>
    <g id="Logos" stroke="none" stroke-width="1" fill="none" fill-rule="evenodd">
        <g id="foldabox" transform="translate(106.000000, 216.000000)" fill="#574487" fill-rule="nonzero">
            <path d="M33.5515318,2.7000443 C33.1485585,2.7000443 32.3389149,3.18435166 32.3056419,3.20468517 L32.3056419,3.20283667 L4.2047244,20.0642498 L4.20534057,20.0642498 C4.20534057,20.0642498 4.19733039,20.068563 4.19486573,20.0697953 L3.84549897,20.2792921 C3.70378053,20.3754142 3.57315311,20.4826273 3.57315311,20.5547188 C3.57315311,20.6157194 3.66496201,20.6995181 3.77833676,20.7808522 L4.1597442,21.012531 C4.18623939,21.0267028 4.2065729,21.0371777 4.2102699,21.0396423 L4.20410823,21.0396423 L32.3912891,38.1777145 C32.5964728,38.2935539 33.2403674,38.6392237 33.5835725,38.6392237 C33.8750195,38.6392237 34.3771957,38.3865952 34.6458446,38.2387151 L63.4510411,20.8701964 C63.5742745,20.7833168 63.6771744,20.6915079 63.6771744,20.6274265 C63.6771744,20.5528703 63.5379207,20.4425764 63.3900406,20.3458382 L63.1478869,20.2010389 C63.0887348,20.1677659 63.0462193,20.1462 63.0394415,20.1431192 L63.0511486,20.1431192 L34.8128259,3.19913967 L34.8128259,3.200372 C34.7998864,3.192978 33.9594344,2.7000443 33.5515318,2.7000443 Z M2.41599126,58.5408054 C2.514578,58.7268878 2.83929807,58.9647283 3.03030988,59.0941234 L32.5206842,76.7892107 L32.5206842,41.5992905 C32.5102094,41.4051979 32.4843304,41.1975495 32.4214813,41.0792455 C32.3315209,40.9085672 32.0493164,40.694141 31.8558399,40.5598166 L3.05557273,23.0483471 L3.0617344,23.0594382 C3.04201705,23.0464986 2.5614067,22.7279402 2.44248645,22.7926378 C2.32110153,22.8573353 2.31740452,23.4463911 2.31740452,23.4556336 L2.31309135,23.4482396 L2.31309135,57.5598673 L2.31555602,57.558635 C2.31555602,57.5629481 2.31432369,57.5851302 2.31309135,57.6153224 L2.31309135,57.9572951 C2.32110153,58.1680243 2.34636438,58.4095618 2.41599126,58.5408054 Z M64.8109219,57.5900595 C64.8103058,57.5721907 64.8096896,57.558635 64.8096896,57.5555541 L64.8109219,57.5561703 L64.8109219,23.4778156 C64.8035279,23.3003595 64.7776489,22.9818011 64.6901532,22.9343562 C64.5706168,22.8702748 64.0906226,23.1882171 64.0709052,23.2011566 L64.0733699,23.1962272 L35.653894,40.3318347 C35.5134079,40.4224113 35.0586766,40.7255655 34.9397563,40.9510827 C34.8011187,41.2123376 34.8374726,41.9049094 34.8387049,41.9332531 L34.8335123,41.9301722 L34.8335123,75.8144343 L34.8350079,75.8113535 C34.8350079,75.8199798 34.8393211,76.4090356 34.9600898,76.4743493 C35.0167772,76.5045415 35.1547986,76.4484703 35.2866584,76.3800757 L64.0604304,59.1138408 C64.2446644,58.9918397 64.6051221,58.7342818 64.7092544,58.5383407 C64.7770327,58.4095618 64.8029118,58.1772668 64.8109219,57.9702346 L64.8109219,57.5900595 Z M66.9447087,19.9761379 C67.0617804,20.1807054 67.1067606,20.5910727 67.1246295,20.9053179 L67.1246295,58.93392 C67.1061444,59.2524784 67.0562349,59.7213816 66.9225266,59.9419694 C66.8436572,60.073213 66.6723628,60.2204769 66.4899773,60.3541852 L34.4727016,79.5662759 C34.1929618,79.7092266 33.8158675,79.8774403 33.5786432,79.8774403 C33.3044488,79.8774403 32.8386264,79.6562363 32.5558057,79.50774 L0.754804717,60.4262767 C0.533600722,60.2740835 0.308083558,60.095395 0.213193822,59.9382724 C0,59.586441 0,58.6042706 0,58.6042706 L0,21.189371 C0.00431316981,20.9127119 0.0314245229,20.2515646 0.191011806,19.9724409 C0.329649407,19.7302872 0.765895725,19.4357593 1.03392842,19.2693942 L1.23233423,19.1498578 C1.24096057,19.1449285 1.25390008,19.1381506 1.25390008,19.1381506 L1.25328391,19.1375345 L32.4184005,0.437478652 C32.6648673,0.298841051 33.2317411,0 33.548451,0 C33.9594344,0 34.8122097,0.5021762 34.8122097,0.5021762 L34.8122097,0.500943865 L66.1954494,19.3316271 C66.462866,19.5035377 66.8214752,19.7604794 66.9447087,19.9761379 Z M85.4771054,59.5670317 L79.9476217,59.5670317 L79.9476217,20.024507 L104.633741,20.024507 L104.633741,24.8829847 L85.4771054,24.8829847 L85.4771054,37.1705894 L103.405104,37.1705894 L103.405104,41.918157 L85.4771054,41.918157 L85.4771054,59.5670317 Z M127.812408,46.3020012 C127.812408,45.0400909 127.61585,43.8330195 127.223968,42.6826355 C126.831469,41.5322515 126.262747,40.5211213 125.515337,39.6480125 C124.768542,38.7755198 123.843059,38.0798672 122.741968,37.5598221 C121.639645,37.0391609 120.378967,36.7797546 118.959935,36.7797546 C117.540286,36.7797546 116.278991,37.0391609 115.177901,37.5598221 C114.075578,38.0798672 113.151943,38.7755198 112.403916,39.6480125 C111.657122,40.5211213 111.087167,41.5322515 110.695285,42.6826355 C110.302787,43.8330195 110.107462,45.0400909 110.107462,46.3020012 C110.107462,47.5651438 110.302787,48.7722151 110.695285,49.921983 C111.087167,51.0729831 111.657122,52.0939721 112.403916,52.9855659 C113.151943,53.8765435 114.075578,54.5820549 115.177901,55.1008676 C116.278991,55.6215288 117.540286,55.8809352 118.959935,55.8809352 C120.378967,55.8809352 121.639645,55.6215288 122.741968,55.1008676 C123.843059,54.5820549 124.768542,53.8765435 125.515337,52.9855659 C126.262747,52.0939721 126.831469,51.0729831 127.223968,49.921983 C127.61585,48.7722151 127.812408,47.5651438 127.812408,46.3020012 Z M133.28582,46.2742736 C133.28582,48.321797 132.922281,50.2029552 132.197053,51.9152836 C131.470592,53.6282282 130.465007,55.1082616 129.180299,56.3553838 C127.89559,57.6037384 126.378587,58.5711208 124.628672,59.2593794 C122.878141,59.9482543 120.998215,60.2933079 118.987662,60.2933079 C116.977109,60.2933079 115.095951,59.9482543 113.346652,59.2593794 C111.596121,58.5711208 110.08836,57.6037384 108.822753,56.3553838 C107.55653,55.1082616 106.560804,53.6282282 105.834959,51.9152836 C105.108498,50.2029552 104.745575,48.321797 104.745575,46.2742736 C104.745575,44.2273665 105.108498,42.3566831 105.834959,40.6616074 C106.560804,38.9671478 107.55653,37.5062156 108.822753,36.2769622 C110.08836,35.048325 111.596121,34.0901851 113.346652,33.4006941 C115.095951,32.7118193 116.977109,32.3673818 118.987662,32.3673818 C120.998215,32.3673818 122.878141,32.7118193 124.628672,33.4006941 C126.378587,34.0901851 127.89559,35.048325 129.180299,36.2769622 C130.465007,37.5062156 131.470592,38.9671478 132.197053,40.6616074 C132.922281,42.3566831 133.28582,44.2273665 133.28582,46.2742736 Z M138.423421,59.5668468 L138.423421,17.3427629 L143.673165,17.3427629 L143.673165,59.5668468 L138.423421,59.5668468 Z M154.285042,46.3020012 C154.285042,47.5275576 154.471124,48.7161439 154.843289,49.8659118 C155.215454,51.0175281 155.773702,52.038517 156.519264,52.9294947 C157.263594,53.8204723 158.174905,54.5352262 159.255662,55.0731401 C160.335187,55.6116701 161.60141,55.8809352 163.053716,55.8809352 C164.393879,55.8809352 165.613274,55.6215288 166.7119,55.1008676 C167.80991,54.5820549 168.750797,53.8864022 169.532713,53.0132934 C170.314629,52.1408008 170.919089,51.1290544 171.347942,49.9780542 C171.774945,48.8282863 171.989988,47.621215 171.989988,46.3580724 C171.989988,45.0961621 171.774945,43.8890907 171.347942,42.7387067 C170.919089,41.5883227 170.314629,40.5673338 169.532713,39.6763562 C168.750797,38.7847624 167.80991,38.0798672 166.7119,37.5598221 C165.613274,37.0391609 164.393879,36.7797546 163.053716,36.7797546 C161.60141,36.7797546 160.335187,37.0391609 159.255662,37.5598221 C158.174905,38.0798672 157.263594,38.7847624 156.519264,39.6763562 C155.773702,40.5673338 155.215454,41.5883227 154.843289,42.7387067 C154.471124,43.8890907 154.285042,45.0770609 154.285042,46.3020012 Z M171.710864,55.3775266 C170.705279,56.9795611 169.337388,58.1989558 167.605342,59.036327 C165.874529,59.8743142 164.058685,60.2933079 162.159658,60.2933079 C160.112134,60.2933079 158.268562,59.9297693 156.63079,59.2039244 C154.991785,58.4780795 153.595551,57.4823535 152.442086,56.2161301 C151.287389,54.9505228 150.393946,53.4606307 149.761143,51.7476861 C149.127107,50.0353577 148.811629,48.2108869 148.811629,46.2742736 C148.811629,44.3388927 149.127107,42.5236644 149.761143,40.8292048 C150.393946,39.1347453 151.296631,37.655328 152.469813,36.3884884 C153.642379,35.1228812 155.047241,34.1363976 156.686245,33.4284216 C158.324633,32.7216779 160.130003,32.3673818 162.104202,32.3673818 C164.263252,32.3673818 166.143794,32.8239617 167.745829,33.7352728 C169.346015,34.6484325 170.612238,35.756301 171.543267,37.0588783 L171.654793,37.0588783 L171.654793,17.3427629 L176.904537,17.3427629 L176.904537,59.5668468 L171.82239,59.5668468 L171.82239,55.3775266 L171.710864,55.3775266 Z M199.022163,46.9440473 C197.717738,46.9440473 196.368948,47.0001185 194.972713,47.1116448 C193.576478,47.2237872 192.309639,47.4468397 191.174659,47.7820346 C190.038447,48.1172295 189.098792,48.6200219 188.354462,49.2904117 C187.6089,49.9608015 187.237351,50.8542438 187.237351,51.9707386 C187.237351,52.7532709 187.39509,53.4045595 187.712416,53.9258369 C188.027893,54.4477304 188.446887,54.8753504 188.968781,55.2105453 C189.489442,55.5457402 190.06679,55.7786514 190.699594,55.9086627 C191.333014,56.0399063 191.984303,56.1039876 192.654692,56.1039876 C195.111967,56.1039876 197.001751,55.3695164 198.324046,53.8981094 C199.644492,52.4273185 200.306256,50.5751201 200.306256,48.3408982 L200.306256,46.9440473 L199.022163,46.9440473 Z M200.306256,42.4207645 C200.306256,40.4477974 199.709806,38.9850167 198.518755,38.0367355 C197.326471,37.0872219 195.745387,36.6121571 193.771803,36.6121571 C192.282527,36.6121571 190.876434,36.9011395 189.555372,37.4772557 C188.232461,38.0552205 187.125209,38.7903079 186.231766,39.6837502 L183.439297,36.3324172 C184.741874,35.10378 186.33405,34.1363976 188.214592,33.4284216 C190.094518,32.7216779 192.114314,32.3673818 194.274596,32.3673818 C196.173623,32.3673818 197.821254,32.6378792 199.217488,33.1770254 C200.613107,33.717404 201.757945,34.4531075 202.652004,35.3835199 C203.545446,36.3145484 204.215836,37.4131744 204.662557,38.6781654 C205.109278,39.9443889 205.332947,41.3042697 205.332947,42.7559594 L205.332947,54.317103 C205.332947,55.2105453 205.360674,56.1508163 205.416746,57.1372999 C205.472817,58.1250158 205.574484,58.9340432 205.723597,59.5668468 L200.976645,59.5668468 C200.678421,58.3018558 200.529308,57.0356323 200.529308,55.7687927 L200.362327,55.7687927 C199.393712,57.1847448 198.174934,58.2821384 196.704143,59.0646706 C195.233352,59.8459705 193.49268,60.2372367 191.482126,60.2372367 C190.438955,60.2372367 189.350188,60.0979829 188.214592,59.8188592 C187.07838,59.5391193 186.044452,59.0831557 185.114655,58.450352 C184.183627,57.8169322 183.410953,56.9795611 182.796635,55.9370064 C182.182316,54.8944516 181.875465,53.6097432 181.875465,52.082881 C181.875465,50.0717116 182.414611,48.4801519 183.495368,47.3075859 C184.574893,46.1350199 185.989613,45.2403452 187.739527,44.6260266 C189.489442,44.011708 191.462409,43.6130479 193.660277,43.4263492 C195.856913,43.2402668 198.07265,43.1472255 200.306256,43.1472255 L200.306256,42.4207645 Z M234.654553,46.3020012 C234.654553,45.0770609 234.467854,43.8890907 234.096306,42.7387067 C233.723525,41.5883227 233.165277,40.5673338 232.420947,39.6763562 C231.675385,38.7847624 230.754215,38.0798672 229.656205,37.5598221 C228.556963,37.0391609 227.282114,36.7797546 225.83104,36.7797546 C224.49026,36.7797546 223.270249,37.0391609 222.17224,37.5598221 C221.073614,38.0798672 220.133959,38.7847624 219.352043,39.6763562 C218.570127,40.5673338 217.964434,41.5883227 217.536814,42.7387067 C217.107962,43.8890907 216.894152,45.0961621 216.894152,46.3580724 C216.894152,47.621215 217.107962,48.8282863 217.536814,49.9780542 C217.964434,51.1290544 218.570127,52.1408008 219.352043,53.0132934 C220.133959,53.8864022 221.073614,54.5820549 222.17224,55.1008676 C223.270249,55.6215288 224.49026,55.8809352 225.83104,55.8809352 C227.282114,55.8809352 228.556963,55.6116701 229.656205,55.0731401 C230.754215,54.5352262 231.675385,53.8204723 232.420947,52.9294947 C233.165277,52.038517 233.723525,51.0175281 234.096306,49.8659118 C234.467854,48.7161439 234.654553,47.5275576 234.654553,46.3020012 Z M217.06175,55.3775266 L217.06175,59.5668468 L211.978987,59.5668468 L211.978987,17.3427629 L217.229347,17.3427629 L217.229347,37.0588783 L217.396945,37.0588783 C218.287922,35.756301 219.531964,34.6484325 221.129685,33.7352728 C222.726174,32.8239617 224.620272,32.3673818 226.811978,32.3673818 C228.780632,32.3673818 230.572446,32.7216779 232.188652,33.4284216 C233.804242,34.1363976 235.19678,35.1228812 236.366882,36.3884884 C237.536983,37.655328 238.437203,39.1347453 239.068774,40.8292048 C239.700346,42.5236644 240.016439,44.3388927 240.016439,46.2742736 C240.016439,48.2108869 239.700346,50.0353577 239.068774,51.7476861 C238.437203,53.4606307 237.546225,54.9505228 236.394609,56.2161301 C235.242993,57.4823535 233.850455,58.4780795 232.21638,59.2039244 C230.582305,59.9297693 228.743046,60.2933079 226.700452,60.2933079 C224.805738,60.2933079 223.004681,59.8743142 221.29605,59.036327 C219.587419,58.1989558 218.212134,56.9795611 217.173276,55.3775266 L217.06175,55.3775266 Z M266.489443,46.3020012 C266.489443,45.0400909 266.293502,43.8330195 265.90162,42.6826355 C265.508505,41.5322515 264.939167,40.5211213 264.192372,39.6480125 C263.445578,38.7755198 262.520711,38.0798672 261.419004,37.5598221 C260.316681,37.0391609 259.056619,36.7797546 257.63697,36.7797546 C256.217321,36.7797546 254.956027,37.0391609 253.854937,37.5598221 C252.752614,38.0798672 251.828363,38.7755198 251.080952,39.6480125 C250.334158,40.5211213 249.764203,41.5322515 249.372937,42.6826355 C248.980439,43.8330195 248.785114,45.0400909 248.785114,46.3020012 C248.785114,47.5651438 248.980439,48.7722151 249.372937,49.921983 C249.764203,51.0729831 250.334158,52.0939721 251.080952,52.9855659 C251.828363,53.8765435 252.752614,54.5820549 253.854937,55.1008676 C254.956027,55.6215288 256.217321,55.8809352 257.63697,55.8809352 C259.056619,55.8809352 260.316681,55.6215288 261.419004,55.1008676 C262.520711,54.5820549 263.445578,53.8765435 264.192372,52.9855659 C264.939167,52.0939721 265.508505,51.0729831 265.90162,49.921983 C266.293502,48.7722151 266.489443,47.5651438 266.489443,46.3020012 Z M271.963472,46.2742736 C271.963472,48.321797 271.599933,50.2029552 270.874089,51.9152836 C270.147627,53.6282282 269.142659,55.1082616 267.85795,56.3553838 C266.573242,57.6037384 265.055622,58.5711208 263.305708,59.2593794 C261.555177,59.9482543 259.675251,60.2933079 257.664698,60.2933079 C255.654145,60.2933079 253.772986,59.9482543 252.023072,59.2593794 C250.273157,58.5711208 248.765396,57.6037384 247.500405,56.3553838 C246.234182,55.1082616 245.238456,53.6282282 244.511995,51.9152836 C243.785534,50.2029552 243.422611,48.321797 243.422611,46.2742736 C243.422611,44.2273665 243.785534,42.3566831 244.511995,40.6616074 C245.238456,38.9671478 246.234182,37.5062156 247.500405,36.2769622 C248.765396,35.048325 250.273157,34.0901851 252.023072,33.4006941 C253.772986,32.7118193 255.654145,32.3673818 257.664698,32.3673818 C259.675251,32.3673818 261.555177,32.7118193 263.305708,33.4006941 C265.055622,34.0901851 266.573242,35.048325 267.85795,36.2769622 C269.142659,37.5062156 270.147627,38.9671478 270.874089,40.6616074 C271.599933,42.3566831 271.963472,44.2273665 271.963472,46.2742736 Z M282.909373,45.659955 L273.247256,33.0932267 L279.725637,33.0932267 L286.204634,42.197712 L292.739087,33.0932267 L298.883505,33.0932267 L289.332299,45.6038838 L300,59.5668468 L293.465548,59.5668468 L286.093108,49.2343405 L278.609142,59.5668468 L272.297743,59.5668468 L282.909373,45.659955 Z" id="Combined-Shape"></path>
        </g>
    </g>
</svg>