<?xml version="1.0" encoding="UTF-8"?>
<svg width="512px" height="512px" viewBox="0 0 512 512" version="1.1" xmlns="http://www.w3.org/2000/svg" xmlns:xlink="http://www.w3.org/1999/xlink">
    <title>icon</title>
    <g id="Logos" stroke="none" stroke-width="1" fill="none" fill-rule="evenodd">
        <g id="grip6" transform="translate(179.000000, 143.000000)" fill-rule="nonzero">
            <path d="M155,77.5 C155,120.302588 120.300401,155 77.5,155 C34.6974122,155 0,120.302588 0,77.5 C0,34.6974122 34.6974122,0 77.5,0 C120.302588,0 155,34.6974122 155,77.5 Z" id="Path" fill="#EF4923"></path>
            <path d="M146,77.501094 C146,115.331167 115.331656,146 77.5,146 C39.6683436,146 9,115.331167 9,77.501094 C9,39.6688333 39.6683436,9 77.5,9 C115.333844,9 146,39.6688333 146,77.501094 Z" id="Path" fill="#000000"></path>
            <path d="M134,77.5 C134,108.702631 108.709887,134 77.49891,134 C46.2966528,134 21,108.702631 21,77.5 C21,61.8965045 27.3198032,47.7687797 37.5505161,37.5473784 C47.7703289,27.328157 61.8966914,21 77.49891,21 C78.5540272,21 79.6026044,21.0305182 80.6424617,21.0893746 L50.8681007,50.8707319 C44.0512588,57.6893592 39.83297,67.1042093 39.83297,77.5021799 C39.83297,98.3090204 56.6995852,115.16812 77.50109,115.16812 C98.3091348,115.16812 115.17139,98.3090204 115.17139,77.5021799 C115.17139,67.1063891 110.964001,57.6893592 104.144979,50.8707319 L104.136259,50.8707319 L90.8208546,64.1831861 C94.2303656,67.5903198 96.34278,72.3053744 96.34278,77.5 C96.34278,87.9023303 87.9105624,96.3362398 77.50327,96.3362398 C67.1090576,96.3362398 58.6703,87.9023303 58.6703,77.5 C58.6703,72.3053744 60.7827144,67.6033991 64.1900453,64.1875458 L101.871245,26.5128863 C107.68965,29.2965778 112.952156,33.0394112 117.458204,37.5495582 L117.466924,37.5495582 C127.684557,47.7709595 134,61.8986844 134,77.5" id="Path" fill="#FFFFFF"></path>
            <path d="M22.7423036,190.450985 L22.7423036,183.633446 L34,183.633446 L34,203.692199 C28.5780147,204.562616 24.1816339,205 20.80868,205 C14.7813486,205 10.6397357,203.389729 8.38384142,200.171363 C6.12794714,196.952997 5,191.837123 5,184.830269 C5,177.823414 6.17367473,172.766293 8.52537919,169.658905 C10.8749061,166.553694 14.8749812,165 20.5234269,165 C24.0488061,165 27.8572608,165.398216 31.9531461,166.192471 L34,166.590687 L33.7735396,172.670547 C29.2247334,172.178762 25.5012014,171.932869 22.6007659,171.932869 C19.7003304,171.932869 17.6621865,172.274508 16.4885118,172.955609 C15.3126596,173.63671 14.4503679,174.896638 13.9016369,176.733217 C13.3507283,178.571973 13.0763628,181.714177 13.0763628,186.166358 C13.0763628,190.61854 13.6250939,193.732456 14.7247334,195.512458 C15.824373,197.29246 18.0976873,198.182461 21.5490314,198.182461 L26.2676828,197.956153 L26.2676828,190.455337 L22.7423036,190.455337 L22.7423036,190.450985 Z" id="Path" fill="#000000"></path>
            <path d="M48.9391384,191.923129 L48.9391384,205 L41,205 L41,166 L56.190791,166 C65.3969303,166 70,170.282818 70,178.846258 C70,183.930732 68.0807689,187.677648 64.2467138,190.087008 L69.8281286,204.997804 L61.139807,204.997804 L56.5940278,191.920933 L48.9391384,191.920933 L48.9391384,191.923129 Z M60.5030013,183.434364 C61.4240559,182.287886 61.8845832,180.77682 61.8845832,178.903362 C61.8845832,177.029904 61.3954107,175.538604 60.4170656,174.429464 C59.4387205,173.320324 58.0284933,172.766853 56.1885875,172.766853 L48.9391384,172.766853 L48.9391384,185.154086 L56.3031685,185.154086 C58.1827369,185.156276 59.5841501,184.583038 60.5030013,183.434364 Z" id="Shape" fill="#000000"></path>
            <rect id="Rectangle" fill="#000000" x="77" y="166" width="8" height="39"></rect>
            <path d="M107.227757,193.644402 L100.852728,193.644402 L100.852728,205 L93,205 L93,166 L107.227757,166 C116.409979,166 121,170.511489 121,179.534467 C121,184.085492 119.833969,187.57344 117.499728,190.000507 C115.165486,192.431967 111.741496,193.644402 107.227757,193.644402 Z M100.852728,186.877168 L107.171091,186.877168 C111.078929,186.877168 113.033938,184.430333 113.033938,179.536664 C113.033938,177.127168 112.558808,175.398569 111.610726,174.346474 C110.662645,173.294379 109.182766,172.76943 107.171091,172.76943 L100.852728,172.76943 L100.852728,186.877168 Z" id="Shape" fill="#000000"></path>
            <path d="M151.078601,173.697368 C147.231471,173.127436 143.895559,172.841377 141.066533,172.841377 C135.711744,172.841377 133.034349,175.769653 133.034349,181.621837 L134.221414,181.279003 C136.710351,180.558399 138.690237,180.195913 140.161071,180.195913 C144.42194,180.195913 147.627882,181.185106 149.776729,183.16131 C151.925576,185.137514 153,188.207727 153,192.369765 C153,196.531803 151.79344,199.678443 149.380319,201.807503 C146.967198,203.936562 143.468823,205 138.887359,205 C134.305895,205 130.846511,203.318589 128.50704,199.953583 C126.167569,196.588578 125,191.638242 125,185.100392 C125,178.562542 126.338697,173.745409 129.016092,170.646809 C131.693486,167.548208 135.53845,166 140.555315,166 C143.496983,166 146.644438,166.419261 150.002011,167.253415 L151.756615,167.653024 L151.078601,173.697368 Z M139.483057,187.039474 C137.711125,187.039474 135.863376,187.362654 133.939811,188.009015 L132.978029,188.295073 C132.978029,194.872228 135.090051,198.158623 139.311929,198.158623 C141.122853,198.158623 142.515705,197.654199 143.496983,196.647536 C144.476095,195.640873 144.967817,194.223684 144.967817,192.400336 C144.967817,188.827884 143.139564,187.039474 139.483057,187.039474 Z" id="Shape" fill="#000000"></path>
            <path d="M8,212 L13.2003374,212 C16.0767609,212 17.5149726,213.258469 17.5149726,215.77757 C17.5149726,217.548508 16.8696752,218.713997 15.5790806,219.274038 C17.1923239,219.792994 18,220.980107 18,222.835376 C18,224.346836 17.6183045,225.419346 16.8528047,226.050742 C16.0873049,226.684302 14.9759595,227 13.5166596,227 L8.00210881,227 L8.00210881,212 L8,212 Z M13.1560523,213.189275 L9.30324757,213.189275 L9.30324757,218.778867 L13.3458456,218.778867 C14.3285534,218.778867 15.0476592,218.53885 15.5031632,218.056653 C15.9586672,217.574456 16.1864192,216.858729 16.1864192,215.909471 C16.1864192,214.960213 15.9375791,214.268272 15.4398988,213.83797 C14.9422185,213.403344 14.1809363,213.189275 13.1560523,213.189275 Z M13.3669338,219.944356 L9.30324757,219.944356 L9.30324757,225.81505 L13.4934627,225.81505 C14.5183467,225.81505 15.3028258,225.592331 15.8511177,225.144731 C16.3994095,224.699294 16.6714466,223.914372 16.6714466,222.792129 C16.6714466,220.893614 15.5706453,219.944356 13.3669338,219.944356 Z" id="Shape" fill="#000000"></path>
            <polygon id="Path" fill="#000000" points="22 227 22 212 31 212 31 213.208562 23.3385392 213.208562 23.3385392 218.77789 29.7047093 218.77789 29.7047093 219.964831 23.3385392 219.964831 23.3385392 225.813059 31 225.813059 31 227"></polygon>
            <polygon id="Path" fill="#000000" points="42 227 34 227 34 212 35.3055629 212 35.3055629 225.791438 42 225.791438"></polygon>
            <polygon id="Path" fill="#000000" points="40 213.208562 40 212 51 212 51 213.208562 46.2041675 213.208562 46.2041675 227 44.8399118 227 44.8399118 213.208562"></polygon>
            <path d="M66.9977237,226.52928 C65.4384248,226.843093 64.1044844,227 62.9981789,227 C61.8918734,227 61.0018211,226.883441 60.3280219,226.652564 C59.6542226,226.421687 59.1056226,226.096666 58.6799454,225.679742 C58.2565445,225.262819 57.9219212,224.718128 57.6806283,224.045671 C57.2253585,222.821799 57,221.158588 57,219.056038 C57,215.684786 57.5463237,213.454469 58.6366947,212.365088 C59.5312998,211.455029 60.8925563,211 62.7272934,211 C63.9838379,211 65.4088322,211.156907 67,211.47072 L66.9317095,212.678902 C65.3564762,212.39647 64.0908263,212.253012 63.1370362,212.253012 C62.1832461,212.253012 61.4434327,212.353881 60.9221489,212.555618 C60.400865,212.757355 59.9751878,213.026338 59.6496699,213.360325 C59.3241521,213.696554 59.0783064,214.162791 58.9098566,214.759036 C58.6071022,215.774447 58.4545868,217.040908 58.4545868,218.562903 C58.4545868,220.084898 58.5069429,221.221351 58.6139313,221.974503 C58.7186433,222.727655 58.9235147,223.41132 59.2285454,224.021014 C59.5312998,224.63295 59.9774641,225.072289 60.5693148,225.341272 C61.1611655,225.610255 61.9783747,225.744746 63.0232188,225.744746 C64.0680628,225.744746 65.3724107,225.60353 66.9317095,225.318857 L66.9977237,226.52928 Z" id="Path" fill="#000000"></path>
            <path d="M81,219.12218 C81,221.897576 80.5682657,223.904021 79.7070111,225.141516 C78.8457565,226.379011 77.2760148,227 75,227 C72.7239852,227 71.1542435,226.36556 70.2929889,225.096679 C69.4317343,223.827799 69,221.825837 69,219.088553 C69,216.351268 69.4339483,214.317921 70.304059,212.990752 C71.1741697,211.663584 72.7350554,211 74.9889299,211 C77.2428044,211 78.8081181,211.6591 79.6848708,212.979543 C80.5616236,214.299986 81,216.349026 81,219.12218 Z M71.3424354,224.190977 C71.9623616,225.228948 73.1800738,225.746812 75,225.746812 C76.8199262,225.746812 78.0398524,225.240157 78.6575646,224.224604 C79.2774908,223.211293 79.5852399,221.514222 79.5852399,219.133389 C79.5852399,216.754799 79.2597786,215.012891 78.6132841,213.907664 C77.9645756,212.80468 76.7557196,212.250946 74.9889299,212.250946 C73.1623616,212.250946 71.9313653,212.847275 71.298155,214.042175 C70.9594096,214.654196 70.7269373,215.355892 70.602952,216.145019 C70.4767528,216.936388 70.4147484,217.913829 70.4147484,219.077343 C70.4125461,221.45145 70.7225092,223.155247 71.3424354,224.190977 Z" id="Shape" fill="#000000"></path>
            <polygon id="Path" fill="#000000" points="84 227 84 212 86.4567359 212 91.0116684 225.123378 95.5432641 212 98 212 98 227 96.6867707 227 96.6867707 213.381522 96.389756 213.381522 91.773299 226.504901 90.226701 226.504901 85.610244 213.381522 85.3132293 213.381522 85.3132293 227"></polygon>
            <path d="M107.404942,221.776593 L103.319266,221.776593 L103.319266,227 L102,227 L102,212 L107.404942,212 C108.979963,212 110.139383,212.389161 110.883202,213.165321 C111.62702,213.941482 112,215.137071 112,216.747766 C112.002127,220.098876 110.469732,221.776593 107.404942,221.776593 Z M103.321398,220.589651 L107.407073,220.589651 C109.563935,220.589651 110.640235,219.309743 110.640235,216.747766 C110.640235,215.52407 110.384481,214.624676 109.875103,214.049582 C109.363594,213.474488 108.540918,213.186941 107.407073,213.186941 L103.321398,213.186941 L103.321398,220.589651 L103.321398,220.589651 Z" id="Shape" fill="#000000"></path>
            <path d="M113,227 L117.41326,212 L120.61105,212 L125,227 L123.654144,227 L122.418785,222.855434 L115.579006,222.855434 L114.365746,227 L113,227 Z M118.405525,213.167483 L115.912707,221.670654 L122.089503,221.670654 L119.596685,213.167483 L118.405525,213.167483 Z" id="Shape" fill="#000000"></path>
            <polygon id="Path" fill="#000000" points="127 227 127 212 129.698448 212 136.13969 225.813059 136.649667 225.813059 136.649667 212 138 212 138 227 135.343681 227 128.858093 213.208562 128.370288 213.208562 128.370288 227"></polygon>
            <polygon id="Path" fill="#000000" points="146.171367 227 144.828633 227 144.828633 220.656673 140 212 141.494577 212 145.501085 219.275151 149.483731 212 151 212 146.171367 220.656673"></polygon>
            <path d="M130.703057,149.5 L130.406114,149.5 C130.406114,150.578603 129.969432,151.554585 129.262009,152.262009 C128.554585,152.969432 127.580786,153.406114 126.5,153.406114 C125.421397,153.406114 124.445415,152.969432 123.737991,152.262009 C123.030568,151.554585 122.593886,150.580786 122.593886,149.5 C122.593886,148.421397 123.030568,147.445415 123.737991,146.737991 C124.445415,146.030568 125.419214,145.593886 126.5,145.593886 C127.578603,145.593886 128.554585,146.030568 129.262009,146.737991 C129.969432,147.445415 130.406114,148.419214 130.406114,149.5 L130.703057,149.5 L131,149.5 C131,147.015284 128.984716,145 126.5,145 C124.015284,145 122,147.015284 122,149.5 C122,151.984716 124.015284,154 126.5,154 C128.984716,154 131,151.984716 131,149.5 L130.703057,149.5 Z" id="Path" fill="#231F20"></path>
            <path d="M125.517389,150.028644 L125.517389,152 L125,152 L125,147 L127.125686,147 C127.730933,147 128.182428,147.117944 128.480171,147.355939 C128.777913,147.593934 128.926785,147.968829 128.926785,148.48273 C128.926785,149.283067 128.553386,149.769587 127.80903,149.942291 L129,152 L128.424039,152 L127.281879,150.028644 L125.517389,150.028644 Z M128.392312,148.489048 C128.392312,148.114153 128.289811,147.838248 128.084808,147.661331 C127.879805,147.484414 127.560098,147.395956 127.125686,147.395956 L125.517389,147.395956 L125.517389,149.632687 L127.125686,149.632687 C127.970104,149.632687 128.392312,149.251474 128.392312,148.489048 Z" id="Shape" fill="#231F20"></path>
        </g>
    </g>
</svg>