<?xml version="1.0" encoding="UTF-8"?>
<svg width="512px" height="512px" viewBox="0 0 512 512" version="1.1" xmlns="http://www.w3.org/2000/svg" xmlns:xlink="http://www.w3.org/1999/xlink">
    <title>icon</title>
    <g id="Logos" stroke="none" stroke-width="1" fill="none" fill-rule="evenodd">
        <g id="nobuntu" transform="translate(105.800000, 229.700000)" fill-rule="nonzero">
            <g id="icon" transform="translate(41.658410, 0.297233)">
                <path d="M29.0145568,50.7583263 C30.1577624,48.7005564 31.5753372,45.4995808 31.8039784,41.818459 C32.1240759,36.7426263 30.1120341,31.9868912 25.8364454,27.7113025 C25.8364454,27.7113025 25.8364454,27.7113025 25.8364454,27.7113025 C23.6186266,25.4934837 21.8809542,23.1156162 20.6920204,20.6462922 C18.8628915,24.7618322 16.5078881,27.414069 16.3707035,27.5741178 C15.5933237,28.442954 14.2672052,28.4886823 13.398369,27.7113025 C12.5295328,26.9339227 12.4838046,25.6078043 13.2611844,24.7389681 C13.2611844,24.716104 14.6101669,23.2299367 15.9362853,20.7834769 C17.1252191,18.5885222 18.5656581,15.1817697 18.6113863,11.2948708 C18.6113863,11.2720067 18.6113863,11.2262785 18.6113863,11.2034144 C18.7028428,6.92782562 20.0975535,3.17811142 21.5608566,0.388689886 C16.485024,1.30325433 11.6149684,3.72685009 7.68234128,7.65947717 C-2.56078043,17.9025989 -2.56078043,34.5019434 7.68234128,44.7450652 C13.2611844,50.3239082 20.7148845,52.8618246 28.0085359,52.3588141 C28.3286335,51.924396 28.6715952,51.3756573 29.0145568,50.7583263 Z" id="Shape" fill="#EE8C22"></path>
                <path d="M25.4934837,1.96631354 C24.30455,4.1612682 22.864111,7.56802073 22.8183827,11.4549196 C22.8183827,11.4549196 22.8183827,11.4549196 22.8183827,11.4549196 C22.8183827,11.5235119 22.8183827,11.6149684 22.8183827,11.6835607 C22.8183827,16.3707035 24.8304245,20.7606128 28.8316439,24.7618322 C28.8316439,24.7618322 28.8316439,24.7618322 28.8316439,24.7618322 C31.0494627,26.9796509 32.764271,29.3346544 33.9760689,31.8039784 C35.8051978,27.6655743 38.1602012,25.0133374 38.32025,24.8304245 C39.0976298,23.9615883 40.4237482,23.9158601 41.2925844,24.6932398 C41.7498666,25.1047938 41.9785077,25.6763966 41.9785077,26.2479994 C41.9785077,26.7510098 41.7955948,27.2540203 41.4297691,27.6655743 C41.4297691,27.6884384 40.0807865,29.1746056 38.7546681,31.6210655 C37.5657343,33.8160201 36.1252953,37.2227727 36.0795671,41.1096715 C36.0795671,41.1325356 36.0795671,41.1782639 36.0795671,41.201128 C36.0795671,41.4983614 36.056703,41.818459 36.0338389,42.1156924 L36.0338389,42.1156924 C35.8051978,45.751086 34.6848563,48.9749257 33.4273302,51.4899779 C37.5885984,50.3010441 41.5212255,48.0832254 44.8136575,44.7907934 C55.0567792,34.5476717 55.0567792,17.9483271 44.8136575,7.7052054 C39.8064172,2.69796509 33.2901456,0.137184666 26.7281457,0.022864111 C26.3165917,0.571602774 25.9050377,1.23466199 25.4934837,1.96631354 Z" id="Shape" fill="#FBD146"></path>
            </g>
            <path d="M23.2528009,52.6560476 C21.9952748,52.6560476 21.4694002,51.9929883 21.2407591,51.3985215 L11.0890938,25.1962503 C10.929045,24.7389681 10.4260346,24.8990168 10.4260346,25.3562991 L10.4260346,51.1698803 C10.4260346,51.9929883 9.76297538,52.6560476 8.93986739,52.6560476 L1.48616721,52.6560476 C0.663059218,52.6560476 0,51.9929883 0,51.1698803 L0,1.89772121 C0,1.07461322 0.663059218,0.411553997 1.48616721,0.411553997 L10.3345782,0.411553997 C11.4549196,0.411553997 11.9807941,1.07461322 12.2094353,1.76053654 L22.4296929,30.1120341 C22.5897416,30.5693164 23.0927521,30.4092676 23.0927521,29.9519854 L23.0927521,1.89772121 C23.0927521,1.07461322 23.7558113,0.411553997 24.5789193,0.411553997 L32.0554836,0.411553997 C32.8785916,0.411553997 33.5416508,1.07461322 33.5416508,1.89772121 L33.5416508,51.1470162 C33.5416508,51.9701242 32.8785916,52.6331834 32.0554836,52.6331834 L23.2528009,52.6331834 L23.2528009,52.6560476 Z" id="Shape" fill="#EE8C22"></path>
            <path d="M136.018596,15.6390519 C136.018596,18.9314839 134.37238,22.8869751 132.223154,25.0362015 C131.765872,25.4934837 131.765872,25.9964942 132.223154,26.3851841 C134.692478,28.4658182 136.635927,32.7185428 136.635927,36.5368493 C136.635927,46.3226888 130.508345,52.6560476 121.339837,52.6560476 L103.734471,52.6560476 C102.911363,52.6560476 102.248304,51.9929883 102.248304,51.1698803 L102.248304,1.89772121 C102.248304,1.07461322 102.911363,0.411553997 103.734471,0.411553997 L121.339837,0.411553997 C129.685237,0.411553997 136.018596,7.20219495 136.018596,15.6390519 Z M120.951147,20.4862434 C123.557656,20.4862434 125.866931,18.2455606 125.866931,15.6390519 C125.866931,13.0325433 123.557656,10.8604527 120.951147,10.8604527 L113.200213,10.8604527 C112.742931,10.8604527 112.445698,11.1576862 112.445698,11.6149684 L112.445698,19.7317278 C112.445698,20.18901 112.742931,20.4862434 113.200213,20.4862434 L120.951147,20.4862434 Z M113.177349,30.9351421 C112.720067,30.9351421 112.422834,31.2323756 112.422834,31.6896578 L112.422834,41.4526332 C112.422834,41.9099154 112.720067,42.2071488 113.177349,42.2071488 L120.928283,42.2071488 C124.129258,42.2071488 126.1413,39.5091838 126.1413,36.5368493 C126.1413,33.6331072 124.060666,30.9351421 120.928283,30.9351421 L113.177349,30.9351421 Z" id="Shape" fill="#EE8C22"></path>
            <path d="M177.882783,36.5597134 C177.882783,45.5910373 170.429083,53.0447374 160.117369,53.0447374 C149.965704,53.0447374 142.512004,45.5910373 142.512004,36.5597134 L142.512004,1.48616721 C142.512004,0.663059218 143.175063,0 143.998171,0 L151.543327,0 C152.366435,0 153.029495,0.663059218 153.029495,1.48616721 L153.029495,36.5597134 C153.029495,39.8521454 155.72746,42.5272464 160.117369,42.5272464 C164.667327,42.5272464 167.365292,39.8292813 167.365292,36.5597134 L167.365292,1.48616721 C167.365292,0.663059218 168.028351,0 168.851459,0 L176.396616,0 C177.219724,0 177.882783,0.663059218 177.882783,1.48616721 L177.882783,36.5597134 Z" id="Shape" fill="#EE8C22"></path>
            <path d="M208.56642,52.6560476 C207.308894,52.6560476 206.78302,51.9929883 206.554378,51.3985215 L196.402713,25.1962503 C196.242664,24.7389681 195.739654,24.8990168 195.739654,25.3562991 L195.739654,51.1698803 C195.739654,51.9929883 195.076595,52.6560476 194.253487,52.6560476 L186.799787,52.6560476 C185.976679,52.6560476 185.313619,51.9929883 185.313619,51.1698803 L185.313619,1.89772121 C185.313619,1.07461322 185.976679,0.411553997 186.799787,0.411553997 L195.671062,0.411553997 C196.791403,0.411553997 197.317278,1.07461322 197.545919,1.76053654 L207.766176,30.1120341 C207.926225,30.5693164 208.429236,30.4092676 208.429236,29.9519854 L208.429236,1.89772121 C208.429236,1.07461322 209.092295,0.411553997 209.915403,0.411553997 L217.369103,0.411553997 C218.192211,0.411553997 218.85527,1.07461322 218.85527,1.89772121 L218.85527,51.1470162 C218.85527,51.9701242 218.192211,52.6331834 217.369103,52.6331834 L208.56642,52.6331834 L208.56642,52.6560476 Z" id="Shape" fill="#EE8C22"></path>
            <path d="M247.366817,11.6149684 L247.366817,51.1698803 C247.366817,51.9929883 246.703757,52.6560476 245.880649,52.6560476 L238.426949,52.6560476 C237.603841,52.6560476 236.940782,51.9929883 236.940782,51.1698803 L236.940782,11.6149684 C236.940782,11.1576862 236.643549,10.8604527 236.186266,10.8604527 L226.857709,10.8604527 C226.034601,10.8604527 225.371542,10.1973935 225.371542,9.3742855 L225.371542,1.89772121 C225.371542,1.07461322 226.034601,0.411553997 226.857709,0.411553997 L257.449889,0.411553997 C258.272997,0.411553997 258.936057,1.07461322 258.936057,1.89772121 L258.936057,9.35142139 C258.936057,10.1745294 258.272997,10.8375886 257.449889,10.8375886 L248.121332,10.8375886 C247.66405,10.8604527 247.366817,11.1576862 247.366817,11.6149684 Z" id="Shape" fill="#EE8C22"></path>
            <path d="M300,36.5597134 C300,45.5910373 292.5463,53.0447374 282.234586,53.0447374 C272.082921,53.0447374 264.62922,45.5910373 264.62922,36.5597134 L264.62922,1.48616721 C264.62922,0.663059218 265.29228,0 266.115388,0 L273.660544,0 C274.483652,0 275.146711,0.663059218 275.146711,1.48616721 L275.146711,36.5597134 C275.146711,39.8521454 277.844676,42.5272464 282.234586,42.5272464 C286.784544,42.5272464 289.482509,39.8292813 289.482509,36.5597134 L289.482509,1.48616721 C289.482509,0.663059218 290.145568,0 290.968676,0 L298.513833,0 C299.336941,0 300,0.663059218 300,1.48616721 L300,36.5597134 Z" id="Shape" fill="#EE8C22"></path>
        </g>
    </g>
</svg>