<?xml version="1.0" encoding="UTF-8"?>
<svg width="512px" height="512px" viewBox="0 0 512 512" version="1.1" xmlns="http://www.w3.org/2000/svg" xmlns:xlink="http://www.w3.org/1999/xlink">
    <title>icon</title>
    <g id="Logos" stroke="none" stroke-width="1" fill="none" fill-rule="evenodd">
        <g id="ShopOps" transform="translate(119.000000, 227.000000)" fill-rule="nonzero">
            <g id="Glue" transform="translate(213.000000, 55.000000)">
                <path d="M52.5680398,26 C57.1173356,26 59.8195489,23.2137096 59.8195489,19.7560239 L59.8195489,19.6217449 L55.3044583,19.6217449 L55.3044583,20.0245821 C55.3044583,21.5687912 54.07307,22.4080353 52.5680398,22.4080353 C51.1314201,22.4080353 49.7632108,21.2666633 49.7632108,19.5881751 L49.7632108,17.5404195 L59.8195489,17.5404195 L59.8195489,13.8477455 C59.8195489,9.21511813 57.1173356,6.5631068 52.5680398,6.5631068 C47.9161283,6.5631068 45.2481203,9.41653671 45.2481203,14.0155943 L45.2481203,18.614652 C45.2481203,23.1465701 47.9161283,26 52.5680398,26 Z M32.6247953,6.5631068 L32.6247953,19.2718447 C32.6247953,21.2427184 34.1262935,22.0242718 35.423042,22.0242718 C36.5150407,22.0242718 38.1530387,21.276699 38.1530387,19.2718447 L38.1530387,19.2718447 L38.1530387,6.5631068 L42.6917293,6.5631068 L42.6917293,18.6262136 C42.6917293,23.1456311 39.8592866,26 35.423042,26 C30.8161725,26 28.1203008,23.1456311 28.1203008,18.6262136 L28.1203008,18.6262136 L28.1203008,6.5631068 L32.6247953,6.5631068 Z M8.03561658,1.51456311 C12.7343981,1.51456311 16.0031157,4.81068568 16.1052632,9.51942219 L16.1052632,9.51942219 L11.4064816,9.51942219 C11.4064816,6.99688477 10.0785651,5.95422897 8.10371487,5.95422897 C5.9926468,5.95422897 4.73282856,7.0305186 4.73282856,10.1920988 L4.73282856,10.1920988 L4.73282856,17.9951479 C4.73282856,20.4167838 5.9926468,21.5603341 8.03561658,21.5603341 C9.77212281,21.5603341 11.4064816,20.6185868 11.4064816,17.9951479 L11.4064816,17.9951479 L11.4064816,17.5915419 L8.06966573,17.5915419 L8.06966573,13.5218482 L16.1052632,13.5218482 L16.1052632,17.8269788 C16.1052632,22.6702506 12.8024964,26 8.03561658,26 C3.30276461,26 0,22.6702506 0,17.8269788 L0,17.8269788 L0,9.72122519 C0,4.87794633 3.30276461,1.51456311 8.03561658,1.51456311 Z M24.2857143,0 L24.2857143,25.4951456 L19.9398496,25.4951456 L19.9398496,0 L24.2857143,0 Z M52.5680398,10.1886413 C54.2440962,10.1886413 55.3044583,11.0278854 55.3044583,13.5456177 L55.3044583,14.4520013 L49.7632108,14.4520013 L49.7632108,13.075641 C49.7632108,11.0614551 50.9603939,10.1886413 52.5680398,10.1886413 Z" fill="#005A63"></path>
                <path d="M65.3157895,26 C66.8256579,26 68,24.8331196 68,23.3661843 C68,21.8992489 66.8256579,20.6990291 65.3157895,20.6990291 C63.8394737,20.6990291 62.6315789,21.8992489 62.6315789,23.3661843 C62.6315789,24.8331196 63.8394737,26 65.3157895,26 Z" id="Path" fill="#FAA200"></path>
            </g>
            <g id="by" transform="translate(195.000000, 63.000000)" fill="#525252">
                <path d="M0,0 L0.911709718,0 L0.911709718,8.06487582 L0.834446183,9.3421186 L0,9.3421186 L0,0 Z M4.03830745,5.75367461 L4.03830745,6.36796756 C4.03830745,6.88697415 3.99795872,7.34009123 3.91726125,7.7273188 C3.83656378,8.11454638 3.71723454,8.43689812 3.55927353,8.69437405 C3.40131253,8.95184997 3.20901217,9.14445008 2.98237247,9.27217435 C2.75573276,9.39989863 2.49647068,9.46376077 2.20458621,9.46376077 C1.91613568,9.46376077 1.6671754,9.39483021 1.45770537,9.25696908 C1.24823534,9.11910796 1.07310466,8.92042575 0.932313327,8.66092245 C0.791521996,8.40141916 0.680777595,8.08717689 0.600080125,7.71819564 C0.519382655,7.34921439 0.463581213,6.93360365 0.432675798,6.47136341 L0.432675798,5.65027876 C0.463581213,5.18398378 0.518524171,4.76533198 0.597504674,4.39432337 C0.676485177,4.02331475 0.786371094,3.70704511 0.927162425,3.44551445 C1.06795376,3.18398378 1.24308444,2.98428789 1.45255447,2.84642676 C1.6620245,2.70856564 1.91098478,2.63963507 2.19943531,2.63963507 C2.49475371,2.63963507 2.75659125,2.70045616 2.98494792,2.82209833 C3.21330459,2.9437405 3.40560494,3.13127217 3.56184898,3.38469336 C3.71809302,3.63811455 3.83656378,3.96046629 3.91726125,4.35174861 C3.99795872,4.74303092 4.03830745,5.21033958 4.03830745,5.75367461 Z M3.12659773,6.36796756 L3.12659773,5.75367461 C3.12659773,5.3887481 3.10685261,5.07045109 3.06736236,4.79878358 C3.02787211,4.52711607 2.96348583,4.30207805 2.87420352,4.12366954 C2.78492121,3.94526102 2.66559197,3.81145464 2.5162158,3.72225038 C2.36683964,3.63304612 2.18226563,3.58844399 1.9624938,3.58844399 C1.77706131,3.58844399 1.61480789,3.63304612 1.47573353,3.72225038 C1.33665916,3.81145464 1.21732992,3.93208312 1.11774581,4.08413583 C1.0181617,4.23618855 0.935747262,4.40851495 0.870502499,4.60111505 C0.805257736,4.79371515 0.757182647,4.99341105 0.726277233,5.20020274 L0.726277233,6.92752154 C0.770918387,7.19107957 0.842172536,7.44348708 0.940039681,7.68474404 C1.03790683,7.92600101 1.1709718,8.12366954 1.33923461,8.27774962 C1.50749742,8.4318297 1.71696745,8.50886974 1.9676447,8.50886974 C2.17711473,8.50886974 2.35482086,8.46629498 2.5007631,8.38114546 C2.64670533,8.29599595 2.76603457,8.16523061 2.85875081,7.98884947 C2.95146705,7.81246832 3.01928727,7.58945768 3.06221145,7.31981754 C3.10513564,7.05017739 3.12659773,6.73289407 3.12659773,6.36796756 Z" id="b"></path>
                <path d="M6.79026289,8.66092245 L8.03163036,2.76127724 L9,2.76127724 L7.16112786,10.3578307 C7.1164867,10.5200203 7.05725133,10.6953877 6.98342173,10.8839331 C6.90959212,11.0724785 6.8160174,11.2519007 6.70269755,11.4221997 C6.58937769,11.5924987 6.45373727,11.7313735 6.29577626,11.8388241 C6.13781525,11.9462747 5.95238277,12 5.7394788,12 C5.67423404,12 5.59096112,11.9878358 5.48966004,11.9635073 C5.38835896,11.9391789 5.31538784,11.9189052 5.27074669,11.9026863 L5.27074669,10.99037 C5.2913503,10.9944247 5.32397268,10.9994932 5.36861383,11.0055753 C5.41325499,11.0116574 5.44587737,11.0146984 5.46648098,11.0146984 C5.6450456,11.0146984 5.79699721,10.9812468 5.92233584,10.9143436 C6.04767446,10.8474404 6.15498493,10.7359351 6.24426724,10.5798277 C6.33354954,10.4237202 6.40909611,10.2098327 6.47090694,9.93816523 L6.79026289,8.66092245 Z M5.98672212,2.76127724 L7.09416613,7.87024835 L7.33110763,9.0562595 L6.68209394,9.46984288 L4.99259796,2.76127724 L5.98672212,2.76127724 Z" id="y"></path>
            </g>
            <path d="M102.18093,10.5168317 C109.231132,10.5168317 113.226247,15.5891089 113.226247,23.8722772 C113.226247,32.1554455 108.996125,37.6465347 101.992925,37.6465347 C97.6217992,37.6465347 94.9427224,35.5059406 93.3446765,32.2485149 C93.5326819,33.1326733 93.5796833,34.109901 93.5796833,34.9475248 L93.5796833,34.9475248 L93.5796833,45.1851485 C93.5796833,46.3485149 92.7806604,47 91.511624,47 C90.1955863,47 89.3965633,46.3485149 89.3965633,45.1851485 L89.3965633,45.1851485 L89.3965633,12.7039604 C89.3965633,11.4940594 90.1955863,10.8891089 91.511624,10.8891089 C92.6866577,10.8891089 93.5796833,11.4475248 93.5796833,12.6108911 L93.5796833,12.6108911 L93.5796833,13.4485149 C93.5796833,14.1 93.5326819,15.2168317 93.3916779,16.0079208 C95.0367251,12.7039604 97.6217992,10.5168317 102.18093,10.5168317 Z M194.96159,10.5168317 C202.011792,10.5168317 206.006907,15.5891089 206.006907,23.8722772 C206.006907,32.1554455 201.776786,37.6465347 194.773585,37.6465347 C190.40246,37.6465347 187.723383,35.5059406 186.125337,32.2485149 C186.313342,33.1326733 186.360344,34.109901 186.360344,34.9475248 L186.360344,34.9475248 L186.360344,45.1851485 C186.360344,46.3485149 185.561321,47 184.292284,47 C182.976247,47 182.177224,46.3485149 182.177224,45.1851485 L182.177224,45.1851485 L182.177224,12.7039604 C182.177224,11.4940594 182.976247,10.8891089 184.292284,10.8891089 C185.467318,10.8891089 186.360344,11.4475248 186.360344,12.6108911 L186.360344,12.6108911 L186.360344,13.4485149 C186.360344,14.1 186.313342,15.2168317 186.172338,16.0079208 C187.817385,12.7039604 190.40246,10.5168317 194.96159,10.5168317 Z M252.16223,0.0465346535 C252.444239,0.0465346535 252.726247,0.0930693069 253.008255,0.186138614 C253.807278,0.465346535 254.277291,1.02376238 254.277291,1.72178218 C254.277291,1.95445545 254.23029,2.18712871 254.136287,2.46633663 L254.136287,2.46633663 L238.296833,43.5564356 C238.014825,44.3475248 237.49781,44.719802 236.79279,44.719802 C236.510782,44.719802 236.228774,44.6732673 235.899764,44.5336634 C235.05374,44.2079208 234.536725,43.7425743 234.536725,43.0445545 C234.536725,42.8118812 234.583726,42.5792079 234.677729,42.3465347 L234.677729,42.3465347 L250.517183,1.20990099 C250.799191,0.465346535 251.410209,0.0465346535 252.16223,0.0465346535 Z M13.4423854,0 C21.902628,0 24.8167116,4.46732673 25.8507412,7.81782178 C25.9447439,8.05049505 25.9917453,8.28316832 25.9917453,8.51584158 C25.9917453,9.49306931 25.1927224,10.1910891 24.2526954,10.3772277 C24.0176887,10.4237624 23.7356806,10.470297 23.4536725,10.470297 C22.6076482,10.470297 21.761624,10.0980198 21.3856132,9.12079208 C20.6335916,6.46831683 18.659535,3.86237624 13.4423854,3.86237624 C7.99022911,3.86237624 5.49915768,6.56138614 5.49915768,9.63267327 C5.49915768,12.9831683 7.14420485,14.7049505 12.4083558,15.7287129 L12.4083558,15.7287129 L15.8864555,16.4267327 C23.2186658,17.9623762 27.2137803,20.4287129 27.2137803,27.1762376 C27.2137803,33.1792079 22.5606469,37.6930693 14.1474057,37.6930693 C3.43109838,37.6930693 1.22203504,32.2019802 0.0940026954,28.4326733 C0.0470013477,28.2 0,28.0138614 0,27.8277228 C0,26.8039604 0.799022911,26.1059406 1.78605121,25.8732673 C2.0680593,25.8267327 2.30306604,25.780198 2.58507412,25.780198 C3.47809973,25.780198 4.37112534,26.1990099 4.65313342,27.1762376 C5.49915768,30.2940594 7.05020216,33.7841584 13.9123989,33.7841584 C19.2705526,33.7841584 22.6076482,31.2247525 22.6076482,27.2227723 C22.6076482,23.4069307 20.4925876,21.7316832 14.9464286,20.6148515 L14.9464286,20.6148515 L11.1863208,19.8237624 C4.1361186,18.3811881 0.940026954,15.7287129 0.940026954,9.63267327 C0.940026954,4.74653465 4.60613208,0 13.4423854,0 Z M72.0060647,10.5168317 C79.5262803,10.5168317 83.944407,15.9148515 83.944407,24.0118812 C83.944407,32.1089109 79.4322776,37.6930693 72.1000674,37.6930693 C64.344845,37.6930693 59.8327156,32.2950495 59.8327156,24.0118812 C59.8327156,15.9613861 64.3918464,10.5168317 72.0060647,10.5168317 Z M159.945586,0 C170.003875,0 176.302055,7.35247525 176.302055,18.8465347 C176.302055,30.2940594 170.003875,37.6930693 159.945586,37.6930693 C149.887298,37.6930693 143.495115,30.3405941 143.495115,18.8 C143.495115,7.3990099 149.840296,0 159.945586,0 Z M220.483322,10.470297 C225.700472,10.470297 229.037567,12.6574257 230.212601,16.0544554 C230.259602,16.2405941 230.306604,16.4267327 230.306604,16.6128713 C230.306604,17.4970297 229.507581,18.1019802 228.661557,18.3346535 C228.42655,18.3811881 228.144542,18.4277228 227.909535,18.4277228 C227.063511,18.4277228 226.217487,18.0554455 225.98248,17.1712871 C225.371462,15.0772277 223.303403,14.0069307 220.624326,14.0069307 C216.817217,14.0069307 215.031166,15.5425743 215.031166,17.4970297 C215.031166,19.6376238 215.924191,20.5683168 219.872305,21.4059406 L219.872305,21.4059406 L222.786388,22.0108911 C228.896563,23.2673267 231.340633,25.0356436 231.340633,29.9217822 C231.340633,34.3891089 227.486523,37.6930693 220.906334,37.6930693 C214.890162,37.6930693 211.365061,35.319802 210.143026,31.1782178 C210.096024,30.9455446 210.049023,30.7594059 210.049023,30.5732673 C210.049023,29.6425743 210.848046,28.9910891 211.741071,28.8049505 C211.976078,28.7584158 212.211085,28.7118812 212.39909,28.7118812 C213.292116,28.7118812 214.13814,29.0841584 214.420148,29.9683168 C215.266173,32.6673267 217.193228,34.0168317 220.906334,34.0168317 C224.666442,34.0168317 227.110512,32.3881188 227.110512,30.0148515 C227.110512,27.7346535 225.888477,26.4782178 221.611354,25.6405941 L221.611354,25.6405941 L218.932278,25.1287129 C213.151112,24.0118812 210.754043,22.0108911 210.754043,17.590099 C210.754043,13.3554455 214.420148,10.470297 220.483322,10.470297 Z M35.0630054,0.418811881 C36.2850404,0.418811881 37.0840633,0.977227723 37.0840633,2.23366337 L37.0840633,2.23366337 L37.0840633,13.9138614 C37.0840633,14.5188119 36.896058,15.5891089 36.8020553,16.2871287 C38.3530997,12.9831683 40.9381739,10.5168317 45.8733154,10.5168317 C51.4664757,10.5168317 54.474562,13.8673267 54.474562,19.5910891 L54.474562,19.5910891 L54.474562,35.3663366 C54.474562,36.6227723 53.534535,37.2277228 52.3125,37.2277228 C51.0434636,37.2277228 50.1974394,36.6227723 50.1974394,35.3663366 L50.1974394,35.3663366 L50.1974394,20.4752475 C50.1974394,16.519802 48.5523922,14.3326733 45.0272911,14.3326733 C42.3952156,14.3326733 40.3271563,15.5425743 38.7761119,17.590099 C37.6010782,19.1722772 37.0840633,20.5217822 37.0840633,22.3366337 L37.0840633,22.3366337 L37.0840633,35.3663366 C37.0840633,36.6227723 36.2850404,37.2277228 35.0630054,37.2277228 C33.7469677,37.2277228 32.853942,36.6227723 32.853942,35.3663366 L32.853942,35.3663366 L32.853942,2.23366337 C32.853942,1.02376238 33.7469677,0.418811881 35.0630054,0.418811881 Z M137.431941,10.8891089 C138.183962,10.8891089 138.747978,11.4475248 139.029987,12.0524752 C139.217992,12.3782178 139.311995,12.750495 139.311995,13.1227723 C139.311995,13.6811881 139.076988,14.1930693 138.46597,14.5188119 L138.46597,14.5188119 L122.0625,24.0118812 L138.46597,33.5980198 C139.029987,33.970297 139.264993,34.4821782 139.264993,35.0405941 C139.264993,35.3663366 139.170991,35.7386139 139.029987,36.0643564 C138.700977,36.7158416 138.136961,37.2277228 137.431941,37.2277228 C137.149933,37.2277228 136.820923,37.1346535 136.538915,36.9485149 L136.538915,36.9485149 L119.28942,26.6178218 C118.114387,25.9663366 117.550371,25.3148515 117.550371,24.0584158 C117.550371,22.7554455 118.114387,22.1039604 119.336422,21.3594059 L119.336422,21.3594059 L136.585916,11.1683168 C136.867925,10.9821782 137.196934,10.8891089 137.431941,10.8891089 Z M259.071429,10.8891089 C259.353437,10.8891089 259.682446,10.9821782 259.964454,11.1683168 L259.964454,11.1683168 L277.213949,21.3594059 C278.388982,22.1039604 279,22.7554455 279,24.0584158 C279,25.3148515 278.388982,25.9663366 277.26095,26.6178218 L277.26095,26.6178218 L259.964454,36.9485149 C259.682446,37.1346535 259.400438,37.2277228 259.11843,37.2277228 C258.366408,37.2277228 257.802392,36.7158416 257.473383,36.0643564 C257.332379,35.7386139 257.238376,35.3663366 257.238376,35.0405941 C257.238376,34.4821782 257.473383,33.970297 258.0844,33.5980198 L258.0844,33.5980198 L274.487871,24.0118812 L258.0844,14.5188119 C257.473383,14.1465347 257.238376,13.6346535 257.238376,13.0762376 C257.238376,12.750495 257.332379,12.3782178 257.473383,12.0524752 C257.755391,11.4475248 258.366408,10.8891089 259.071429,10.8891089 Z M72.1470687,14.1 C67.0709232,14.1 64.1568396,17.9623762 64.1568396,24.1514851 C64.1568396,30.0613861 66.9769205,34.109901 71.8180593,34.109901 C76.9412062,34.109901 79.620283,30.1544554 79.620283,23.9653465 C79.620283,18.1019802 76.9412062,14.1 72.1470687,14.1 Z M101.569912,14.1465347 C96.3997642,14.1465347 93.4856806,18.2881188 93.4856806,24.0118812 C93.4856806,29.7821782 96.5407682,33.970297 101.47591,33.970297 C106.223046,33.970297 108.902123,29.9683168 108.902123,23.9653465 C108.902123,17.9158416 106.317049,14.1465347 101.569912,14.1465347 Z M194.350573,14.1465347 C189.180425,14.1465347 186.266341,18.2881188 186.266341,24.0118812 C186.266341,29.7821782 189.321429,33.970297 194.25657,33.970297 C199.003706,33.970297 201.682783,29.9683168 201.682783,23.9653465 C201.682783,17.9158416 199.097709,14.1465347 194.350573,14.1465347 Z M159.945586,4.0019802 C152.660377,4.0019802 148.148248,9.86534653 148.148248,18.8465347 C148.148248,27.8277228 152.75438,33.6445545 159.945586,33.6445545 C167.277796,33.6445545 171.648922,27.9207921 171.648922,18.5673267 C171.648922,9.77227723 167.089791,4.0019802 159.945586,4.0019802 Z" fill="#082A44"></path>
        </g>
    </g>
</svg>