<?xml version="1.0" encoding="UTF-8"?>
<svg width="512px" height="512px" viewBox="0 0 512 512" version="1.1" xmlns="http://www.w3.org/2000/svg" xmlns:xlink="http://www.w3.org/1999/xlink">
    <title>icon</title>
    <g id="Icons" stroke="none" stroke-width="1" fill="none" fill-rule="evenodd">
        <g id="stingerkits" transform="translate(106.000000, 192.000000)">
            <g id="Group">
                <path d="M78.3996717,46.3960316 C78.3996717,49.3438122 77.2856457,50.0658327 75.0342591,50.7548728 C73.3912426,51.2583458 70.2737617,51.688761 68.2440552,51.688761 L67.8406973,51.688761 C59.4172693,51.688761 70.1910484,39.2916758 71.4407076,37.7946158 C72.5680677,36.4432539 81.4477734,24.3937154 81.4477734,23.6055254 C81.4477734,23.3205997 81.1700482,23.1980713 80.8394032,23.1980713 L80.0295623,23.1980713 C74.8623736,23.1980713 63.0239466,28.1497248 59.4270616,30.2362575 C55.0534627,32.7667733 46.9175521,39.2154869 46.9175521,45.581332 L46.9175521,46.6014286 C46.9175521,53.4807662 53.1623062,54.8452784 59.1891304,55.8753943 C64.9678146,56.8656416 70.7367065,59.0152128 75.8443082,60.7606696 C80.9354507,62.4996556 85.0611178,66.9311371 83.1537103,73.9528331 C81.6096582,79.6530167 78.0923614,83.2533084 74.561522,86.9099591 C71.5102951,90.0595881 66.8456369,94.5342782 63.2883376,97.1906622 C61.2023777,98.747421 59.3939345,100.476179 57.2815146,101.953409 C55.278268,103.35445 52.8945816,104.950869 50.9805071,106.428099 C49.0960177,107.882159 46.4977349,109.217031 44.3984408,110.621203 C42.5008256,111.889905 39.6577364,113.565853 37.4957301,114.483251 C36.2989908,114.990064 35.0889173,115.685575 33.8359246,116.112859 C32.6327265,116.520104 30.8574104,117.053427 29.7896373,117.55356 C28.7481157,118.040334 22.4537752,119.656792 21.1214027,119.656792 L16.6584859,119.656792 C14.5294817,119.656792 11.9244277,118.494128 10.7078538,117.474031 C9.47144543,116.437444 7.71600552,114.194985 7.71600552,112.124943 L7.71600552,109.074464 C7.71600552,104.328207 11.9640968,98.4293062 14.1790646,95.6042628 C16.8370176,92.2124991 21.1247362,88.5527174 24.5364017,85.8366346 C27.736596,83.2864976 32.7152315,79.742356 36.4212899,77.8015216 C38.6593424,76.6290472 47.9655324,71.6310541 50.3721368,71.6310541 L50.5738157,71.6310541 C51.6713824,71.6310541 57.8996772,73.7409653 58.2932427,74.274079 C58.0517697,74.6020045 41.7305705,83.91897 39.3072984,85.7771447 C35.6543683,88.5856978 24.7778747,96.6176798 24.7778747,101.950278 C24.7778747,104.762171 27.2340655,106.630156 30.0606954,106.630156 L32.0904019,106.630156 C34.4838806,106.630156 41.9189153,103.132563 43.8727839,102.155466 C47.5290476,100.32401 50.825081,98.2107588 53.9723554,95.7896211 C57.952597,92.7324624 68.4488593,83.4587054 68.4488593,77.3278979 L68.4488593,75.7016297 C68.4488593,72.101338 64.8984354,69.0675579 62.2138974,67.9048941 C58.8386925,66.444363 54.8286574,65.8315118 51.2119795,64.6822072 C49.853147,64.251792 47.1356903,63.3573549 45.8860311,63.0991476 C43.7338172,62.6520334 42.5404114,61.9001636 40.7388437,61.1315948 C39.2610456,60.5055933 37.4361432,59.3928176 36.4046222,58.352891 C34.6393067,56.574245 34.7518135,55.9845637 33.5152801,54.1299375 C33.5152801,52.7322361 33.1054636,53.0434626 33.1054636,52.0962152 L33.1054636,50.2645501 C33.1054636,48.2176774 35.1318366,43.7530067 35.9518864,42.3287958 C37.3238447,39.964017 38.9568605,38.1588614 40.695716,36.0921587 C43.8396569,32.3659987 49.2349845,29.8388227 53.5392041,27.1857784 C61.1527913,22.5025604 75.7980554,18.3126708 88.1488052,18.3126708 L91.4019194,18.3126708 C93.7722716,18.3126708 96.4797277,18.8658023 96.4797277,21.164349 L96.4797277,21.9759175 C96.4797277,24.1584691 93.229947,26.7319847 91.9573698,28.0271963 C90.1555937,29.8586527 88.7075892,31.726638 87.0810321,33.7271712 C85.4313486,35.7608935 84.1883565,37.7614266 82.6147193,39.8314691 C80.9817035,41.9810403 79.8674691,44.2034607 78.3996717,46.3960316 Z M173.256264,47.0088828 C173.120631,40.7887359 170.667773,37.2381235 164.317179,37.2381235 C162.283931,37.2381235 158.59454,39.1722784 157.139869,40.0170361 C155.807704,40.7920757 152.55459,44.2896689 151.443898,44.5445365 L152.538131,39.6824311 C156.693592,37.4798407 161.7814,36.0854791 166.432933,34.270513 C171.351981,32.3495085 176.102687,31.1536556 181.206955,29.534067 C186.136212,27.9708374 191.518206,26.9407215 196.440588,25.4668312 C199.058872,24.6817722 209.892446,21.9759175 212.457185,21.9759175 C212.127999,23.4001284 210.590405,25.9007949 209.992452,27.4441945 C208.97364,30.074069 207.951912,29.8720118 204.533579,30.113729 C202.483871,30.2594273 201.121914,32.8496418 199.829127,33.3364159 C197.832339,34.0949653 195.558034,34.3930414 193.504993,35.1415715 C189.435371,36.6221413 186.053499,38.1887108 182.721005,40.4111311 C181.306127,41.3550388 173.864634,46.8464856 173.256264,47.0088828 Z M215.503204,31.1338256 C216.26575,27.8581195 222.982824,18.8094851 223.020327,17.2958514 C220.980619,17.2958514 216.553267,18.3756049 214.696905,18.518026 C212.513439,18.6869358 208.292349,19.4089771 206.318688,19.8958556 C203.733531,20.53841 200.900234,20.7735729 198.364663,21.4922744 C195.924932,22.1844455 192.810784,22.8402964 190.476684,23.3571287 C185.127818,24.5494331 180.215228,25.844436 174.962201,27.1461184 C172.383502,27.7852704 161.381376,30.6503912 160.026086,31.4254308 L155.814372,32.4421876 L142.30626,36.5889522 L142.382306,36.8340092 L141.774144,36.8340092 C140.587197,36.8340092 135.968792,38.7550136 134.339109,39.1524484 C132.451286,39.6129217 128.286034,41.5140962 126.946994,41.5140962 C126.63635,42.2791164 122.014611,43.2860626 120.913711,43.8127054 C118.94005,44.7599529 116.771376,45.3162363 114.797923,46.2271636 C112.60279,47.2374495 104.126234,50.1288712 103.316393,51.8246487 C101.865055,54.8617686 94.6514917,74.2509092 94.6514917,77.3278979 C94.6514917,77.6128236 94.9258833,77.735352 95.2631955,77.735352 C95.2631955,77.735352 109.266962,65.020152 110.74476,63.7449791 C113.852241,61.0654253 111.997753,62.7810327 113.604309,59.2834395 C114.232472,57.9189273 114.830842,54.5572217 115.617765,53.7688229 C115.984662,53.4045773 125.370023,49.2444535 125.928807,49.2444535 L126.540511,49.2444535 C127.013248,49.2444535 127.350352,49.5823983 127.350352,50.0593619 L127.350352,50.8740614 C127.350352,50.8740614 123.872641,60.0553481 123.489076,61.0455953 C122.89404,62.5856551 120.242629,70.3260318 120.242629,71.8331113 C120.242629,72.118037 120.520354,72.2405654 120.850999,72.2405654 C121.472495,72.2405654 125.687543,68.1798004 126.540511,67.5604784 C127.185133,67.0901945 128.619804,65.8315118 129.26776,65.2055103 C130.983489,63.5594121 130.477833,64.4371502 131.248088,61.9001636 C132.04147,59.2967987 132.795266,56.5709052 133.674486,53.9510501 C134.170558,52.47382 136.187138,47.4161282 136.289645,46.1939744 C138.246638,45.7370497 143.787391,43.3455525 145.430408,43.3455525 L146.445261,43.3455525 C146.574227,43.8888943 146.64694,43.7264971 146.64694,44.1571211 C146.64694,45.640822 144.703072,49.7612858 144.213876,51.4867039 C143.843645,52.7852553 141.975823,58.0481353 141.975823,59.011873 L141.975823,59.2172699 C141.975823,59.9956493 141.916236,59.2901191 142.180627,59.8267813 C144.279921,59.2669493 157.596146,42.9383071 163.50713,42.9383071 L164.928675,42.9383071 C166.548565,42.9383071 166.608152,44.0876117 167.365073,44.3625181 L167.365073,47.0088828 C167.365073,48.3667154 164.776582,55.5374495 164.174879,57.2432464 C163.867569,58.1209845 160.664041,67.5604784 161.880573,67.5604784 C162.393104,67.5604784 170.909038,61.184614 171.295936,60.508933 C173.457943,56.7232831 175.41827,53.8946912 178.383658,50.9237408 C182.684753,46.6147878 192.575978,40.0898852 200.880441,40.0898852 C202.639298,37.4533311 201.938422,37.7449364 205.472386,36.7544805 C207.303956,36.2411968 210.315389,35.6118554 212.457185,35.6118554 L213.065556,35.6118554 L213.065556,36.6286122 C213.065556,36.6584615 208.285682,48.0222998 207.826279,48.8768681 C207.333541,49.7909264 203.115368,61.2111235 203.115368,61.8636347 L203.115368,62.473146 C203.915208,62.4067677 207.141863,60.2141967 208.031083,59.6643841 C208.702791,59.2504591 212.759287,57.0180194 212.928047,56.839132 C212.928047,56.839132 215.119847,52.2022535 215.436533,51.6192517 C216.028235,50.5329856 217.911683,47.7473934 218.699231,46.9525238 C221.943178,43.6901769 223.026577,42.474494 227.122659,39.9241482 C229.454051,38.4767675 235.241902,36.0193096 238.862955,36.0193096 C240.340128,36.0193096 241.096424,36.8836885 241.096424,38.2582201 L241.096424,40.0898852 C241.096424,41.3683979 237.694134,47.1412219 236.881585,48.0753189 C234.941884,50.3077586 233.556383,52.6328774 231.397919,54.7922593 C229.160283,57.0313785 227.431011,58.5449288 224.993363,60.585122 C224.126644,61.3104822 217.942935,65.1691901 217.942935,65.7288133 L217.942935,66.7457788 C217.942935,68.3023289 219.380522,70.4089003 220.98687,70.4089003 L221.397311,70.4089003 C223.724536,70.4089003 229.622811,64.3046024 231.870864,62.7943919 C233.152192,61.9364838 241.331855,55.6501674 242.006896,54.8385988 C243.271556,53.3116894 245.607114,44.2464604 246.786353,41.5140962 C248.398951,37.7812566 246.838439,38.3475594 250.926187,36.7081409 C251.592895,36.4365744 257.524505,34.1876445 257.547423,34.1876445 L258.157876,34.1876445 C259.639216,34.1876445 256.905717,39.4340343 256.611949,40.1660741 C256.095251,41.4677566 254.397231,45.640822 254.297225,46.8034858 C255.445212,46.7769762 256.426521,45.0415388 257.022391,44.2399896 C257.434916,43.6868372 259.132936,41.8518323 259.660051,41.3882279 C260.62886,40.5403392 261.228896,39.5830724 262.276877,38.7218245 C263.318606,37.8607853 264.218661,37.0757263 265.214555,36.1683476 C267.39177,34.1843047 275.533931,28.2854037 279.077896,28.2854037 L279.892529,28.2854037 C280.575904,28.2854037 281.313449,28.6465183 281.313449,29.3023692 L281.313449,29.7096146 C281.313449,30.5410132 277.677811,38.3078995 277.021522,40.0633757 C275.815198,43.3159119 274.917227,48.4330937 270.750308,48.4330937 C268.906446,48.4330937 266.687561,46.9095241 266.687561,45.1772177 L266.687561,44.7697635 C266.687561,42.7130801 267.910552,41.0371327 267.910552,39.0697887 C265.170802,39.1326184 255.266034,53.407917 253.365919,56.2463196 C252.363775,57.7367001 251.230373,59.6842141 250.442825,61.254332 C249.728198,62.6752032 248.559377,65.0863216 247.717659,66.4608532 C246.792603,67.9712724 245.930051,70.1638434 245.215424,71.89281 C244.329954,74.0521918 244.290368,75.9036869 241.29852,75.9036869 C235.996114,75.9036869 240.892245,64.8312452 240.892245,61.8636347 L240.892245,61.6582377 C240.892245,59.9658 238.006653,62.6883536 237.585794,63.0262984 C236.458642,63.9272063 235.404412,64.705377 234.296011,65.6327944 C232.383395,67.232553 229.651979,69.7630688 227.753947,71.0845812 C224.480832,73.3700401 217.942935,80.7891709 213.673926,80.7891709 L213.271818,80.7891709 C210.240384,80.7891709 209.002809,77.2748787 209.002809,74.274079 L208.854883,70.7931847 L209.815358,64.5066596 C208.529864,64.5365089 204.252521,67.9844228 203.115368,68.7826322 C199.217632,71.5118654 200.153105,70.7865051 198.569676,75.4200439 C196.486841,81.521002 195.230723,86.2507684 192.483473,91.709026 C189.782475,97.084624 187.405664,100.986332 183.987332,105.58021 C182.010337,108.236594 175.778709,115.788273 171.834719,115.788273 L171.223224,115.788273 C169.404988,115.788273 167.771764,114.049287 167.771764,112.33034 L167.771764,111.51564 C167.771764,105.222435 169.672713,100.264311 171.457821,95.6704324 C173.33231,90.8513267 176.165399,87.5823002 179.025156,83.7169128 C180.856517,81.2427559 186.81042,76.40716 189.643717,74.8205519 C191.025468,74.048852 192.086782,69.6372005 192.509933,67.9247241 C192.820577,66.6629104 194.98925,60.9295376 194.98925,60.4394237 C194.98925,60.1413476 194.738193,60.1380078 194.582767,60.0319695 C193.875224,60.5488018 189.805602,65.7488521 188.843668,66.8981567 C187.560882,68.4248574 184.162551,72.1741872 182.727672,73.3865303 C179.907709,75.7646683 172.436422,84.4489526 168.584938,84.4489526 C165.88415,84.4489526 165.130354,82.3954003 165.130354,79.7688656 L165.130354,78.1425975 C165.130354,75.5659509 166.710658,71.9193196 166.756911,69.799389 C164.793042,69.8425975 160.611121,76.3078013 159.411048,77.9042201 C158.654127,78.9111662 156.832558,81.6303801 155.999383,82.2198527 C154.363033,83.3791767 151.523278,83.8131404 151.523278,80.9910194 L151.523278,78.7521088 C151.523278,76.6820663 153.543192,67.2194026 154.161355,65.5236251 C154.538252,64.4834898 157.817618,53.447577 157.817618,53.3150292 L157.817618,52.9077838 C157.817618,52.4406309 157.67886,52.2982724 157.209456,52.2982724 L156.197728,52.2982724 C156.131682,52.5268392 149.622329,58.992043 148.832281,59.7771019 C146.524641,62.0623521 144.147622,65.4770768 142.144375,68.1368006 C139.906322,71.1010714 132.272942,85.2636522 129.178588,85.2636522 L128.570218,85.2636522 C127.932262,85.2636522 127.0495,84.028348 126.973454,83.4023465 L128.976909,71.2235999 C125.687543,71.4985062 111.736487,90.1491362 110.288483,90.1491362 L109.273629,90.1491362 C108.063764,90.1491362 107.650406,88.0724141 107.650406,86.6878632 L107.650406,85.0618038 C107.650406,83.9521591 108.67526,78.8316375 108.986112,77.4437468 C109.429055,75.4465534 110.496829,71.7834319 110.496829,69.799389 C108.473581,69.8425975 99.769094,78.9773358 98.5129761,80.7891709 C97.851686,81.7428892 96.5953597,82.8425145 95.8682322,83.8394413 C95.1144365,84.872897 94.2252158,86.0288812 93.4151666,87.0788271 C92.3771869,88.41349 89.6397291,92.9975581 87.748781,92.9975581 C86.0330518,92.9975581 85.305716,91.5998567 85.305716,89.9437392 L85.305716,88.9269824 C85.305716,84.1707065 86.5057888,76.672047 87.5041828,72.8102081 C88.1521388,70.2796923 88.6480022,67.8552148 89.2463719,65.4010966 C89.5605576,64.1125646 90.0430869,62.847411 90.3506056,61.8273145 C90.6085379,60.9727461 91.5935977,58.6077586 90.5885367,58.6077586 C89.6728561,58.6077586 88.2381857,59.8896111 86.5255817,60.0319695 C85.9967996,59.6744035 83.0743305,57.1637177 83.0743305,56.5709052 L83.0609964,55.9348843 L95.0548495,50.2645501 C95.5442542,48.184697 98.2483767,41.5967559 99.2534377,39.6129217 C100.222038,37.6983881 103.84205,31.0277873 104.195821,29.5075575 C104.764397,29.4578781 109.286964,27.6792321 109.954712,27.341496 C110.665381,26.9803814 115.445879,25.4369818 116.179674,25.4369818 C116.464066,25.4369818 116.586365,25.7152279 116.586365,26.0464932 C116.586365,26.2982297 107.243714,41.7359834 107.243714,43.3455525 C107.243714,44.498197 110.318276,42.7692303 111.138118,42.3619849 C112.454031,41.7161534 114.034127,41.0569627 115.363166,40.4906598 C118.011243,39.3678648 121.455827,37.8144457 124.189952,36.9202174 C130.279488,34.9294949 136.203598,32.5546967 142.402099,30.544353 C148.379337,28.6099894 154.872023,26.2418708 161.150112,24.7018109 C164.611364,23.8539222 167.447786,23.0060334 170.740486,22.1017858 C173.748794,21.2770668 177.471311,19.9256841 180.377113,19.342745 C183.742734,18.670383 186.684996,17.7098807 190.238753,17.0143281 C193.643751,16.348583 196.797693,15.3880808 200.318532,14.702464 C207.264162,13.3411872 213.611422,11.9964841 220.951451,10.7477999 C223.599528,10.2973669 228.943603,9.75749009 231.431254,9.03876766 C234.6627,8.10473325 238.852538,8.23060152 242.396503,7.61123779 C245.967553,6.98525711 250.092803,7.25684452 253.609684,6.63416187 C256.661952,6.0942851 261.847684,5.90218466 265.266641,5.90218466 L266.485465,5.90218466 L266.485465,6.51161252 C265.391649,6.60103535 254.743086,11.2280615 253.04715,11.9766124 C248.859395,13.8214488 244.215363,15.8915122 240.204703,18.0311475 C235.983614,20.2833754 231.9167,22.1911251 227.760198,24.4863946 C225.968422,25.4768505 216.676191,31.107316 215.503204,31.1338256 Z M119.634467,30.7265802 C119.240901,30.7265802 118.821084,30.3654656 118.821084,30.1170688 C118.821084,28.0800067 126.13382,18.6737019 126.13382,17.093815 L126.13382,16.279032 C126.13382,14.2354573 116.913677,17.4482083 115.935075,17.6601805 C113.495344,18.1868234 107.181002,20.5516648 105.41902,20.5516648 C104.526258,20.5516648 103.878302,18.0013399 103.557657,17.1236227 C103.018875,15.6431154 102.638643,14.9475628 101.273352,14.1195458 C99.5542893,13.0795357 95.4384145,11.8010648 92.8267976,11.8010648 L85.305716,11.8010648 C74.3500509,11.8010648 54.7855298,18.6471923 48.2201312,23.0755428 C47.1554832,23.7908837 45.6249736,24.6686218 44.5174064,25.2681138 C43.1619074,26.0001536 42.1701806,26.8843625 40.9436478,27.7952898 C38.5370433,29.5837464 36.5600483,31.4385813 34.4774219,33.525114 C31.1184679,36.8937079 26.6059023,43.2860626 26.6059023,49.8573047 L26.6059023,50.6686645 C26.6059023,54.8552978 28.8408297,58.8728543 31.1284686,60.7938587 C32.6127253,62.0425221 33.6575804,62.8209015 35.4062283,63.8309787 C37.0625788,64.7882455 38.5932967,65.4109072 38.5932967,67.9679326 L38.5932967,68.5772352 C38.5932967,69.8987477 33.8690516,72.2439052 32.6260595,72.7736791 C30.2292473,73.7906447 28.1962072,75.1088173 26.1596252,76.4733296 C22.351269,79.0236754 17.9147497,82.2332119 14.7741215,85.4160301 C9.60697449,90.6526093 0,101.651993 0,111.51564 C0,116.632822 3.16706269,120.604039 5.84155839,123.160856 C8.31106248,125.519164 13.9509465,128 18.6850256,128 C31.657459,128 45.581846,119.05062 53.8665156,113.797551 C58.0021834,111.174356 64.227353,106.31559 67.5860985,102.917355 C69.6622663,100.820803 71.8903182,99.0156478 73.9829452,96.9157559 C75.0475932,95.8493198 76.0426536,95.060921 77.1335532,93.9646355 C77.976521,93.1200866 79.2261802,91.1957423 80.6345991,91.165893 C80.7006447,91.950952 82.1717757,96.3394337 82.5420065,97.194002 C83.2824681,98.8997989 84.4329547,101.138709 86.7272606,101.138709 L87.3389644,101.138709 C90.3174786,101.138709 94.3177214,96.8925861 96.0203248,95.1867893 C97.1112243,94.0938436 102.67177,87.774338 103.177634,87.5125821 L103.78913,87.7048287 L103.78913,88.7249253 C103.78913,92.679652 105.372559,98.4923447 109.07195,98.4923447 C115.253992,98.4923447 119.240901,87.9100169 121.664173,87.9100169 L122.272544,87.9100169 C124.778321,87.9100169 124.49747,93.6068607 129.585071,93.6068607 C134.382029,93.6068607 136.600288,87.9596963 138.871468,85.0054448 C140.081541,83.4355356 145.321234,74.7808919 146.481722,74.4828158 L146.240457,78.3446547 L146.240457,80.1763198 C146.240457,85.4227096 147.169263,90.5565904 152.336452,90.5565904 L153.146501,90.5565904 C155.940004,90.5565904 159.424382,87.3007143 160.052545,87.3007143 L160.664041,87.3007143 C161.169905,87.3007143 165.123687,92.3020472 166.95859,92.7955009 C166.809831,94.6436562 164.809709,98.7639112 164.274052,100.886973 C163.679016,103.258431 162.492277,107.239668 162.492277,110.091429 L162.492277,114.771308 C162.492277,118.543807 164.416352,123.52197 167.973443,123.52197 L170.208162,123.52197 C173.381896,123.52197 180.122722,118.480977 182.036797,116.649312 C185.808901,113.03921 187.726309,110.793411 190.89671,106.596967 C193.627292,102.976845 195.733253,99.0354778 197.832339,94.8292232 C198.496963,93.5010312 203.406219,82.0079849 203.925209,82.0079849 C205.793031,82.0079849 207.449381,88.3174711 212.055078,88.3174711 L212.86346,88.3174711 C214.823996,88.3174711 221.803586,83.2963082 223.278676,82.0643438 C224.676677,80.8983402 231.460422,74.6815332 232.768835,74.6815332 L232.970931,74.6815332 C235.894025,74.6815332 235.523169,77.6954833 236.064869,80.13332 C236.458642,81.931796 238.465014,84.2468954 240.48597,84.2468954 L241.502699,84.2468954 C246.686347,84.2468954 250.842849,73.1613033 253.242995,69.348935 C254.449318,67.4312704 262.151869,52.7057266 263.237351,52.7057266 L263.643626,52.7057266 C264.758277,52.7057266 267.808462,54.3319947 268.923113,54.3319947 L271.764953,54.3319947 C274.563039,54.3319947 278.613285,52.2552726 279.690434,50.4666073 C280.648825,48.8701885 281.838481,43.6304782 282.492687,41.4742274 C283.515666,38.1290121 284.146954,35.7045345 285.459534,32.6442448 C286.461678,30.3057668 288.828488,26.7584943 288.828488,24.0127708 C288.828488,22.3103138 287.42007,21.3664061 285.578291,21.3664061 L284.763658,21.3664061 C282.384347,21.3664061 277.309039,23.1383725 275.213079,23.8042428 C273.610898,24.3141867 268.000141,27.8781583 267.098003,27.8781583 C266.750065,27.8781583 266.33754,27.606383 266.208365,27.4508741 L265.474987,23.4001284 L264.454092,23.4001284 C263.887391,23.4001284 257.328659,26.1556625 256.46194,26.5862864 C255.501465,27.0665897 249.123995,30.1170688 248.611464,30.1170688 L247.798914,30.1170688 C247.525981,30.1170688 241.8048,28.7821972 240.617228,28.5669896 C238.965045,28.2622339 233.927239,28.0833465 232.158381,28.0833465 C231.912533,27.7157611 231.75419,27.7257804 231.75419,27.2686469 C231.75419,25.824606 256.061916,15.2423408 259.270444,13.728707 C263.891558,11.5460302 269.437728,10.1946892 274.063009,7.9987576 C275.967291,7.09455168 279.515423,5.9949264 281.540546,5.31594745 C282.734368,4.91517286 289.032668,3.40815604 289.032668,2.44103686 L289.032668,2.23897967 C289.032668,0.496816712 286.801282,0.818091817 285.157432,0.625989284 C283.521916,0.433886752 281.369702,0.437199405 279.680016,0.414015012 C276.163136,0.364331487 272.592086,0 268.721018,0 L263.845722,0 C249.703196,0 236.74616,2.19923619 224.524585,4.35874327 C212.213421,6.53148426 200.239152,9.24080397 188.374265,11.8904876 C176.410205,14.560043 165.137021,17.9085981 153.602571,20.8033805 C147.946186,22.2209745 142.296468,24.2943567 136.699461,25.8477758 C133.839912,26.6459851 121.591461,30.7265802 119.634467,30.7265802 Z" id="Shape" fill="#030303"></path>
                <path d="M179.151413,105.412386 L178.741388,105.412386 C177.627362,105.412386 176.708348,103.888816 176.708348,102.563964 L176.708348,100.527111 C176.708348,97.5628399 179.911668,90.4451249 181.28696,88.62995 C182.688711,86.7784549 187.098771,80.4357796 189.505375,80.3827604 L189.505375,81.6017831 C189.505375,84.0262607 186.364768,92.3262607 185.535134,94.714418 C184.629246,97.2879336 181.822617,105.412386 179.151413,105.412386 Z M175.69662,68.1710335 C175.69662,62.1066042 180.22252,56.3899305 182.883723,52.786299 C183.977956,51.3090689 187.416082,48.5435155 189.065765,47.5829089 C190.480643,46.7581899 194.973416,44.3635617 197.01979,44.3635617 L197.426481,44.3635617 C198.163609,44.3635617 198.140483,44.6054877 198.848026,44.7710159 C198.900946,45.4068281 199.053038,45.4930364 199.053038,46.1952269 C199.053038,49.189347 180.552957,70.2080956 178.129893,70.2080956 L176.913152,70.2080956 C176.076852,70.2080956 175.69662,69.0884316 175.69662,68.1710335 Z M217.942935,60.033222 C217.942935,57.8936701 221.874424,50.9646532 222.984908,49.4112342 C223.966217,48.0333628 229.266539,41.5151399 230.737462,41.5151399 L231.554178,41.5151399 C232.522987,41.5151399 232.970931,42.2041799 232.970931,43.141408 L232.970931,44.1581648 C232.970931,48.0333628 221.434814,60.6427333 218.34921,60.6427333 C218.061692,60.6427333 217.942935,60.3644872 217.942935,60.033222 Z M215.503204,31.135078 C216.676191,31.1085684 225.970506,25.4778942 227.762281,24.487647 C231.9167,22.1923775 235.983614,20.2845235 240.204703,18.0322955 C244.215363,15.8926602 248.859395,13.8225968 253.049233,11.9777604 C254.745169,11.2292095 265.393732,6.6021834 266.487549,6.51276057 L266.487549,5.90333271 L265.266641,5.90333271 C261.849767,5.90333271 256.661952,6.09543315 253.609684,6.63530992 C250.092803,7.25799257 245.967553,6.98640516 242.396503,7.61238585 C238.852538,8.23174958 234.664784,8.10590218 231.431254,9.03991571 C228.945686,9.75863814 223.599528,10.2985149 220.951451,10.7489688 C213.611422,11.9976322 207.264787,13.3423353 200.319157,14.7036121 C196.798318,15.3892289 193.644377,16.349752 190.239378,17.0154761 C186.685621,17.7110288 183.743359,18.671531 180.377738,19.343893 C177.471936,19.9268322 173.749419,21.2781105 170.741111,22.1028294 C167.448411,23.0070771 164.611989,23.8549659 161.150737,24.7028546 C154.872648,26.2431232 148.379962,28.6112418 142.402724,30.5453966 C136.204223,32.5559492 130.280113,34.9307473 124.190577,36.9212611 C121.456661,37.8154894 118.011868,39.3689084 115.363791,40.4917035 C114.034752,41.0580063 112.454656,41.717197 111.138743,42.3630286 C110.318901,42.7704828 107.24434,44.4994494 107.24434,43.346805 C107.24434,41.737027 116.58699,26.2992734 116.58699,26.0475368 C116.58699,25.7164803 116.464691,25.4382342 116.180299,25.4382342 C115.446504,25.4382342 110.666006,26.9816339 109.955337,27.3427485 C109.287589,27.6804845 104.765022,29.4591305 104.196446,29.5088099 C103.842675,31.0290397 100.222663,37.6996405 99.2540628,39.6139654 C98.2490018,41.5980084 95.5448793,48.1857407 95.0554745,50.2658025 L83.0616214,55.9361367 L83.0749555,56.5719489 C83.0749555,57.1649701 85.9974246,59.6754471 86.5262067,60.033222 C88.2388107,59.8908635 89.6734811,58.609011 90.5891617,58.609011 C91.5942227,58.609011 90.6091629,60.9737898 90.3512306,61.8283581 C90.0437119,62.8484547 89.5611827,64.113817 89.2469969,65.4021403 C88.6486273,67.8564672 88.1527638,70.2809447 87.5048078,72.8112518 C86.5064139,76.6732994 85.306341,84.1719589 85.306341,88.9280261 L85.306341,89.9449916 C85.306341,91.6009004 86.0336768,92.9986018 87.749406,92.9986018 C89.6403541,92.9986018 92.377812,88.4147424 93.4157917,87.0798708 C94.2258408,86.0299249 95.1150615,84.8741494 95.8688573,83.8406937 C96.5961931,82.8437669 97.852311,81.7441416 98.5136012,80.7902146 C99.7697191,78.9785882 108.474206,69.8436412 110.497454,69.8006414 C110.497454,71.7846844 109.429681,75.4478058 108.986737,77.4449992 C108.675885,78.8326812 107.651031,83.9532028 107.651031,85.0628474 L107.651031,86.6891156 C107.651031,88.0736665 108.064389,90.1501799 109.274254,90.1501799 L110.289108,90.1501799 C111.737112,90.1501799 125.688168,71.4997587 128.977534,71.2248523 L126.974079,83.4033902 C127.050125,84.0293917 127.932887,85.2649046 128.570843,85.2649046 L129.179213,85.2649046 C132.273567,85.2649046 139.906947,71.1023239 142.145,68.1380531 C144.148247,65.4783292 146.525266,62.0636045 148.832906,59.7781456 C149.622954,58.9932954 156.132307,52.5278828 156.198353,52.2995248 L157.210081,52.2995248 C157.679485,52.2995248 157.818243,52.4418833 157.818243,52.9088274 L157.818243,53.3162816 C157.818243,53.4486207 154.538877,64.4847422 154.16198,65.5246688 C153.543817,67.2204463 151.523903,76.68311 151.523903,78.7533613 L151.523903,80.9922718 C151.523903,83.8141841 154.363658,83.3802204 156.000008,82.2211051 C156.833183,81.6314238 158.654752,78.9122099 159.411673,77.9054725 C160.611746,76.308845 164.793667,69.8436412 166.757536,69.8006414 C166.711283,71.9203633 165.130979,75.5669945 165.130979,78.1438499 L165.130979,79.770118 C165.130979,82.3966527 165.884775,84.450205 168.585564,84.450205 C172.437047,84.450205 179.908334,75.7657119 182.728297,73.387574 C184.163176,72.1754396 187.561507,68.4261098 188.844293,66.8992004 C189.806227,65.7498957 193.875849,60.5498455 194.583392,60.033222 C194.738818,60.1392602 194.990083,60.1426 194.990083,60.4406761 C194.990083,60.93079 192.821202,66.663954 192.510558,67.9259765 C192.087407,69.6382442 191.026093,74.0501045 189.644342,74.8218043 C186.811253,76.4082037 180.857142,81.2440083 179.025781,83.7181652 C176.166024,87.5833439 173.332935,90.8523704 171.458446,95.6714761 C169.673338,100.265355 167.772389,105.223688 167.772389,111.516684 L167.772389,112.331383 C167.772389,114.050539 169.405613,115.789317 171.223849,115.789317 L171.835344,115.789317 C175.779334,115.789317 182.010962,108.237638 183.987957,105.581463 C187.406289,100.987584 189.7831,97.0858764 192.484098,91.7102785 C195.231348,86.2518121 196.487466,81.5222544 198.570301,75.4212963 C200.15373,70.7875488 199.218257,71.5129091 203.115993,68.7838846 C204.253146,67.9856752 208.531947,64.5377613 209.817442,64.507912 L208.854883,70.7942284 L209.002809,74.2753314 C209.002809,77.2761312 210.240384,80.7902146 213.271818,80.7902146 L213.676009,80.7902146 C217.942935,80.7902146 224.482915,73.3710838 227.753947,71.0856249 C229.651979,69.7641125 232.383395,67.2338054 234.298095,65.6340468 C235.404412,64.7066294 236.458642,63.92825 237.585794,63.0273421 C238.006653,62.689606 240.892245,59.9670524 240.892245,61.6594901 L240.892245,61.8648871 C240.892245,64.8324977 235.996114,75.9049394 241.29852,75.9049394 C244.290368,75.9049394 244.329954,74.0534443 245.217508,71.8938537 C245.930051,70.1648871 246.792603,67.9723161 247.719743,66.4621056 C248.559377,65.087574 249.730281,62.6762469 250.442825,61.2553757 C251.230373,59.6854665 252.363775,57.7379525 253.365919,56.2473633 C255.266034,53.4089607 265.170802,39.1338708 267.912635,39.0708323 C267.912635,41.0381763 266.689644,42.7141238 266.689644,44.7710159 L266.689644,45.1784701 C266.689644,46.9105678 268.906446,48.4341374 270.752391,48.4341374 C274.917227,48.4341374 275.817282,43.3169556 277.023605,40.0644193 C277.677811,38.3091519 281.313449,30.5420569 281.313449,29.7108671 L281.313449,29.3034129 C281.313449,28.647562 280.575904,28.2866561 279.892529,28.2866561 L279.07998,28.2866561 C275.536015,28.2866561 267.39177,34.1855571 265.214555,36.1693913 C264.218661,37.0769788 263.32069,37.861829 262.27896,38.7230769 C261.23098,39.584116 260.62886,40.5413828 259.660051,41.3892716 C259.135019,41.8530847 257.434916,43.6878808 257.022391,44.2410333 C256.426521,45.0425824 255.445212,46.7782286 254.297225,46.8045295 C254.397231,45.6420744 256.097335,41.4688003 256.611949,40.1671178 C256.905717,39.435078 259.6413,34.1886881 258.15996,34.1886881 L257.547423,34.1886881 C257.524505,34.1886881 251.592895,36.437618 250.926187,36.7093933 C246.840523,38.3488119 248.401034,37.782509 246.786353,41.5151399 C245.607114,44.2477128 243.273639,53.3129418 242.006896,54.8398512 C241.331855,55.6512111 233.154275,61.9377362 231.870864,62.7954356 C229.622811,64.3058548 223.724536,70.4101528 221.397311,70.4101528 L220.98687,70.4101528 C219.380522,70.4101528 217.942935,68.3035813 217.942935,66.7468225 L217.942935,65.7300657 C217.942935,65.1702337 224.128727,61.3117346 224.995446,60.5863744 C227.431011,58.5459725 229.160283,57.0324222 231.397919,54.7935117 C233.556383,52.6339211 234.941884,50.3088023 236.881585,48.0765713 C237.696218,47.1424743 241.098507,41.3694416 241.098507,40.0909289 L241.098507,38.2594725 C241.098507,36.8849409 240.340128,36.0203533 238.862955,36.0203533 C235.241902,36.0203533 229.454051,38.4780199 227.122659,39.9254007 C223.026577,42.4757464 221.943178,43.6912206 218.699231,46.9535675 C217.913767,47.7486459 216.028235,50.5340293 215.436533,51.6205041 C215.119847,52.2032972 212.928047,56.8403844 212.928047,56.8403844 C212.759287,57.0192718 208.702791,59.2515028 208.031708,59.6656365 C207.142488,60.2154492 203.916042,62.4080201 203.115993,62.4741897 L203.115993,61.8648871 C203.115993,61.2123759 207.334166,49.7921788 207.826904,48.8779118 C208.286307,48.0235522 213.067639,36.659714 213.067639,36.6298646 L213.067639,35.6128991 L212.459269,35.6128991 C210.315389,35.6128991 207.304581,36.2422404 205.473011,36.7557329 C201.939047,37.7459801 202.639923,37.4545836 200.881066,40.0909289 C192.576603,40.0909289 182.685378,46.6158314 178.384283,50.9249932 C175.418895,53.8959436 173.458568,56.7243268 171.296561,60.5101855 C170.909663,61.1858664 162.393729,67.5617309 161.881198,67.5617309 C160.664666,67.5617309 163.868194,58.1220281 164.175504,57.2444988 C164.777207,55.5387019 167.365698,48.3679678 167.365698,47.0099265 L167.365698,44.3635617 C166.608777,44.0886554 166.54919,42.9393508 164.9293,42.9393508 L163.507755,42.9393508 C157.596771,42.9393508 144.280546,59.2682017 142.181252,59.827825 C141.916861,59.2913715 141.976448,59.996693 141.976448,59.2185224 L141.976448,59.0131254 C141.976448,58.049179 143.84427,52.786299 144.214501,51.4879563 C144.703697,49.7623294 146.647565,45.6420744 146.647565,44.1581648 C146.647565,43.7277496 146.574852,43.889938 146.445886,43.346805 L145.431033,43.346805 C143.788016,43.346805 138.247263,45.7380933 136.29027,46.1952269 C136.187763,47.4173806 134.171183,52.4748637 133.675111,53.9520938 C132.795891,56.5719489 132.042095,59.2978423 131.248713,61.9012073 C130.478458,64.4384026 130.984114,63.5606646 129.268385,65.2067627 C128.620429,65.8327642 127.185758,67.0912382 126.541136,67.5617309 C125.688168,68.1810528 121.47312,72.2416091 120.851624,72.2416091 C120.520979,72.2416091 120.243254,72.1190807 120.243254,71.8343637 C120.243254,70.3272843 122.894665,62.5869075 123.489701,61.046639 C123.873266,60.0563917 127.350977,50.8753139 127.350977,50.8753139 L127.350977,50.0604055 C127.350977,49.583442 127.013873,49.2457059 126.541136,49.2457059 L125.929432,49.2457059 C125.370857,49.2457059 115.985287,53.4056209 115.61839,53.7700753 C114.831467,54.5582654 114.233097,57.9201797 113.604934,59.2846919 C111.998378,62.7822852 113.852866,61.0666777 110.745385,63.7460228 C109.267587,65.0211957 95.2638205,77.7363957 95.2638205,77.7363957 C94.9265084,77.7363957 94.6521167,77.6138673 94.6521167,77.3291503 C94.6521167,74.2521617 101.86568,54.863021 103.317018,51.8256924 C104.126859,50.1299149 112.603415,47.2384932 114.798548,46.228416 C116.772001,45.3174888 118.940675,44.7609966 120.914336,43.8137491 C122.015236,43.2871063 126.636975,42.2803688 126.947619,41.5151399 C128.286659,41.5151399 132.45212,39.6139654 134.339734,39.1537008 C135.969417,38.756266 140.587822,36.8352616 141.774769,36.8352616 L142.382931,36.8352616 L142.306885,36.5899959 L155.814997,32.4432313 L160.026711,31.4264745 C161.382001,30.6514349 172.384127,27.7865228 174.962826,27.1471621 C180.215853,25.8454796 185.128443,24.5504768 190.477309,23.3581724 C192.811409,22.8415489 195.925557,22.1856979 198.365288,21.4935268 C200.900859,20.7747209 203.734156,20.5395581 206.319313,19.8970246 C208.292974,19.4101252 212.515522,18.6880838 214.696905,18.519174 C216.555351,18.376753 220.980619,17.2969994 223.020327,17.2969994 C222.984908,18.8106541 216.267833,27.859372 215.503204,31.135078 Z" id="Shape" fill="#FFFFFF"></path>
                <path d="M78.3990467,46.3968666 C79.8668441,44.2040869 80.9808701,41.9816665 82.6140942,39.8320953 C84.1877314,37.7620528 85.4307236,35.7615197 87.080407,33.7280061 C88.7069641,31.7274729 90.1547604,29.8594876 91.9565364,28.0278225 C93.229322,26.7328196 96.4791026,24.1593041 96.4791026,21.9765437 L96.4791026,21.1651839 C96.4791026,18.866512 93.7714383,18.3133805 91.401086,18.3133805 L88.1481802,18.3133805 C75.797222,18.3133805 61.1521663,22.5031866 53.5385791,27.1866134 C49.2343594,29.8394489 43.8390319,32.3666249 40.695091,36.0927849 C38.9562354,38.1594876 37.3230113,39.9646432 35.951053,42.329422 C35.1312116,43.7536329 33.1046302,48.2185123 33.1046302,50.265385 L33.1046302,52.0970502 C33.1046302,53.0442976 33.5146551,52.7328623 33.5146551,54.1305637 C34.7509801,55.9853986 34.6386817,56.5748712 36.4039972,58.3535172 C37.4355181,59.3934438 39.2604206,60.5064282 40.7380103,61.1324298 C42.5397863,61.9007898 43.7331921,62.6526596 45.8854061,63.0997738 C47.1350653,63.3581899 49.8525219,64.2524182 51.2111461,64.6830421 C54.827824,65.8323468 58.8378591,66.4449892 62.2132724,67.905729 C64.897602,69.0681841 68.4482342,72.102173 68.4482342,75.7024647 L68.4482342,77.3285241 C68.4482342,83.4593316 57.951972,92.7332973 53.9717304,95.7902473 C50.824456,98.2115937 47.5284225,100.324636 43.8721589,102.156301 C41.9182903,103.133398 34.4832556,106.630991 32.0897769,106.630991 L30.0600704,106.630991 C27.2334404,106.630991 24.7770413,104.762797 24.7770413,101.950904 C24.7770413,96.618306 35.6535349,88.5865328 39.3066734,85.7777709 C41.7299455,83.9198049 58.0511447,74.6028394 58.2924093,74.274914 C57.8990521,73.7415915 51.6707573,71.631889 50.5731907,71.631889 L50.3715118,71.631889 C47.964699,71.631889 38.6587174,76.6296734 36.4204565,77.8023566 C32.7146065,79.743191 27.7359709,83.2871238 24.5357766,85.8374696 C21.1241112,88.5533436 16.83633,92.2133341 14.178377,95.604889 C11.9634092,98.4301411 7.71531798,104.329042 7.71531798,109.075299 L7.71531798,112.125778 C7.71531798,114.19582 9.47075788,116.438071 10.7071663,117.474657 C11.9237401,118.494963 14.5287941,119.657418 16.6577984,119.657418 L21.1207777,119.657418 C22.4531502,119.657418 28.7474907,118.041169 29.7888039,117.554186 C30.8567854,117.054053 32.6318932,116.520939 33.8352995,116.113485 C35.0882923,115.686201 36.2981574,114.99069 37.4948967,114.483877 C39.6571113,113.566479 42.5002006,111.890531 44.3978158,110.622038 C46.4969016,109.217657 49.0953927,107.882786 50.9798821,106.428934 C52.8939566,104.951704 55.2774346,103.355285 57.2808896,101.954244 C59.3933095,100.477014 61.2017526,98.7480472 63.2877126,97.1912884 C66.8448035,94.5351131 71.5094617,90.0604231 74.560897,86.9105853 C78.091528,83.2539346 81.6090332,79.6536429 83.1528769,73.9536681 C85.0604927,66.931972 80.9346173,62.5002818 75.8434749,60.7615045 C70.7358731,59.0160477 64.9671896,56.8664765 59.1882971,55.8760205 C53.1616812,54.8459046 46.9169271,53.4813924 46.9169271,46.6020548 L46.9169271,45.5819582 C46.9169271,39.2161131 55.0526293,32.7673995 59.4264365,30.2370924 C63.0233215,28.150351 74.8617486,23.1986975 80.0289373,23.1986975 L80.8387781,23.1986975 C81.1694232,23.1986975 81.4471484,23.3212259 81.4471484,23.6061516 C81.4471484,24.3943417 72.5674426,36.4438802 71.4400825,37.795242 C70.1904233,39.292302 59.4164359,51.689596 67.839864,51.689596 L68.2432218,51.689596 C70.2731367,51.689596 73.3906176,51.258972 75.033634,50.755499 C77.2850207,50.0666676 78.3990467,49.3446472 78.3990467,46.3968666 Z" id="Path" fill="#FFFFFF"></path>
                <path d="M175.696204,68.1681112 C175.696204,69.0855092 176.076435,70.2049645 176.912944,70.2049645 L178.129476,70.2049645 C180.552748,70.2049645 199.052622,49.1864247 199.052622,46.1923045 C199.052622,45.4901141 198.900529,45.4039058 198.847609,44.7680936 C198.140066,44.6023566 198.163193,44.3606394 197.426064,44.3606394 L197.019373,44.3606394 C194.972999,44.3606394 190.480434,46.7552676 189.065349,47.5799866 C187.415665,48.5405932 183.97754,51.3061466 182.883307,52.7833766 C180.222103,56.3870081 175.696204,62.1036819 175.696204,68.1681112 Z" id="Path" fill="#030303"></path>
                <path d="M179.15058,105.409672 C181.821784,105.409672 184.628412,97.2850112 185.534301,94.7114957 C186.364143,92.3233383 189.50475,84.0233384 189.50475,81.5988608 L189.50475,80.3800469 C187.097937,80.4328573 182.687878,86.7757413 181.286126,88.6270277 C179.910834,90.4422026 176.707515,97.5599176 176.707515,100.524188 L176.707515,102.56125 C176.707515,103.886103 177.626529,105.409672 178.740555,105.409672 L179.15058,105.409672 Z" id="Path" fill="#030303"></path>
                <path d="M217.942935,60.0330132 C217.942935,60.3642785 218.061692,60.6425246 218.34921,60.6425246 C221.434814,60.6425246 232.973014,48.0331541 232.973014,44.157956 L232.973014,43.1411993 C232.973014,42.2039712 232.522987,41.5149311 231.554178,41.5149311 L230.737462,41.5149311 C229.266539,41.5149311 223.966217,48.0331541 222.984908,49.4110255 C221.874424,50.9644445 217.942935,57.8934614 217.942935,60.0330132 Z" id="Path" fill="#030303"></path>
                <path d="M288.015939,13.6338153 C288.015939,11.9214433 288.372211,10.6297175 289.032668,9.56653769 C289.447276,8.90079265 291.245302,7.52957997 292.078686,7.52957997 L293.301677,7.52957997 C295.847665,7.52957997 298.170722,9.74538335 298.170722,12.2096044 L298.170722,13.431779 C298.170722,15.9125528 295.872666,18.1117825 293.301677,18.1117825 L292.891235,18.1117825 C290.445253,18.1117825 288.015939,15.7734298 288.015939,13.6338153 Z M286.186661,12.8223511 C286.186661,21.6987151 300,21.8379425 300,12.8223511 C300,8.91404744 296.622712,5.90333271 292.689139,5.90333271 C289.393106,5.90333271 286.186661,9.24195202 286.186661,12.8223511 Z" id="Shape" fill="#030303"></path>
                <path d="M290.249408,16.6866322 L292.078686,16.6866322 L292.078686,13.632876 C293.864211,13.6726195 293.432935,16.6866322 294.920525,16.6866322 L296.237272,16.6303359 L294.518417,13.4308188 C295.55598,13.3447149 296.345611,12.4901883 296.345611,11.393882 L296.345611,10.7844541 C296.345611,9.7808686 295.522645,8.9528516 294.518417,8.9528516 L290.249408,8.9528516 L290.249408,16.6866322 Z" id="Path" fill="#282603"></path>
            </g>
            <path d="M210.3182,121 C209.261703,121 208.442696,120.734412 207.865617,120.203235 C207.288539,119.649994 207,118.886529 207,117.912841 L207,100.087159 C207,99.0691381 207.288539,98.3056735 207.865617,97.7967653 C208.442696,97.2655884 209.261703,97 210.3182,97 C211.401332,97 212.218119,97.2655884 212.770783,97.7967653 C213.347861,98.3056735 213.6364,99.0691381 213.6364,100.087159 L213.6364,107.323626 L213.707425,107.323626 L222.472357,98.4274356 C222.92958,97.9849245 223.408999,97.6419068 223.915052,97.3983826 C224.443301,97.1327942 225.031477,97 225.6818,97 C226.691687,97 227.413035,97.2435242 227.845843,97.7303682 C228.303067,98.1951479 228.507264,98.748389 228.458434,99.3900915 C228.434019,100.00973 228.158797,100.585035 227.628329,101.116212 L218.90113,109.647321 L218.90113,107.157736 L228.061138,116.684597 C228.687046,117.326504 229,117.99027 229,118.676306 C229,119.340277 228.746973,119.893518 228.24314,120.336029 C227.761501,120.778744 227.040153,121 226.079096,121 C225.260089,121 224.598668,120.856174 224.094835,120.568521 C223.613196,120.2586 223.084948,119.805056 222.507869,119.207482 L213.707425,110.145197 L213.6364,110.145197 L213.6364,117.912841 C213.6364,118.886529 213.358959,119.649994 212.806295,120.203235 C212.253632,120.734412 211.423527,121 210.3182,121 Z" id="Path" fill="#030303" fill-rule="nonzero"></path>
            <path d="M236.5,121 C235.702341,121 235.086957,120.734412 234.652174,120.203235 C234.217391,119.649994 234,118.875497 234,117.879745 L234,100.12046 C234,99.1024388 234.217391,98.3279421 234.652174,97.7967653 C235.086957,97.2655884 235.702341,97 236.5,97 C237.314381,97 237.931438,97.2655884 238.347826,97.7967653 C238.782609,98.3279421 239,99.1024388 239,100.12046 L239,117.879745 C239,118.875497 238.79097,119.649994 238.374582,120.203235 C237.958194,120.734412 237.332776,121 236.5,121 Z" id="Path" fill="#030303" fill-rule="nonzero"></path>
            <path d="M253.498911,121 C252.462267,121 251.65865,120.731062 251.092415,120.193187 C250.528359,119.632969 250.245242,118.859877 250.245242,117.87391 L250.245242,102.041961 L244.689613,102.041961 C243.816305,102.041961 243.143358,101.829087 242.67077,101.403338 C242.224316,100.955039 242,100.327587 242,99.5209806 C242,98.691825 242.224316,98.0643727 242.67077,97.6386236 C243.143358,97.2128745 243.816305,97 244.689613,97 L262.310387,97 C263.183695,97 263.843575,97.2128745 264.292207,97.6386236 C264.764795,98.0643727 265,98.691825 265,99.5209806 C265,100.327587 264.764795,100.955039 264.292207,101.403338 C263.843575,101.829087 263.183695,102.041961 262.310387,102.041961 L256.754758,102.041961 L256.754758,117.87391 C256.754758,118.859877 256.484708,119.632969 255.940252,120.193187 C255.397974,120.731062 254.585645,121 253.498911,121 Z" id="Path" fill="#030303" fill-rule="nonzero"></path>
            <path d="M276.717741,121 C275.801458,121 274.83862,120.933968 273.831344,120.801905 C272.845229,120.691784 271.905669,120.515835 271.010547,120.273651 C270.117542,120.03167 269.31553,119.7456 268.604511,119.415441 C267.984486,119.129371 267.55068,118.755124 267.296745,118.292902 C267.044926,117.808737 266.953933,117.302629 267.021649,116.774375 C267.091481,116.246121 267.286164,115.784102 267.607816,115.387911 C267.927351,114.969778 268.352692,114.694679 268.879608,114.562616 C269.406523,114.40861 270.003271,114.474641 270.667735,114.760711 C271.537463,115.156902 272.523578,115.464914 273.623964,115.684952 C274.72435,115.90499 275.757019,116.015111 276.717741,116.015111 C278.230771,116.015111 279.286718,115.827987 279.88135,115.453943 C280.501375,115.057752 280.81033,114.573587 280.81033,114.001448 C280.81033,113.495137 280.592369,113.087975 280.156447,112.779962 C279.743802,112.471746 278.998925,112.207619 277.921817,111.987581 L273.89906,111.162286 C271.698288,110.72221 270.060406,109.951771 268.983298,108.851378 C267.90619,107.750984 267.366577,106.331606 267.366577,104.592838 C267.366577,103.448356 267.607816,102.413994 268.088176,101.489752 C268.591815,100.543365 269.292252,99.7400127 270.185258,99.0798984 C271.103657,98.419581 272.180765,97.913473 273.418699,97.5611683 C274.677795,97.1871238 276.076554,97 277.612862,97 C278.804242,97 280.008318,97.1320635 281.222974,97.3961905 C282.460908,97.6383746 283.527436,98.012419 284.420442,98.518527 C284.947357,98.782654 285.326144,99.1459302 285.554686,99.6079492 C285.785343,100.070171 285.876337,100.554337 285.829782,101.060648 C285.785343,101.544813 285.60124,101.973917 285.279589,102.347962 C284.981215,102.72221 284.568571,102.975365 284.041655,103.107225 C283.538017,103.217346 282.930689,103.129371 282.21967,102.843302 C281.555206,102.557029 280.799749,102.347962 279.951182,102.215898 C279.125893,102.061892 278.323881,101.984889 277.54303,101.984889 C276.69658,101.984889 275.972864,102.084038 275.378233,102.28193 C274.781485,102.458083 274.324402,102.72221 274.00275,103.074311 C273.704376,103.426413 273.556248,103.833575 273.556248,104.295797 C273.556248,104.758019 273.750931,105.154006 274.140299,105.484165 C274.552943,105.792381 275.29782,106.056508 276.374928,106.276546 L280.363827,107.101841 C282.58576,107.564063 284.249035,108.323327 285.349421,109.379632 C286.449807,110.43614 287,111.811632 287,113.506108 C287,114.65059 286.758762,115.684952 286.276285,116.609397 C285.795924,117.533638 285.108183,118.326019 284.215177,118.986337 C283.320056,119.624508 282.242947,120.119644 280.981736,120.471746 C279.720524,120.823848 278.300603,121 276.717741,121 Z" id="Path" fill="#030303" fill-rule="nonzero"></path>
        </g>
    </g>
</svg>