<?xml version="1.0" encoding="UTF-8"?>
<svg width="512px" height="512px" viewBox="0 0 512 512" version="1.1" xmlns="http://www.w3.org/2000/svg" xmlns:xlink="http://www.w3.org/1999/xlink">
    <title>icon</title>
    <g id="Logos" stroke="none" stroke-width="1" fill="none" fill-rule="evenodd">
        <g id="zafe" transform="translate(112.000000, 184.000000)">
            <path d="M173,44 L208.144703,44 L208.144703,51.9842858 L181.475411,51.9842858 L181.475411,80.5657143 L206.336616,80.5657143 L206.336616,88.55 L181.475411,88.55 L181.475411,125 L173,125 L173,44 L173,44 Z M239.290269,44 L274.434972,44 L274.434972,51.9842858 L247.76568,51.9842858 L247.76568,79.4085714 L272.287869,79.4085714 L272.287869,87.3928572 L247.76568,87.3928572 L247.76568,117.015715 L275,117.015715 L275,125 L239.290269,125 L239.290269,44 L239.290269,44 Z" id="FE" fill="#9B9B9B"></path>
            <path d="M139.742762,121.718017 C140.02393,123.263148 140.586266,124.80828 138.055756,125.510612 C137.071668,125.791545 136.228165,125.791545 135.525246,125.510612 C135.103494,125.370145 134.681743,125.229679 134.541159,125.089212 L115.140584,109.6379 L95.4588413,125.229679 C95.3182574,125.370145 95.1776736,125.510612 94.8965057,125.510612 C94.1935864,125.932011 93.2094993,126.212944 91.9442444,125.791545 C89.4137346,124.948746 89.9760702,123.544081 90.2572379,121.99895 L110.360732,48.3945188 C109.236061,47.2707871 108.533142,45.7256559 108.533142,44.0400583 C108.533142,40.6688629 111.204235,38 114.578248,38 C117.952261,38 120.623355,40.6688629 120.623355,44.0400583 C120.623355,45.3042565 120.201603,46.4279882 119.639268,47.2707871 L139.742762,121.718017 L139.742762,121.718017 L139.742762,121.718017 Z M121.88861,80.8422738 L117.389926,84.775335 L124.559704,91.0963262 L121.88861,80.8422738 L121.88861,80.8422738 L121.88861,80.8422738 Z M132.010649,117.925422 L127.090214,99.9457141 L118.374013,106.828571 L132.010649,117.925422 L132.010649,117.925422 L132.010649,117.925422 Z M98.1299351,118.065889 L111.907155,106.969037 L103.190954,99.9457141 L98.1299351,118.065889 L98.1299351,118.065889 L98.1299351,118.065889 Z M115.140584,104.159708 L125.403207,95.7317198 L115,86.6013991 L104.737377,95.5912533 L115.140584,104.159708 L115.140584,104.159708 L115.140584,104.159708 Z M105.440297,91.2367927 L112.891242,84.775335 L108.392558,80.8422738 L105.440297,91.2367927 L105.440297,91.2367927 L105.440297,91.2367927 Z M109.236061,77.6115449 L115.140584,82.8088044 L120.904522,77.7520114 L120.763939,77.330612 L115.140584,71.8524196 L109.376645,77.330612 L109.236061,77.6115449 L109.236061,77.6115449 L109.236061,77.6115449 Z M110.501316,73.2570843 L113.594161,70.3072884 L111.766571,68.4812243 L110.501316,73.2570843 L110.501316,73.2570843 L110.501316,73.2570843 Z M115.140584,56.1201748 L112.46949,66.0932943 L115.281168,68.7621573 L117.952261,66.2337607 L115.140584,56.1201748 L115.140584,56.1201748 L115.140584,56.1201748 Z M118.514597,68.6216907 L116.687006,70.3072884 L119.639268,73.1166179 L118.514597,68.6216907 L118.514597,68.6216907 L118.514597,68.6216907 Z" id="A" fill="#FF4814"></path>
            <polygon id="Z" fill="#9B9B9B" points="14 117.015715 47.0762163 51.9842857 14 51.9842858 14 44 57 44 57 51.9842858 23.1672506 117.015713 57 117.015715 57 125 14 125"></polygon>
            <path d="M157.421646,60.4336283 L152.239873,57.0353982 C160.782795,44.0088496 157.001502,26.5929203 143.977047,18.2389381 L147.338197,13 C163.303658,23.1946903 167.785191,44.5752212 157.421646,60.4336283 L157.421646,60.4336283 Z M75.7737185,57.6017699 L70.5919461,61 C60.2284013,44.8584071 64.7099342,23.619469 80.3952993,13.2831858 L83.7564489,18.5221239 C70.8720419,27.0176991 67.2307964,44.4336283 75.7737185,57.6017699 L75.7737185,57.6017699 Z" id="Path" fill="#D8D8D8"></path>
            <path d="M90.7420779,51.6666667 L86.5508484,55 C79.9845888,45 82.7787418,31.6666667 92.8376926,25.2777778 L95.3524304,30.4166667 C88.0876326,35 85.9920178,44.5833333 90.7420779,51.6666667 L90.7420779,51.6666667 Z M141.455955,54.5833334 L137.125018,51.25 C141.875078,44.1666667 139.779464,34.5833334 132.514665,30.1388889 L135.029403,25 C145.228062,31.3888889 148.022215,44.5833333 141.455955,54.5833334 L141.455955,54.5833334 Z" id="Path" fill="#9B9B9B"></path>
            <path d="M126.431804,48.6461538 C129.411092,44.3538461 128.134254,38.6769231 123.736258,36.0461538 L125.864321,33 C132.106638,36.7384615 133.950958,44.6307692 129.694833,50.7230769 L126.431804,48.6461538 L126.431804,48.6461538 Z M100.46944,49.0615385 L97.2064111,51 C93.0921564,45.0461538 94.9364773,37.0153846 101.036923,33.2769231 L103.164986,36.3230769 C98.7669901,39.0923077 97.4901524,44.7692307 100.46944,49.0615385 L100.46944,49.0615385 Z" id="Path" fill="#FF4814"></path>
        </g>
    </g>
</svg>